<svg xmlns="http://www.w3.org/2000/svg" fill="none" viewBox="0 0 20 20">
  <path fill="#4995EC" d="M7.15 3.4C8.41 1.13 9.05 0 10 0c.94 0 1.58 1.13 2.84 3.4l.33.59c.36.65.54.97.82 1.18.28.22.63.29 1.33.45l.64.15c2.45.55 3.69.83 3.98 1.77.29.94-.55 1.92-2.22 3.88l-.44.51c-.47.56-.71.84-.82 1.18-.11.35-.07.72 0 1.46l.07.68c.25 2.62.38 3.92-.39 4.5-.77.59-1.92.06-4.22-1l-.6-.28c-.65-.3-.98-.45-1.32-.45-.35 0-.68.15-1.33.45l-.6.28c-2.3 1.06-3.45 1.59-4.22 1-.77-.58-.64-1.88-.39-4.5l.07-.68c.07-.74.11-1.11 0-1.46-.11-.34-.35-.62-.82-1.18l-.44-.51C.6 9.46-.24 8.48.05 7.54c.29-.94 1.53-1.22 3.98-1.77l.64-.15c.7-.16 1.05-.23 1.33-.45.28-.21.46-.53.82-1.18l.33-.59Z"/>
</svg>