<svg width="26" height="26" viewBox="0 0 26 26" fill="none" xmlns="http://www.w3.org/2000/svg">
<path d="M7.77031 5.98161C4.93672 7.84529 2.6211 9.38904 2.6211 9.4195C2.61602 9.49568 12.9094 16.2496 13.0109 16.2343C13.1379 16.2191 23.4059 9.48044 23.3906 9.4195C23.3754 9.34841 13.0922 2.5945 13.0008 2.5945C12.9602 2.5945 10.6039 4.11794 7.77031 5.98161Z" fill="#C80018"/>
<path d="M4.46875 13.4977V15.4121L8.70391 18.1949C11.0348 19.7234 12.9695 20.9727 13 20.9727C13.0355 20.9727 14.2441 20.2008 15.6863 19.2563C17.1285 18.3066 18.3371 17.5195 18.3727 17.4992C18.4184 17.4688 18.4336 17.5957 18.4336 18.0629V18.6621L18.2559 18.7586C17.9969 18.9008 17.6871 19.2563 17.5297 19.5914L17.3926 19.8809L17.3773 21.648L17.3621 23.4102H19.1191H20.8762L20.8609 21.6734C20.8457 20.0129 20.8355 19.9164 20.7289 19.6473C20.5918 19.302 20.3277 18.982 20.0281 18.8094L19.8047 18.6773V17.616V16.5547L20.668 15.9809L21.5312 15.4121V13.4926C21.5312 12.4414 21.516 11.5781 21.5008 11.5781C21.4855 11.5781 19.5711 12.8223 17.2555 14.3457C14.5336 16.1332 13.0051 17.1082 12.9543 17.0879C12.9137 17.0727 10.9992 15.8234 8.70391 14.3152C6.40859 12.8121 4.51445 11.5781 4.49922 11.5781C4.48398 11.5781 4.46875 12.4414 4.46875 13.4977Z" fill="#C80018"/>
</svg>
