<svg width="12" height="12" viewBox="0 0 12 12" fill="none" xmlns="http://www.w3.org/2000/svg">
<path fill-rule="evenodd" clip-rule="evenodd" d="M6.00619 7.46994L9.66587 11.1303C9.86007 11.3245 10.1235 11.4336 10.3981 11.4336C10.6727 11.4336 10.9361 11.3245 11.1303 11.1303C11.3245 10.9361 11.4336 10.6727 11.4336 10.3981C11.4336 10.1235 11.3245 9.86008 11.1303 9.66589L7.46923 6.0062L11.1296 2.34652C11.2257 2.25036 11.302 2.13622 11.3539 2.0106C11.4059 1.88498 11.4327 1.75036 11.4327 1.6144C11.4326 1.47845 11.4058 1.34384 11.3538 1.21824C11.3017 1.09265 11.2254 0.978544 11.1293 0.882434C11.0331 0.786324 10.919 0.710094 10.7933 0.658097C10.6677 0.6061 10.5331 0.579353 10.3972 0.579386C10.2612 0.579418 10.1266 0.606227 10.001 0.658283C9.8754 0.71034 9.7613 0.786624 9.66518 0.882779L6.00619 4.54246L2.3465 0.882779C2.25106 0.783866 2.13687 0.704951 2.0106 0.65064C1.88433 0.596329 1.74851 0.567708 1.61106 0.56645C1.47361 0.565191 1.33729 0.591318 1.21005 0.643308C1.0828 0.695297 0.967188 0.772108 0.869947 0.869257C0.772706 0.966406 0.695787 1.08195 0.643678 1.20914C0.591568 1.33634 0.565312 1.47263 0.566441 1.61008C0.56757 1.74753 0.596062 1.88338 0.650254 2.0097C0.704446 2.13602 0.783253 2.25029 0.882077 2.34583L4.54314 6.0062L0.882767 9.66589C0.688572 9.86008 0.579474 10.1235 0.579474 10.3981C0.579474 10.6727 0.688572 10.9361 0.882767 11.1303C1.07696 11.3245 1.34035 11.4336 1.61498 11.4336C1.88961 11.4336 2.153 11.3245 2.34719 11.1303L6.00619 7.46925V7.46994Z" fill="white"/>
</svg>
