<svg width="14" height="20" viewBox="0 0 14 20" fill="none" xmlns="http://www.w3.org/2000/svg">
<path d="M6.32021 1.00741C5.49808 1.15517 5.0924 1.28183 4.53235 1.5668C2.98142 2.35839 1.90081 3.85363 1.65309 5.54236C1.63514 5.68661 1.61719 6.75262 1.61719 8.07898C1.61719 10.2321 1.62078 10.3834 1.6854 10.6367C1.72489 10.7845 1.80028 10.992 1.85054 11.0976C1.98338 11.372 2.22391 11.7168 2.28136 11.7168C2.31008 11.7168 2.90244 11.5163 3.60251 11.2735L4.8734 10.8302L4.89494 10.598C4.92008 10.3658 4.91649 10.3623 4.8016 10.2743C4.05845 9.71494 3.50199 8.82132 3.32248 7.89955C3.25068 7.53366 3.21837 6.52042 3.26504 6.16156C3.31889 5.76049 3.45891 5.47552 3.73175 5.20462C4.04409 4.89853 4.2954 4.79299 4.86263 4.73318C5.236 4.69096 5.35807 4.66281 5.55911 4.57134C6.06532 4.3321 6.3992 3.86418 6.46741 3.2872C6.48536 3.12184 6.52485 2.9389 6.55716 2.88261C6.67204 2.66096 7.02746 2.56949 7.26082 2.69966C7.42955 2.79817 7.49776 2.94593 7.53726 3.28368C7.61265 3.92047 8.00397 4.42358 8.58197 4.63115C8.67173 4.66281 8.9338 4.70855 9.16716 4.73318C9.70567 4.79299 9.96416 4.90557 10.2729 5.20462C10.6965 5.62328 10.7971 6.01732 10.7576 7.13259C10.7289 8.04028 10.6319 8.45191 10.3124 9.05704C10.0539 9.53903 9.60156 10.0527 9.16716 10.3482C9.09895 10.394 9.09177 10.4221 9.10972 10.6156L9.13126 10.8302L10.4093 11.2735C11.113 11.5198 11.7054 11.7168 11.7305 11.7168C11.7807 11.7168 12.0285 11.3544 12.1541 11.0976C12.2044 10.992 12.2798 10.7845 12.3193 10.6367C12.3839 10.3834 12.3875 10.2321 12.3875 8.07898C12.3875 6.75262 12.3695 5.68661 12.3516 5.54236C12.1828 4.39191 11.63 3.3259 10.7755 2.49912C10.036 1.78493 9.14203 1.30997 8.13321 1.08481C7.8819 1.03203 7.65214 1.01093 7.11003 1.00389C6.72589 0.996853 6.37047 1.00037 6.32021 1.00741Z" fill="#D3021A"/>
<path d="M6.86506 4.84516C6.5958 5.16532 6.04293 5.51714 5.60493 5.64379C5.49723 5.67546 5.23874 5.71768 5.03052 5.73879C4.61766 5.781 4.48841 5.83378 4.38071 6.00265C4.31968 6.10116 4.3125 6.18208 4.3125 6.86813C4.3125 7.51196 4.32327 7.66676 4.3843 7.90248C4.64638 8.90516 5.40389 9.6862 6.34449 9.92192C6.72145 10.0169 7.28869 10.0169 7.67283 9.92192C8.16826 9.79878 8.52009 9.60176 8.91141 9.21828C9.21298 8.92627 9.2776 8.83832 9.42121 8.54982C9.67251 8.03617 9.69764 7.88489 9.69764 6.93497C9.69764 6.1856 9.69046 6.10468 9.62943 6.00265C9.52173 5.83378 9.39249 5.781 8.97962 5.73879C8.24006 5.6649 7.72668 5.42918 7.23484 4.93664C7.11277 4.8135 7.00507 4.71499 6.9943 4.71499C6.98353 4.71499 6.92609 4.7748 6.86506 4.84516Z" fill="#D3021A"/>
<path d="M5.92151 11.1991V11.5368L5.742 11.6002C5.64507 11.6353 5.5625 11.674 5.5625 11.6881C5.5625 11.7303 6.96982 13.792 6.99854 13.792C7.02726 13.792 8.43458 11.7303 8.43458 11.6881C8.43458 11.674 8.35559 11.6353 8.25507 11.6002L8.07557 11.5368V11.1991C8.07557 10.8684 8.07557 10.8649 7.99659 10.8824C7.94991 10.8895 7.79195 10.9247 7.64476 10.9563C7.29652 11.0337 6.70056 11.0337 6.35232 10.9563C6.20513 10.9247 6.04716 10.8895 6.00408 10.8824C5.92151 10.8649 5.92151 10.8684 5.92151 11.1991Z" fill="#D3021A"/>
<path d="M4.38931 12.0692L4.30674 12.1008V13.2196L4.31033 14.3384L4.49702 14.4228C4.75909 14.5424 5.05707 14.8485 5.20785 15.1476C5.32633 15.3833 5.32992 15.4079 5.32992 15.7984C5.32992 16.1819 5.32274 16.2171 5.21503 16.4423C5.06066 16.7624 4.75191 17.065 4.42521 17.2163C4.19545 17.3218 4.15955 17.3289 3.76823 17.3289C3.37691 17.3289 3.341 17.3218 3.11124 17.2163C2.78454 17.065 2.47579 16.7624 2.32142 16.4423C2.21371 16.2171 2.20653 16.1819 2.20653 15.7984C2.20653 15.415 2.21371 15.3798 2.32142 15.1546C2.46143 14.8626 2.77377 14.546 3.03944 14.4228L3.22612 14.3384L3.22971 13.4131C3.22971 12.9065 3.22253 12.4913 3.21176 12.4913C3.13996 12.4913 1.23362 13.1844 1.06488 13.2724C0.659203 13.487 0.282243 13.9268 0.0955576 14.4123C0.0165755 14.6163 0.0165755 14.648 0.00580523 16.6252C-0.00855516 18.8558 -0.0157353 18.7819 0.231981 18.9296C0.346864 19 0.436617 19 7.0029 19C13.4615 19 13.6625 18.9965 13.7631 18.9332C13.8169 18.898 13.8959 18.8206 13.9318 18.7678C13.9964 18.6693 14 18.5673 14 16.7132C14 14.6198 13.9964 14.6023 13.8097 14.2082C13.6159 13.8001 13.2389 13.4237 12.8153 13.2126C12.6788 13.1457 10.8407 12.4913 10.7869 12.4913C10.7761 12.4913 10.7689 12.9065 10.7689 13.4131L10.7725 14.3384L10.9592 14.4228C11.2141 14.5424 11.5192 14.8485 11.6593 15.13C11.8065 15.422 11.8567 15.816 11.8388 16.4845C11.828 16.8961 11.8136 16.9946 11.7562 17.0931C11.5516 17.4309 11.0777 17.4344 10.8658 17.1002C10.794 16.9876 10.7869 16.9172 10.7689 16.2734C10.751 15.5099 10.7402 15.4712 10.5284 15.3376C10.392 15.2496 10.0688 15.2496 9.93242 15.3376C9.72061 15.4712 9.70984 15.5099 9.69188 16.2734C9.67393 16.9172 9.66675 16.9876 9.59495 17.1002C9.38314 17.4344 8.90924 17.4309 8.70461 17.0931C8.64717 16.9946 8.63281 16.8961 8.62204 16.4845C8.60409 15.8336 8.65435 15.429 8.79436 15.1405C8.9236 14.8626 9.24312 14.5424 9.50161 14.4228L9.68829 14.3384L9.69188 13.2196V12.1043L9.59854 12.0692C9.54828 12.048 9.49802 12.034 9.48366 12.034C9.4693 12.034 8.99182 12.7271 8.4174 13.5714C7.72092 14.5952 7.34037 15.1265 7.26857 15.1722C7.20754 15.2074 7.09266 15.2355 6.99931 15.2355C6.90597 15.2355 6.79109 15.2074 6.73006 15.1722C6.65825 15.1265 6.2777 14.5952 5.58122 13.5714C5.0104 12.7271 4.52574 12.0375 4.5042 12.0375C4.48625 12.0375 4.43239 12.0516 4.38931 12.0692Z" fill="#D3021A"/>
<path d="M3.47132 15.3366C3.30618 15.4456 3.23438 15.5793 3.23438 15.7975C3.23438 16.0156 3.30618 16.1493 3.47132 16.2583C3.54312 16.3041 3.64006 16.3252 3.77289 16.3252C3.99548 16.3252 4.1319 16.2548 4.24319 16.093C4.33653 15.9558 4.33653 15.6391 4.24319 15.5019C4.1319 15.3401 3.99548 15.2697 3.77289 15.2697C3.64006 15.2697 3.54312 15.2908 3.47132 15.3366Z" fill="#D3021A"/>
</svg>
