<svg width="26" height="26" viewBox="0 0 26 26" fill="none" xmlns="http://www.w3.org/2000/svg">
<path d="M9.60782 2.53867C8.63282 2.79258 7.74415 3.51367 7.29727 4.40742C7.16016 4.68164 7.02813 5.04219 6.97735 5.28086L6.89102 5.68711H4.2961C1.40157 5.68711 1.48282 5.68203 1.13243 6.04766C0.807427 6.39297 0.812505 6.33711 0.812505 9.15039C0.812505 11.5168 0.822661 11.7199 0.908989 11.9078C1.01563 12.1414 1.22383 12.3648 1.44727 12.4816C1.52852 12.5273 3.15352 12.8879 5.05274 13.2789L8.50586 13.9949L8.53633 13.35C8.55665 12.9945 8.60743 12.5832 8.65313 12.4309C8.80547 11.9078 9.22188 11.4305 9.72461 11.1918C10.0648 11.0344 10.5422 10.9684 11.375 10.9684C12.2078 10.9684 12.6852 11.0344 13.0254 11.1918C13.5281 11.4305 13.9445 11.9078 14.0969 12.4309C14.1426 12.5832 14.1934 12.9945 14.2137 13.3551L14.2441 14L17.6465 13.2992C19.5203 12.9082 21.1352 12.5578 21.2367 12.5121C21.4856 12.4004 21.7293 12.1566 21.841 11.9078C21.9273 11.7199 21.9375 11.5168 21.9375 9.15039C21.9375 6.33711 21.9426 6.39297 21.6176 6.04766C21.2672 5.68203 21.3484 5.68711 18.4539 5.68711H15.859L15.7727 5.28086C15.4934 3.97578 14.4219 2.86875 13.1219 2.53867C12.7766 2.44727 12.5633 2.43711 11.3547 2.44219C10.1715 2.44219 9.92774 2.45742 9.60782 2.53867ZM12.6191 4.99648C12.8527 5.09805 13.127 5.3418 13.2336 5.54492L13.3098 5.68711H11.375H9.44024L9.51641 5.54492C9.60274 5.3875 9.87696 5.11836 10.0445 5.03203C10.2731 4.91016 10.6031 4.87969 11.502 4.89492C12.2383 4.90508 12.4566 4.92539 12.6191 4.99648Z" fill="#C80018"/>
<path d="M10.0287 11.8777C9.76968 11.9945 9.46499 12.3297 9.3939 12.5785C9.35327 12.7055 9.34312 13.2387 9.35327 14.1934L9.36851 15.6152L9.51577 15.9199C9.70874 16.3109 10.0947 16.6969 10.4857 16.8898C10.7701 17.027 10.831 17.0371 11.3744 17.0371C11.9177 17.0371 11.9787 17.027 12.263 16.8898C12.6541 16.6969 13.04 16.3109 13.233 15.9199L13.3802 15.6152L13.3955 14.1934C13.4158 12.6039 13.4005 12.4973 13.1111 12.1773C12.7759 11.8066 12.6744 11.7812 11.3744 11.7812C10.3791 11.7812 10.2064 11.7965 10.0287 11.8777ZM11.7603 14.0359C11.9025 14.1781 11.933 14.2492 11.933 14.4219C11.933 14.5945 11.9025 14.6656 11.7603 14.8078C11.6181 14.95 11.547 14.9805 11.3744 14.9805C11.2017 14.9805 11.1306 14.95 10.9884 14.8078C10.8462 14.6656 10.8158 14.5945 10.8158 14.4219C10.8158 14.2492 10.8462 14.1781 10.9884 14.0359C11.1306 13.8938 11.2017 13.8633 11.3744 13.8633C11.547 13.8633 11.6181 13.8938 11.7603 14.0359Z" fill="#C80018"/>
<path d="M1.625 16.5293C1.625 19.0785 1.64023 19.7387 1.69102 19.8707C1.80273 20.1348 2.03633 20.3684 2.31055 20.4953L2.56445 20.6172H8.78008H14.9906L14.9602 20.5004C14.7012 19.6219 14.7063 19.6523 14.7063 18.6875C14.7063 17.8648 14.7164 17.6922 14.818 17.3266C15.0922 16.3262 15.6203 15.407 16.3313 14.6859C16.5648 14.4574 16.7324 14.2695 16.7172 14.2695C16.641 14.2695 14.2594 14.7672 14.2441 14.7875C14.2289 14.7977 14.1984 15.0008 14.173 15.2395C14.107 15.8082 13.9699 16.1941 13.6754 16.6258C13.1523 17.3926 12.3246 17.8242 11.375 17.8242C10.4254 17.8242 9.59766 17.3926 9.07461 16.6258C8.78008 16.1941 8.64297 15.8082 8.57695 15.2395C8.55156 15.0008 8.52109 14.7977 8.50586 14.7875C8.4957 14.7773 7.00781 14.4625 5.19492 14.0867C3.38711 13.7109 1.84336 13.391 1.76719 13.3758L1.625 13.3453V16.5293Z" fill="#C80018"/>
<path d="M19.348 13.8883C18.632 14.0305 17.7637 14.4266 17.3219 14.8125L17.1391 14.9699L17.7637 15.6047C18.4441 16.2953 18.5051 16.4223 18.2664 16.6457C18.0277 16.8691 17.9109 16.8133 17.2355 16.1379C16.5094 15.4219 16.5754 15.427 16.1641 16.082C15.8035 16.666 15.5598 17.3363 15.4582 18.0371L15.4277 18.2809H16.2199C17.1137 18.2809 17.3422 18.3316 17.398 18.5551C17.4133 18.6262 17.4133 18.748 17.398 18.8191C17.3422 19.0426 17.1137 19.0934 16.2199 19.0934H15.4277L15.4582 19.332C15.5598 20.0379 15.8035 20.7082 16.1641 21.2922C16.5754 21.9473 16.5094 21.9523 17.2355 21.2363C17.9211 20.5559 18.048 20.4949 18.2715 20.7336C18.4949 20.9723 18.4391 21.0891 17.7637 21.7645C17.0477 22.4906 17.0527 22.4246 17.6977 22.8258C18.2816 23.1914 18.9723 23.4402 19.668 23.5418L19.9066 23.5723V22.7801C19.9066 21.8863 19.9574 21.6578 20.1809 21.602C20.252 21.5867 20.3738 21.5867 20.4449 21.602C20.6684 21.6578 20.7191 21.8863 20.7191 22.7801V23.5723L20.9629 23.5418C21.6535 23.4402 22.3441 23.1914 22.9281 22.8258C23.573 22.4246 23.5781 22.4906 22.8621 21.7645C22.1816 21.0789 22.1207 20.952 22.3594 20.7285C22.598 20.5051 22.7148 20.5609 23.3902 21.2363C24.1164 21.9523 24.0504 21.9473 24.4516 21.3023C24.8172 20.7184 25.066 20.0277 25.1676 19.332L25.198 19.0934H24.4059C23.5121 19.0934 23.2836 19.0426 23.2277 18.8191C23.2125 18.748 23.2125 18.6262 23.2277 18.5551C23.2836 18.3316 23.5121 18.2809 24.4059 18.2809H25.198L25.1676 18.0371C25.066 17.3465 24.8172 16.6559 24.4516 16.0719C24.0504 15.427 24.1164 15.4219 23.3902 16.1379C22.7047 16.8184 22.5777 16.8793 22.3543 16.6406C22.1309 16.402 22.1867 16.2852 22.8621 15.6098C23.5781 14.8836 23.573 14.9496 22.9281 14.5484C22.3441 14.1828 21.6535 13.934 20.9629 13.8324L20.7191 13.802V14.5941C20.7191 15.4879 20.6684 15.7164 20.4449 15.7723C20.3738 15.7875 20.252 15.7875 20.1809 15.7723C19.9625 15.7164 19.9066 15.4879 19.9066 14.5992C19.9066 13.6953 19.9625 13.7664 19.348 13.8883ZM20.516 16.3512C20.6785 16.4375 20.7191 16.6863 20.7191 17.6816C20.7191 18.3824 20.6988 18.682 20.648 18.8039C20.6125 18.8953 20.3738 19.1645 20.125 19.4082C19.6223 19.8957 19.4547 19.9617 19.2465 19.7535C19.0484 19.5555 19.1094 19.3727 19.5258 18.9461L19.9066 18.5551V17.6309C19.9066 16.7066 19.9422 16.4832 20.0945 16.3613C20.1961 16.2902 20.384 16.2801 20.516 16.3512Z" fill="#C80018"/>
</svg>
