<svg width="29" height="28" viewBox="0 0 29 28" fill="none" xmlns="http://www.w3.org/2000/svg">
<g clip-path="url(#clip0_457_702)">
<path d="M17.8578 0.158594C17.6062 0.344531 15.5937 2.36797 15.4625 2.57031C15.4078 2.65234 15.375 2.81641 15.375 3.00781C15.375 3.19922 15.4078 3.36328 15.4625 3.44531C15.5937 3.64766 17.6062 5.67109 17.8578 5.85703C18.0328 5.98828 18.1258 6.01563 18.3773 6.01563C18.9078 6.01563 19.2031 5.72031 19.2031 5.19531C19.2031 4.83438 19.1594 4.76328 18.6344 4.22188L18.2461 3.82266L22.0195 3.83906L25.793 3.85547L26.0391 3.98672C26.3727 4.16172 26.5148 4.29844 26.6844 4.62109L26.832 4.89453L26.8594 9.05078C26.8867 12.8406 26.8922 13.218 26.9797 13.3383C27.1437 13.568 27.357 13.6719 27.6797 13.6719C28.0187 13.6719 28.2266 13.5625 28.3961 13.3109C28.4945 13.1578 28.5 12.9719 28.5 8.88672L28.4945 4.62109L28.3742 4.26016C28.0406 3.27578 27.3023 2.57031 26.318 2.275C26.0555 2.19844 25.5469 2.1875 22.1344 2.1875H18.2516L18.6344 1.78828C19.1594 1.25781 19.2031 1.18125 19.2031 0.820313C19.2031 0.295313 18.9078 2.32831e-07 18.3773 2.32831e-07C18.1258 2.32831e-07 18.0328 0.027344 17.8578 0.158594Z" fill="#17706E"/>
<path d="M5.70234 3.60938C5.22109 3.71328 4.79453 3.96484 4.30234 4.43516L3.83203 4.88906L6.82891 7.88594C8.475 9.53203 9.85312 10.8828 9.88594 10.8828C9.91875 10.8828 10.1375 10.6859 10.3727 10.4398C11.0617 9.71797 11.3187 8.97969 11.1711 8.14844C11.0344 7.39922 10.9086 7.22969 9.33906 5.64375C7.87344 4.16719 7.47969 3.83906 6.9875 3.68594C6.6375 3.58203 6.01953 3.54375 5.70234 3.60938Z" fill="#17706E"/>
<path d="M1.99434 6.7416C0.867773 7.89551 0.556055 8.54629 0.512305 9.82051C0.484961 10.7119 0.572461 11.0947 1.05371 12.2104C4.13809 19.3307 9.16934 24.3619 16.2896 27.4463C17.4053 27.9275 17.7881 28.015 18.6795 27.9877C19.9646 27.9439 20.61 27.6322 21.7748 26.4838L22.5131 25.7619L19.4889 22.7432L16.4646 19.7299L16.1693 20.0143C15.7701 20.3861 15.4475 20.5283 14.9936 20.5338C14.5725 20.5338 14.3865 20.4627 13.867 20.1182C11.9475 18.833 9.66699 16.5525 8.38184 14.633C8.0373 14.1135 7.96621 13.9275 7.96621 13.5064C7.97168 13.0525 8.11387 12.7299 8.49121 12.3307L8.77559 12.0299L5.82793 9.07676C4.20918 7.44707 2.84199 6.09629 2.79277 6.06894C2.72168 6.02519 2.56309 6.16191 1.99434 6.7416Z" fill="#17706E"/>
<path d="M19.4273 17.3344C18.9625 17.4328 18.5195 17.6898 18.0602 18.1273C17.8141 18.3625 17.6172 18.5813 17.6172 18.6141C17.6172 18.6469 18.968 20.025 20.6141 21.6711L23.6109 24.668L24.0648 24.1977C24.7867 23.4484 25.0438 22.7211 24.8961 21.8734C24.7594 21.1242 24.6336 20.9547 23.0641 19.3688C21.5984 17.8922 21.2047 17.5641 20.7125 17.4109C20.3625 17.307 19.7445 17.2688 19.4273 17.3344Z" fill="#17706E"/>
</g>
<defs>
<clipPath id="clip0_457_702">
<rect width="28" height="28" fill="white" transform="translate(0.5)"/>
</clipPath>
</defs>
</svg>
