<?xml version="1.0" encoding="utf-8"?>
<!-- Generator: Adobe Illustrator 24.1.2, SVG Export Plug-In . SVG Version: 6.00 Build 0)  -->
<svg version="1.1" id="Слой_1" xmlns="http://www.w3.org/2000/svg" xmlns:xlink="http://www.w3.org/1999/xlink" x="0px" y="0px"
	 viewBox="0 0 100 100" style="enable-background:new 0 0 100 100;" xml:space="preserve">
<style type="text/css">
	.st0{fill:#55D6D2;}
	.st1{fill:#18627D;}
	.st2{fill:#FFF8E6;}
	.st3{fill:#F85B30;}
	.st4{fill:#009540;}
	.st5{fill:#1D1D1B;}
	.st6{fill:none;stroke:#FFFFFF;stroke-miterlimit:10;}
</style>
<g>
	<g>
		<path class="st0" d="M60.13,74.25c0,2.39-1.95,4.34-4.34,4.34H8.38c-2.39,0-4.34-1.95-4.34-4.34V47.67c0-2.39,1.95-4.34,4.34-4.34
			h47.4c2.39,0,4.34,1.95,4.34,4.34V74.25z"/>
		<g>
			<path class="st1" d="M15.11,52.09c0-2.29-1.85-4.15-4.15-4.15c-2.29,0-4.15,1.86-4.15,4.15c0,2.3,1.86,4.15,4.15,4.15
				C13.25,56.24,15.11,54.38,15.11,52.09z"/>
			<path class="st2" d="M20.5,52.09c0-2.29-1.86-4.15-4.15-4.15c-2.29,0-4.15,1.86-4.15,4.15c0,2.3,1.86,4.15,4.15,4.15
				C18.64,56.24,20.5,54.38,20.5,52.09z"/>
			<path class="st3" d="M25.9,52.09c0-2.29-1.86-4.15-4.15-4.15c-2.29,0-4.15,1.86-4.15,4.15c0,2.3,1.86,4.15,4.15,4.15
				C24.04,56.24,25.9,54.38,25.9,52.09z"/>
		</g>
		<g>
			<rect x="6.81" y="63.99" class="st2" width="21.04" height="4.19"/>
			<rect x="6.81" y="70.58" class="st2" width="13.14" height="4.2"/>
			<rect x="20.68" y="70.58" class="st2" width="8.9" height="4.2"/>
		</g>
		<g>
			<path class="st2" d="M54.14,50.03c-0.08-0.02-0.15-0.04-0.23-0.06c-0.06-0.02-0.12-0.03-0.18-0.05
				c-1.32-0.35-2.65-0.54-3.94-0.53c-4.01,0.02-8.01,1.59-11.03,4.66c-5.99,6.07-6.05,15.79-0.17,21.81l0.28,0.31l0.29,0.29
				c0.64,0.56,1.33,1.08,2.05,1.54c0.32,0.22,0.66,0.42,1,0.61l2.74,0c-0.91-0.33-1.78-0.75-2.6-1.25c1.95-0.06,3.88-0.39,5.75-1.02
				c0.31-0.1,0.61-0.22,0.92-0.33c0.38,0.84,0.7,1.72,0.95,2.61l0.89,0c-0.09-0.35-0.19-0.69-0.31-1.04
				c-0.22-0.64-0.46-1.27-0.74-1.89c2.24-0.98,4.32-2.37,6.09-4.09l3.96,3.91c-1.43,1.36-3.14,2.43-5.03,3.11l0.98,0
				c2.3-0.01,4.18-1.82,4.32-4.08l-3.61-3.56c1.47-1.56,2.7-3.35,3.62-5.28l0-2.22c-0.06,0.18-0.12,0.36-0.19,0.54
				c-1.81-0.87-3.5-2.03-5.02-3.47l5.22-5.29l0-2.05c-0.66-0.54-1.36-1.03-2.1-1.47C56.83,50.99,55.52,50.42,54.14,50.03z
				 M49.89,50.59c2.64,0,5.11,0.71,7.24,1.95c-1.91,0.07-3.8,0.4-5.64,1.01c-0.4,0.13-0.79,0.28-1.17,0.43
				c-0.47-1.09-0.83-2.22-1.08-3.38C49.45,50.6,49.67,50.59,49.89,50.59z M44.32,58.91c1.67-1.62,3.55-2.9,5.57-3.82
				c0.96,1.99,2.24,3.83,3.79,5.43l-3.81,3.87L44.32,58.91z M49.25,65.01l-4.08,4.14c-1.58-1.5-3.39-2.74-5.35-3.66
				c0.9-2.16,2.2-4.17,3.88-5.95L49.25,65.01z M48.37,50.67c0.15,0.69,0.33,1.38,0.55,2.06c0.18,0.54,0.38,1.07,0.61,1.59
				c-2.15,0.98-4.13,2.33-5.83,3.98l-3.77-3.73C42.18,52.44,45.11,51.01,48.37,50.67z M39.31,55.2l3.77,3.73
				c-1.71,1.81-3.09,3.93-4.05,6.21c-0.57-0.24-1.14-0.45-1.73-0.64c-0.61-0.2-1.23-0.35-1.85-0.49
				C35.7,60.62,37.12,57.54,39.31,55.2z M35.43,65.03c0-0.05,0-0.1,0-0.15c1.13,0.25,2.23,0.6,3.3,1.05
				c-0.11,0.28-0.2,0.56-0.3,0.85c-0.59,1.85-0.9,3.75-0.94,5.67C36.18,70.28,35.43,67.74,35.43,65.03z M38.39,73.76
				c-0.12-2.58,0.26-5.11,1.12-7.48c1.82,0.87,3.52,2.04,5.05,3.48l-5.14,5.2C39.05,74.59,38.71,74.18,38.39,73.76z M41.07,76.45
				c-0.36-0.27-0.7-0.56-1.03-0.87l5.14-5.21c1.42,1.46,2.58,3.09,3.46,4.84C46.25,76.13,43.69,76.55,41.07,76.45z M49.43,74.89
				c-0.94-1.88-2.17-3.61-3.64-5.13l4.08-4.14l5.4,5.33C53.53,72.64,51.56,73.96,49.43,74.89z M59.6,64.78
				c-0.89,2.01-2.14,3.89-3.72,5.56L50.48,65l3.81-3.86C55.87,62.62,57.67,63.85,59.6,64.78z M59.7,54.43l-5.41,5.48
				c-1.5-1.55-2.72-3.28-3.62-5.15c2.45-0.98,5.09-1.44,7.79-1.35C58.9,53.73,59.31,54.07,59.7,54.43z"/>
		</g>
	</g>
</g>
<g>
	<g>
		<g>
			<path class="st4" d="M69.45,78.14c1.27,0.72,2.9,0.27,3.62-1L95.6,37.34c0.72-1.27,0.27-2.9-1-3.62L73.45,21.75
				c-1.27-0.72-2.9-0.27-3.62,1L47.29,62.54c-0.72,1.27-0.27,2.9,1,3.62L69.45,78.14z"/>
			
				<rect x="48.49" y="37.78" transform="matrix(0.4929 -0.8701 0.8701 0.4929 -7.2204 87.4928)" class="st0" width="45.92" height="24.32"/>
			<path class="st4" d="M66.54,58.61c4.87,2.76,11.02,1.11,13.73-3.67c2.71-4.79,0.96-10.91-3.91-13.67
				c-4.87-2.76-11.02-1.11-13.73,3.67S61.67,55.85,66.54,58.61z"/>
			<path class="st0" d="M71.73,46.34c0.63,0.36,2.23,1.47,1.06,3.53l-0.5,0.89c-0.32,0.57-0.15,0.84,0.27,1.07l0.33,0.19
				c0.5,0.28,0.83-0.04,1.11-0.53c0.61-1.07,1.17-2.24,1.39-2.72l1.46,0.83c-0.19,0.88-0.29,1.26-0.79,2.22l0.96,0.54l-0.62,1.1
				l-0.94-0.53c-0.65,1.14-1.75,2.05-3.71,0.95l-0.48-0.27c-0.92-0.52-2.12-1.67-1.15-3.38l0.52-0.93c0.35-0.61,0.26-0.93-0.23-1.21
				l-0.28-0.16c-0.63-0.36-0.88-0.06-1.24,0.61c-0.32,0.57-0.97,1.83-1.3,2.56l-1.47-0.83c0.15-0.67,0.37-1.36,0.79-2.19l-1-0.56
				l0.62-1.1l0.99,0.56c0.76-1.24,1.86-1.95,3.51-1.03L71.73,46.34z"/>
			<path class="st4" d="M69.28,27.4l2.78-4.9l4.49,2.54c-0.1,0.39-0.25,0.77-0.45,1.14c-1.22,2.16-3.97,2.92-6.13,1.7
				C69.72,27.74,69.49,27.58,69.28,27.4z"/>
			<path class="st4" d="M48.25,64.53l2.76-4.86c0.26,0.09,0.52,0.2,0.76,0.34c2.16,1.22,2.92,3.97,1.7,6.13
				c-0.2,0.35-0.44,0.67-0.71,0.95L48.25,64.53z"/>
			<path class="st4" d="M92.85,40.43c-0.59-0.06-1.17-0.25-1.72-0.56c-2.16-1.22-2.92-3.97-1.7-6.13c0.21-0.37,0.46-0.69,0.74-0.97
				l5.31,3.01L92.85,40.43z"/>
			<path class="st4" d="M66.36,74.79c0.1-0.38,0.24-0.75,0.44-1.1c1.22-2.16,3.97-2.92,6.13-1.7c0.55,0.31,1,0.72,1.36,1.19
				l-2.62,4.62L66.36,74.79z"/>
		</g>
		<g>
			<g>
				<path class="st4" d="M77.92,38.52c-1.38-0.78-1.87-2.54-1.09-3.92c0.78-1.38,2.54-1.87,3.92-1.09c1.38,0.78,1.87,2.54,1.09,3.92
					C81.06,38.82,79.3,39.31,77.92,38.52z"/>
				<path class="st4" d="M62.14,66.37c-1.38-0.78-1.87-2.54-1.09-3.92c0.78-1.38,2.54-1.87,3.92-1.09c1.38,0.78,1.87,2.54,1.09,3.92
					C65.28,66.67,63.53,67.15,62.14,66.37z"/>
			</g>
		</g>
	</g>
</g>
<g>
	<g>
		<g>
			<path class="st5" d="M73.34,75.46c0,1.75-1.43,3.17-3.17,3.17H50.42H49.6c-1.74,0-3.17-1.42-3.17-3.17V43.25v-10.5
				c0-1.74,1.43-3.17,3.17-3.17h20.57c1.74,0,3.17,1.43,3.17,3.17V75.46z"/>
		</g>
		<path class="st0" d="M71.51,70.66c0,0.7-0.57,1.27-1.27,1.27H49.53c-0.7,0-1.27-0.57-1.27-1.27V35.16c0-0.7,0.57-1.27,1.27-1.27
			h20.72c0.7,0,1.27,0.57,1.27,1.27V70.66z"/>
		<rect x="56.58" y="31.24" class="st2" width="6.61" height="0.64"/>
		<path class="st2" d="M61.86,76.52c0,0.39-0.31,0.7-0.7,0.7h-2.53c-0.39,0-0.7-0.31-0.7-0.7v-2.53c0-0.39,0.31-0.7,0.7-0.7h2.53
			c0.39,0,0.7,0.31,0.7,0.7V76.52z"/>
	</g>
</g>
<path class="st6" d="M68.53,78.64l-59-0.04c0,0-5.51,0.38-5.51-4.6c0-4.98,0.03-26.33,0.03-26.33s-0.2-4.34,4.17-4.31l37.71,0
	l0-10.58c0.02,0.09-0.17-3.68,3.93-3.68c3.15,0,16.34,0,16.34,0l3.65-6.36c0,0,1.41-2.26,3.62-1c2.21,1.26,21.15,11.98,21.15,11.98
	s2.25,1.4,1,3.62c-1.25,2.22-22.03,38.89-22.03,38.89S73,78.69,68.53,78.64z"/>
</svg>
