<svg width="26" height="26" viewBox="0 0 26 26" fill="none" xmlns="http://www.w3.org/2000/svg">
<path d="M2.40769 2.2293C2.32137 2.28008 2.22488 2.3918 2.19441 2.46797C2.14871 2.57969 2.13348 4.98672 2.14363 12.5277L2.15887 22.4402L2.30613 22.5926L2.45848 22.75H8.82137H15.1792L15.1944 19.0277L15.2096 15.3105L15.3518 15.0109C15.7327 14.1934 16.5401 13.65 17.8757 13.2996L18.4089 13.1625L18.4241 7.8457C18.4292 4.14883 18.419 2.50352 18.3784 2.43242C18.353 2.37656 18.2514 2.28516 18.1651 2.23438C18.0077 2.13281 17.835 2.13281 10.2839 2.13281C2.8241 2.13281 2.56004 2.13789 2.40769 2.2293ZM16.0475 4.50938C16.2405 4.70234 16.2659 4.90039 16.2405 6.14961C16.2253 7.28711 16.205 7.35313 15.9104 7.49024C15.7682 7.55625 15.0675 7.56641 10.2077 7.55625L4.66238 7.54102L4.51512 7.37344L4.36785 7.21094V5.97695C4.37293 4.6668 4.38816 4.57031 4.62684 4.43828C4.7284 4.38242 5.7948 4.37227 10.3245 4.36719H15.9054L16.0475 4.50938ZM7.26238 8.75977C7.55691 8.91211 7.57215 9.01875 7.55691 10.3645L7.54168 11.5883L7.3741 11.7355L7.2116 11.8828H5.99285C5.16004 11.8828 4.73855 11.8625 4.64715 11.8219C4.38816 11.7051 4.36785 11.5883 4.36785 10.268C4.36785 9.10508 4.37293 9.04922 4.47449 8.91719C4.53543 8.84102 4.63191 8.75469 4.69285 8.73438C4.74871 8.70899 5.32254 8.68867 5.9573 8.68867C6.89676 8.68359 7.14559 8.69883 7.26238 8.75977ZM11.7362 8.87656L11.8835 9.03906V10.2578C11.8835 11.0906 11.8632 11.5121 11.8225 11.6035C11.7057 11.8625 11.5889 11.8828 10.2636 11.8828H9.03973L8.87723 11.7355L8.70965 11.5883L8.69441 10.3797C8.67918 9.0543 8.69441 8.94258 8.95848 8.78008C9.10574 8.68867 9.21238 8.68359 10.3499 8.69375L11.5889 8.70899L11.7362 8.87656ZM15.9155 8.75977C16.205 8.89688 16.2253 8.96289 16.2405 10.1004C16.2659 11.3496 16.2405 11.5477 16.0475 11.7406L15.9054 11.8828H14.6257H13.346L13.2038 11.7406C13.0108 11.5477 12.9854 11.3496 13.0108 10.1004C13.0261 8.96797 13.0464 8.90195 13.3307 8.75977C13.5542 8.65313 15.6819 8.64805 15.9155 8.75977ZM7.30301 13.1016C7.54168 13.259 7.56707 13.4164 7.56707 14.625C7.56707 15.5238 7.55184 15.7828 7.4909 15.9148C7.34871 16.2094 7.28777 16.2246 6.1452 16.2398C4.8909 16.2602 4.70301 16.2398 4.51004 16.0469L4.36785 15.9047V14.6352C4.36785 13.4316 4.37293 13.3605 4.47449 13.2336C4.53035 13.1625 4.65223 13.0813 4.73855 13.0559C4.82996 13.0254 5.41394 13.0102 6.04363 13.0152C6.9577 13.0254 7.20652 13.0406 7.30301 13.1016ZM11.4874 13.0508C11.5889 13.0813 11.721 13.1625 11.7819 13.2387C11.8784 13.3605 11.8835 13.4367 11.8835 14.6352V15.9047L11.7413 16.0469C11.5483 16.2398 11.3604 16.2602 10.1061 16.2398C8.96355 16.2246 8.90262 16.2094 8.76043 15.9148C8.69949 15.7828 8.68426 15.5238 8.68426 14.625C8.68426 13.2691 8.70965 13.1727 9.14129 13.0355C9.28856 12.9848 11.3046 13 11.4874 13.0508ZM14.1788 13.0508C14.6917 13.193 14.712 13.8531 14.2143 14.0258L14.0671 14.0766V14.9043C14.0671 15.3613 14.0468 15.793 14.0214 15.859C13.8843 16.2195 13.4679 16.316 13.2038 16.057C13.0108 15.8641 12.9905 15.6762 13.0108 14.4371C13.0261 13.4926 13.0362 13.4012 13.1327 13.2691C13.3104 13.0305 13.7573 12.934 14.1788 13.0508ZM7.3741 17.5145L7.54168 17.6617L7.55691 18.8855C7.57723 20.6629 7.66355 20.5766 5.88621 20.5563L4.66238 20.541L4.51512 20.3734L4.36785 20.2109V18.977C4.37293 18.0527 4.38816 17.7176 4.43895 17.6262C4.57098 17.3875 4.66746 17.3723 5.97762 17.3672H7.2116L7.3741 17.5145ZM11.6245 17.4383C11.8632 17.5652 11.8835 17.682 11.8835 18.9922V20.2109L11.7362 20.3734L11.5889 20.541L10.3651 20.5563C8.58777 20.5766 8.6741 20.6629 8.69441 18.8855L8.70965 17.6617L8.87723 17.5145L9.03973 17.3672H10.2636C11.2182 17.3672 11.5128 17.3824 11.6245 17.4383ZM13.8741 17.5145L14.0417 17.6617L14.0569 18.8855C14.0721 20.2363 14.0569 20.3379 13.7573 20.4902C13.4577 20.6477 13.0921 20.4344 13.0311 20.0688C12.9804 19.759 12.9956 17.9664 13.0514 17.7633C13.1632 17.3672 13.5745 17.2453 13.8741 17.5145Z" fill="#C80018"/>
<path d="M5.38281 5.94141V6.5H10.2832H15.1836V5.94141V5.38281H10.2832H5.38281V5.94141Z" fill="#C80018"/>
<path d="M5.38281 10.3086V10.8672H5.94141H6.5V10.3086V9.75H5.94141H5.38281V10.3086Z" fill="#C80018"/>
<path d="M9.75 10.3086V10.8672H10.3086H10.8672V10.3086V9.75H10.3086H9.75V10.3086Z" fill="#C80018"/>
<path d="M14.0664 10.3086V10.8672H14.625H15.1836V10.3086V9.75H14.625H14.0664V10.3086Z" fill="#C80018"/>
<path d="M5.38281 14.625V15.1836H5.94141H6.5V14.625V14.0664H5.94141H5.38281V14.625Z" fill="#C80018"/>
<path d="M9.75 14.625V15.1836H10.3086H10.8672V14.625V14.0664H10.3086H9.75V14.625Z" fill="#C80018"/>
<path d="M5.38281 18.9414V19.5H5.94141H6.5V18.9414V18.3828H5.94141H5.38281V18.9414Z" fill="#C80018"/>
<path d="M9.75 18.9414V19.5H10.3086H10.8672V18.9414V18.3828H10.3086H9.75V18.9414Z" fill="#C80018"/>
<path d="M18.815 14.1472C17.6115 14.33 16.667 14.7668 16.3725 15.2644C16.2303 15.5031 16.21 15.8687 16.3217 16.0921C16.5045 16.4375 17.0174 16.7777 17.6979 17.0062C20.3182 17.8796 24.1115 16.9961 23.8475 15.5742C23.7205 14.8937 22.6135 14.3097 21.1002 14.1218C20.4908 14.0457 19.3787 14.0609 18.815 14.1472Z" fill="#C80018"/>
<path d="M16.25 17.8132C16.25 18.123 16.2703 18.189 16.4023 18.3769C16.7324 18.8289 17.5855 19.2199 18.6266 19.3976C19.2715 19.5093 20.5816 19.5347 21.2012 19.4484C22.5012 19.2605 23.5117 18.773 23.7707 18.2043C23.8672 17.991 23.9027 17.4679 23.8164 17.4679C23.791 17.4679 23.659 17.5339 23.527 17.6101C23.0496 17.8894 22.4301 18.1027 21.6074 18.2652C20.9422 18.3972 19.1648 18.3921 18.459 18.2601C17.7887 18.1382 17.1234 17.9148 16.6664 17.666C16.4582 17.5593 16.2855 17.4679 16.2703 17.4679C16.2602 17.4679 16.25 17.6254 16.25 17.8132Z" fill="#C80018"/>
<path d="M16.25 19.9515C16.25 20.2054 16.2754 20.3222 16.3719 20.4847C16.6766 21.0027 17.616 21.4242 18.9008 21.6121C19.5813 21.7136 20.9625 21.6832 21.582 21.5562C22.7145 21.3277 23.5473 20.8808 23.7707 20.3933C23.852 20.2105 23.9078 19.6011 23.8418 19.6011C23.8316 19.6011 23.7098 19.6722 23.5777 19.7535C23.1207 20.048 22.2422 20.3273 21.3535 20.4695C20.7492 20.566 19.1801 20.5558 18.5859 20.4492C17.7988 20.307 17.3469 20.1648 16.7832 19.8855L16.25 19.6214V19.9515Z" fill="#C80018"/>
<path d="M16.25 22.1199C16.25 22.5058 16.3211 22.6632 16.5953 22.9121C17.1793 23.4402 18.2457 23.7652 19.6523 23.8464C21.5211 23.9531 23.4559 23.3335 23.7961 22.521C23.8672 22.3382 23.8977 21.7644 23.8316 21.7949C23.8062 21.805 23.5727 21.9167 23.3086 22.0488C22.3895 22.5058 21.384 22.7039 20.0332 22.7039C18.6723 22.7039 17.6617 22.5007 16.7477 22.0437L16.25 21.7949V22.1199Z" fill="#C80018"/>
</svg>
