<svg width="24" height="24" viewBox="0 0 24 24" fill="none" xmlns="http://www.w3.org/2000/svg">
<path d="M11.1094 0.0281248C10.0359 0.224999 9.50625 0.393749 8.775 0.773437C6.75 1.82812 5.33906 3.82031 5.01562 6.07031C4.99219 6.2625 4.96875 7.68281 4.96875 9.45C4.96875 12.3187 4.97344 12.5203 5.05781 12.8578C5.10938 13.0547 5.20781 13.3312 5.27344 13.4719C5.44688 13.8375 5.76094 14.2969 5.83594 14.2969C5.87344 14.2969 6.64688 14.0297 7.56094 13.7062L9.22031 13.1156L9.24844 12.8062C9.28125 12.4969 9.27656 12.4922 9.12656 12.375C8.15625 11.6297 7.42969 10.4391 7.19531 9.21094C7.10156 8.72344 7.05938 7.37344 7.12031 6.89531C7.19063 6.36094 7.37344 5.98125 7.72969 5.62031C8.1375 5.2125 8.46563 5.07187 9.20625 4.99219C9.69375 4.93594 9.85313 4.89844 10.1156 4.77656C10.7766 4.45781 11.2125 3.83437 11.3016 3.06562C11.325 2.84531 11.3766 2.60156 11.4188 2.52656C11.5688 2.23125 12.0328 2.10937 12.3375 2.28281C12.5578 2.41406 12.6469 2.61094 12.6984 3.06094C12.7969 3.90937 13.3078 4.57969 14.0625 4.85625C14.1797 4.89844 14.5219 4.95937 14.8266 4.99219C15.5297 5.07187 15.8672 5.22187 16.2703 5.62031C16.8234 6.17812 16.9547 6.70312 16.9031 8.18906C16.8656 9.39844 16.7391 9.94687 16.3219 10.7531C15.9844 11.3953 15.3938 12.0797 14.8266 12.4734C14.7375 12.5344 14.7281 12.5719 14.7516 12.8297L14.7797 13.1156L16.4484 13.7062C17.3672 14.0344 18.1406 14.2969 18.1734 14.2969C18.2391 14.2969 18.5625 13.8141 18.7266 13.4719C18.7922 13.3312 18.8906 13.0547 18.9422 12.8578C19.0266 12.5203 19.0313 12.3187 19.0313 9.45C19.0313 7.68281 19.0078 6.2625 18.9844 6.07031C18.7641 4.5375 18.0422 3.11719 16.9266 2.01562C15.9609 1.06406 14.7938 0.43125 13.4766 0.131249C13.1484 0.0609369 12.8484 0.0328121 12.1406 0.0234365C11.6391 0.0140619 11.175 0.0187492 11.1094 0.0281248Z" fill="#C80018"/>
<path d="M11.8172 5.14199C11.4656 5.56855 10.7438 6.0373 10.1719 6.20606C10.0313 6.24824 9.69375 6.30449 9.42188 6.33262C8.88281 6.38887 8.71406 6.45918 8.57344 6.68418C8.49375 6.81543 8.48438 6.92324 8.48438 7.83731C8.48438 8.69512 8.49844 8.90137 8.57812 9.21543C8.92031 10.5514 9.90938 11.592 11.1375 11.9061C11.6297 12.0326 12.3703 12.0326 12.8719 11.9061C13.5188 11.742 13.9781 11.4795 14.4891 10.9686C14.8828 10.5795 14.9672 10.4623 15.1547 10.0779C15.4828 9.39355 15.5156 9.19199 15.5156 7.92637C15.5156 6.92793 15.5063 6.82012 15.4266 6.68418C15.2859 6.45918 15.1172 6.38887 14.5781 6.33262C13.6125 6.23418 12.9422 5.92012 12.3 5.26387C12.1406 5.0998 12 4.96855 11.9859 4.96855C11.9719 4.96855 11.8969 5.04824 11.8172 5.14199Z" fill="#C80018"/>
<path d="M10.5938 13.6078V14.0578L10.3594 14.1422C10.2328 14.1891 10.125 14.2406 10.125 14.2594C10.125 14.3156 11.9625 17.0625 12 17.0625C12.0375 17.0625 13.875 14.3156 13.875 14.2594C13.875 14.2406 13.7719 14.1891 13.6406 14.1422L13.4063 14.0578V13.6078C13.4063 13.1672 13.4063 13.1625 13.3031 13.1859C13.2422 13.1953 13.0359 13.2422 12.8438 13.2844C12.3891 13.3875 11.6109 13.3875 11.1562 13.2844C10.9641 13.2422 10.7578 13.1953 10.7016 13.1859C10.5938 13.1625 10.5938 13.1672 10.5938 13.6078Z" fill="#C80018"/>
<path d="M8.59235 14.7656L8.48453 14.8078V16.2984L8.48922 17.7891L8.73297 17.9016C9.07516 18.0609 9.46422 18.4688 9.6611 18.8672C9.81578 19.1812 9.82047 19.2141 9.82047 19.7344C9.82047 20.2453 9.8111 20.2922 9.67047 20.5922C9.46891 21.0187 9.06578 21.4219 8.63922 21.6234C8.33922 21.7641 8.29235 21.7734 7.78141 21.7734C7.27047 21.7734 7.2236 21.7641 6.9236 21.6234C6.49703 21.4219 6.09391 21.0187 5.89235 20.5922C5.75172 20.2922 5.74235 20.2453 5.74235 19.7344C5.74235 19.2234 5.75172 19.1766 5.89235 18.8766C6.07516 18.4875 6.48297 18.0656 6.82985 17.9016L7.0736 17.7891L7.07828 16.5562C7.07828 15.8812 7.06891 15.3281 7.05485 15.3281C6.9611 15.3281 4.47203 16.2516 4.25172 16.3687C3.72203 16.6547 3.22985 17.2406 2.9861 17.8875C2.88297 18.1594 2.88297 18.2016 2.86891 20.8359C2.85016 23.8078 2.84078 23.7094 3.16422 23.9062C3.31422 24 3.43141 24 12.0048 24C20.4377 24 20.7002 23.9953 20.8314 23.9109C20.9017 23.8641 21.0048 23.7609 21.0517 23.6906C21.1361 23.5594 21.1408 23.4234 21.1408 20.9531C21.1408 18.1641 21.1361 18.1406 20.8923 17.6156C20.6392 17.0719 20.147 16.5703 19.5939 16.2891C19.4158 16.2 17.0158 15.3281 16.9455 15.3281C16.9314 15.3281 16.922 15.8812 16.922 16.5562L16.9267 17.7891L17.1705 17.9016C17.5033 18.0609 17.9017 18.4688 18.0845 18.8438C18.2767 19.2328 18.3423 19.7578 18.3189 20.6484C18.3048 21.1969 18.2861 21.3281 18.2111 21.4594C17.9439 21.9094 17.3252 21.9141 17.0486 21.4688C16.9548 21.3187 16.9455 21.225 16.922 20.3672C16.8986 19.35 16.8845 19.2984 16.608 19.1203C16.4298 19.0031 16.008 19.0031 15.8298 19.1203C15.5533 19.2984 15.5392 19.35 15.5158 20.3672C15.4923 21.225 15.483 21.3187 15.3892 21.4688C15.1127 21.9141 14.4939 21.9094 14.2267 21.4594C14.1517 21.3281 14.133 21.1969 14.1189 20.6484C14.0955 19.7812 14.1611 19.2422 14.3439 18.8578C14.5127 18.4875 14.9298 18.0609 15.2673 17.9016L15.5111 17.7891L15.5158 16.2984V14.8125L15.3939 14.7656C15.3283 14.7375 15.2627 14.7188 15.2439 14.7188C15.2252 14.7188 14.6017 15.6422 13.8517 16.7672C12.9423 18.1312 12.4455 18.8391 12.3517 18.9C12.272 18.9469 12.122 18.9844 12.0002 18.9844C11.8783 18.9844 11.7283 18.9469 11.6486 18.9C11.5548 18.8391 11.058 18.1312 10.1486 16.7672C9.40328 15.6422 8.77047 14.7234 8.74235 14.7234C8.71891 14.7234 8.6486 14.7422 8.59235 14.7656Z" fill="#C80018"/>
<path d="M7.3875 19.1203C7.17187 19.2656 7.07812 19.4437 7.07812 19.7344C7.07812 20.025 7.17187 20.2031 7.3875 20.3484C7.48125 20.4094 7.60781 20.4375 7.78125 20.4375C8.07187 20.4375 8.25 20.3438 8.39531 20.1281C8.51719 19.9453 8.51719 19.5234 8.39531 19.3406C8.25 19.125 8.07187 19.0312 7.78125 19.0312C7.60781 19.0312 7.48125 19.0594 7.3875 19.1203Z" fill="#C80018"/>
</svg>
