<svg width="23" height="22" viewBox="0 0 23 22" fill="none" xmlns="http://www.w3.org/2000/svg">
<g clip-path="url(#clip0_3_8043)">
<g clip-path="url(#clip1_3_8043)">
<path d="M22.7998 11C22.7998 4.92487 17.8749 0 11.7998 0C5.72467 0 0.799805 4.92487 0.799805 11C0.799805 17.0751 5.72467 22 11.7998 22C17.8749 22 22.7998 17.0751 22.7998 11Z" fill="#249EDA"/>
<mask id="mask0_3_8043" style="mask-type:luminance" maskUnits="userSpaceOnUse" x="4" y="4" width="15" height="13">
<path d="M18.7066 4.60449H4.89258V16.8836H18.7066V4.60449Z" fill="white"/>
</mask>
<g mask="url(#mask0_3_8043)">
<path fill-rule="evenodd" clip-rule="evenodd" d="M10.6762 12.7242C10.8152 11.6925 18.1831 6.06323 16.4491 7.00144L11.7664 9.77124C8.99701 11.4907 9.19822 11.2178 9.78355 13.2625C9.83843 13.4606 10.0689 14.5558 10.2518 14.7801C10.5774 15.18 10.6725 12.7504 10.6762 12.7242ZM8.08242 11.6103C8.34582 11.7187 8.29094 11.6813 8.37875 11.9953C8.5763 12.6868 8.78482 13.326 8.98603 14.0138C9.6738 16.3425 9.586 16.3575 10.5628 15.5463C12.1725 14.2082 12.0261 14.0773 12.948 14.7427L15.615 16.7313C16.3722 17.3181 16.4125 16.1332 16.5442 15.4977L18.6843 5.08015C18.7319 4.87831 18.7026 4.75122 18.6294 4.68393C18.4758 4.53816 18.1209 4.6316 17.8356 4.74748L6.47274 9.22177C3.06681 10.53 5.9057 10.7319 8.08242 11.6103Z" fill="white"/>
</g>
</g>
</g>
<defs>
<clipPath id="clip0_3_8043">
<rect width="22" height="22" fill="white" transform="translate(0.799805)"/>
</clipPath>
<clipPath id="clip1_3_8043">
<rect width="22" height="22" fill="white" transform="translate(0.799805)"/>
</clipPath>
</defs>
</svg>
