<svg width="24" height="24" viewBox="0 0 24 24" fill="none" xmlns="http://www.w3.org/2000/svg">
<path d="M12.0007 0C5.38328 0 0 5.38328 0 12.0007C0 18.6167 5.38328 24 12.0007 24C18.6167 24 24 18.6167 24 12.0007C24 5.38328 18.6167 0 12.0007 0ZM12.0007 21.3773C6.82897 21.3773 2.62268 17.171 2.62268 12.0014C2.62268 6.8304 6.82897 2.62268 12.0007 2.62268C17.171 2.62268 21.3766 6.82968 21.3766 12.0007C21.3773 17.171 17.171 21.3773 12.0007 21.3773Z" fill="#0A5555"/>
<path d="M13.0399 12.0147V6.98517C13.0399 6.42276 12.584 5.96826 12.023 5.96826C11.462 5.96826 11.0054 6.42276 11.0054 6.98517V12.3384C11.0054 12.3549 11.0089 12.3706 11.0104 12.3856C10.9961 12.6622 11.0926 12.943 11.3041 13.1538L15.0894 16.9399C15.4868 17.3372 16.1307 17.3372 16.5266 16.9399C16.9239 16.5426 16.9246 15.8987 16.5266 15.5014L13.0399 12.0147Z" fill="#0A5555"/>
</svg>
