<svg xmlns="http://www.w3.org/2000/svg" fill="none" viewBox="0 0 27 27"><path fill="#4995EC" d="M22.9 4.08a13.05 13.05 0 0 0-22.32 9.2c.01 2.28.65 4.56 1.75 6.48L.5 26.5l6.95-1.82c1.92 1 4.03 1.55 6.22 1.55 7.23 0 13.08-5.84 13.08-13.04a13.29 13.29 0 0 0-3.84-9.11Zm-2.92 13.85c-.27.73-1.55 1.46-2.2 1.55-.54.1-1.27.1-2-.09-.46-.18-1.1-.36-1.83-.73-3.3-1.37-5.4-4.65-5.58-4.92a5.87 5.87 0 0 1-1.38-3.37C7 8.73 7.82 8 8.1 7.63c.28-.36.64-.36.92-.36h.64c.18 0 .45-.1.73.55.27.63.91 2.27 1 2.36.1.19.1.37 0 .55-.09.18-.18.37-.36.55-.18.18-.37.45-.46.55-.18.18-.36.36-.18.63.18.37.82 1.37 1.83 2.28 1.28 1.1 2.28 1.46 2.65 1.64.37.19.55.1.73-.09a7.8 7.8 0 0 0 1-1.27c.2-.37.46-.28.74-.19.27.1 1.92.91 2.2 1.1.36.18.54.27.63.36.1.28.1.91-.18 1.64Z"/></svg>