<svg width="27" height="26" viewBox="0 0 27 26" fill="none" xmlns="http://www.w3.org/2000/svg">
<path d="M6.26119 0.119799C5.7648 0.229722 5.32482 0.495853 4.81714 0.993402L4.33203 1.47359L7.4232 4.64402C9.12109 6.38545 10.5426 7.81445 10.5764 7.81445C10.6103 7.81445 10.8359 7.60618 11.0784 7.34583C11.7892 6.58215 12.0543 5.80111 11.902 4.92173C11.761 4.12912 11.6313 3.94977 10.0123 2.27199C8.5006 0.709915 8.09446 0.362788 7.58678 0.200795C7.22577 0.0908713 6.58836 0.0503731 6.26119 0.119799Z" fill="#17706E"/>
<path d="M2.43564 3.43477C1.27363 4.6555 0.952104 5.34397 0.906977 6.69198C0.878773 7.63501 0.969026 8.03999 1.46542 9.22023C4.64684 16.7529 9.83639 22.0755 17.1807 25.3385C18.3315 25.8476 18.7263 25.9402 19.6458 25.9113C20.9714 25.865 21.637 25.5352 22.8385 24.3203L23.6 23.5566L20.4806 20.363L17.3612 17.1752L17.0566 17.4761C16.6449 17.8695 16.3121 18.0199 15.8439 18.0257C15.4095 18.0257 15.2177 17.9505 14.6819 17.586C12.7019 16.2264 10.3497 13.8139 9.02412 11.7832C8.66874 11.2336 8.59541 11.0369 8.59541 10.5914C8.60105 10.1112 8.74772 9.76984 9.13693 9.34751L9.43025 9.02931L6.38985 5.90516C4.72017 4.1811 3.30997 2.75209 3.2592 2.72316C3.18587 2.67688 3.02228 2.82151 2.43564 3.43477Z" fill="#17706E"/>
<path d="M20.4179 14.6421C19.9384 14.7462 19.4815 15.0182 19.0077 15.481C18.7539 15.7298 18.5508 15.9612 18.5508 15.9959C18.5508 16.0306 19.9441 17.4885 21.6419 19.23L24.7331 22.4004L25.2013 21.9028C25.9459 21.1102 26.211 20.3408 26.0587 19.444C25.9177 18.6514 25.788 18.4721 24.169 16.7943C22.6573 15.2322 22.2512 14.8851 21.7435 14.7231C21.3825 14.6132 20.7451 14.5727 20.4179 14.6421Z" fill="#17706E"/>
</svg>
