<svg width="16" height="18" viewBox="0 0 16 18" fill="none" xmlns="http://www.w3.org/2000/svg">
<g clip-path="url(#clip0_457_521)">
<path d="M8.31802 0.455558C8.18075 0.413178 7.94701 0.40162 7.79861 0.424736L7.52778 0.474821L4.48556 3.61094L1.44704 6.75091L1.36542 7.01289C1.2467 7.41358 1.32832 7.76803 1.62141 8.10321C1.98129 8.52316 2.38197 8.63104 2.86427 8.4461C3.06462 8.36905 3.22044 8.22265 4.95673 6.41957L6.8303 4.47395L6.83401 10.5035C6.83401 15.1498 6.85256 16.5869 6.92676 16.7795C7.22727 17.6079 8.21414 17.839 8.80403 17.2188C9.16761 16.8335 9.1639 16.9298 9.16761 10.4996V4.47395L11.0412 6.41957C12.7775 8.22265 12.9333 8.36905 13.1336 8.4461C13.6159 8.63104 14.0166 8.52316 14.3765 8.10321C14.6696 7.76803 14.7512 7.41357 14.6325 7.01289L14.5546 6.75476L11.5606 3.64561L8.56659 0.536465L8.31802 0.455558Z" fill="white"/>
</g>
<defs>
<clipPath id="clip0_457_521">
<rect width="15.6" height="18" fill="white" transform="translate(0.199219)"/>
</clipPath>
</defs>
</svg>
