<svg width="27" height="19" viewBox="0 0 27 19" fill="none" xmlns="http://www.w3.org/2000/svg">
<g clip-path="url(#clip0_3_7590)">
<g clip-path="url(#clip1_3_7590)">
<path d="M13.7997 6.08942C12.9089 6.08942 12.0545 6.44874 11.4246 7.08835C10.7947 7.72794 10.4408 8.59542 10.4408 9.49995C10.4408 10.4045 10.7947 11.272 11.4246 11.9116C12.0545 12.5511 12.9089 12.9105 13.7997 12.9105C14.6905 12.9105 15.5448 12.5511 16.1747 11.9116C16.8046 11.272 17.1586 10.4045 17.1586 9.49995C17.1586 8.59542 16.8046 7.72794 16.1747 7.08835C15.5448 6.44874 14.6905 6.08942 13.7997 6.08942ZM13.7997 15.1842C12.315 15.1842 10.8911 14.5853 9.84123 13.5193C8.79138 12.4533 8.20159 11.0075 8.20159 9.49995C8.20159 7.9924 8.79138 6.5466 9.84123 5.48061C10.8911 4.41461 12.315 3.81574 13.7997 3.81574C15.2844 3.81574 16.7083 4.41461 17.7582 5.48061C18.8079 6.5466 19.3978 7.9924 19.3978 9.49995C19.3978 11.0075 18.8079 12.4533 17.7582 13.5193C16.7083 14.5853 15.2844 15.1842 13.7997 15.1842ZM13.7997 0.973633C8.20159 0.973633 3.42083 4.50921 1.48389 9.49995C3.42083 14.4907 8.20159 18.0263 13.7997 18.0263C19.3978 18.0263 24.1786 14.4907 26.1155 9.49995C24.1786 4.50921 19.3978 0.973633 13.7997 0.973633Z" fill="black"/>
</g>
</g>
<defs>
<clipPath id="clip0_3_7590">
<rect width="26" height="18" fill="white" transform="translate(0.799805 0.5)"/>
</clipPath>
<clipPath id="clip1_3_7590">
<rect width="24.6316" height="18" fill="white" transform="translate(1.48389 0.5)"/>
</clipPath>
</defs>
</svg>
