<svg xmlns="http://www.w3.org/2000/svg" fill="none" viewBox="0 0 26 19"><path fill="#fff" fill-rule="evenodd" d="M10.56 1.04C11.75.34 12.35 0 13 0c.65 0 1.25.35 2.44 1.04l3.58 2.1c.85.5 1.4.81 1.77 1.16l3.78-2.65c.4-.29.97-.2 1.26.2.3.4.2.96-.21 1.25l-4.18 2.93c.03.37.03.82.03 1.38v4.18c0 1.4 0 2.09-.33 2.66-.33.57-.93.92-2.12 1.62l-3.58 2.09C14.25 18.66 13.65 19 13 19c-.65 0-1.25-.35-2.44-1.04l-3.58-2.1c-.77-.44-1.3-.75-1.65-1.06L1.4 17.37a.92.92 0 0 1-1.26-.25.88.88 0 0 1 .25-1.24l4.17-2.72c-.04-.41-.04-.91-.04-1.57V7.4c0-.66 0-1.16.04-1.57L.4 3.12a.88.88 0 0 1-.25-1.24.92.92 0 0 1 1.26-.25L5.33 4.2c.36-.31.88-.62 1.65-1.07l3.58-2.09Zm8.06 10.97c.25.43.11.97-.32 1.22l-4.84 2.83a.92.92 0 0 1-1.24-.3.88.88 0 0 1 .32-1.23l4.83-2.83a.92.92 0 0 1 1.25.31Z" clip-rule="evenodd"/></svg>