<svg width="33" height="32" viewBox="0 0 33 32" fill="none" xmlns="http://www.w3.org/2000/svg">
<path d="M27.1095 4.77642C26.9283 4.82054 23.914 5.98414 20.4111 7.36282C16.9082 8.7415 11.1652 11.008 7.64583 12.3922C4.12645 13.7764 1.15063 14.9676 1.02435 15.0393C0.903559 15.111 0.711393 15.2709 0.601584 15.3922C0.42589 15.5908 0.398438 15.6514 0.398438 15.8941C0.398438 16.3683 0.67296 16.7433 1.21102 17.0191C1.30985 17.0742 2.78678 17.5871 4.49431 18.1606L7.59642 19.2084L15.5686 14.1239C19.9554 11.3224 23.656 8.98966 23.7933 8.929C24.1446 8.7801 24.3368 8.82973 24.3368 9.06687C24.3368 9.21576 24.2654 9.31503 23.8756 9.68451C23.623 9.93267 20.7076 12.5742 17.4024 15.5632C11.7966 20.6257 11.3958 21.0007 11.4782 21.0834C11.7966 21.3977 21.7673 28.9915 21.9485 29.0577C22.2504 29.1735 22.9367 29.1735 23.1948 29.0577C23.4748 28.9364 23.914 28.5117 24.0239 28.2636C24.1446 27.9823 28.5095 5.83525 28.5095 5.50437C28.5095 5.20106 28.3943 4.97495 28.1801 4.84812C27.966 4.72128 27.4938 4.68819 27.1095 4.77642Z" fill="#17706E"/>
</svg>
