<svg xmlns="http://www.w3.org/2000/svg" fill="none" viewBox="0 0 32 26"><path fill="#4995EC" fill-rule="evenodd" d="M12.73 0h6.37c6 0 9 0 10.87 1.86 1.86 1.87 1.86 4.87 1.86 10.87 0 6 0 9-1.86 10.87-1.87 1.87-4.87 1.87-10.87 1.87h-6.37c-6 0-9 0-10.87-1.87C0 21.74 0 18.74 0 12.73c0-6 0-9 1.86-10.87C3.73 0 6.73 0 12.73 0Zm5.18 7.96c0-.66.53-1.2 1.19-1.2h7.96a1.2 1.2 0 1 1 0 2.4H19.1a1.2 1.2 0 0 1-1.2-1.2Zm1.59 4.77c0-.66.53-1.19 1.2-1.19h6.36a1.2 1.2 0 1 1 0 2.39h-6.37a1.2 1.2 0 0 1-1.2-1.2Zm1.59 4.78c0-.66.53-1.2 1.2-1.2h4.77a1.2 1.2 0 1 1 0 2.4h-4.78a1.2 1.2 0 0 1-1.19-1.2Zm-6.77-9.55a3.18 3.18 0 1 1-6.36 0 3.18 3.18 0 0 1 6.36 0Zm-3.18 12.73c6.37 0 6.37-1.42 6.37-3.18 0-1.76-2.85-3.19-6.37-3.19-3.51 0-6.37 1.43-6.37 3.19s0 3.18 6.37 3.18Z" clip-rule="evenodd"/></svg>