<svg width="22" height="22" viewBox="0 0 22 22" fill="none" xmlns="http://www.w3.org/2000/svg">
<g clip-path="url(#clip0_3_8028)">
<g clip-path="url(#clip1_3_8028)">
<path d="M22 11C22 4.92487 17.0751 0 11 0C4.92487 0 0 4.92487 0 11C0 17.0751 4.92487 22 11 22C17.0751 22 22 17.0751 22 11Z" fill="#48A91F"/>
<mask id="mask0_3_8028" style="mask-type:luminance" maskUnits="userSpaceOnUse" x="4" y="4" width="14" height="14">
<path d="M17.9068 4.09277H4.09277V17.9068H17.9068V4.09277Z" fill="white"/>
</mask>
<g mask="url(#mask0_3_8028)">
<path d="M17.7575 10.6188C17.7575 10.6332 17.7575 10.6452 17.7575 10.6597C17.7575 10.6741 17.7575 10.6861 17.7575 10.7005C17.7575 10.7149 17.7575 10.7269 17.7575 10.7414C17.7575 10.7558 17.7575 10.7702 17.7575 10.7822C17.7575 11.6857 17.5724 12.5483 17.2385 13.3316C16.9045 14.1149 16.4215 14.8214 15.8256 15.4125C15.2297 16.006 14.5184 16.4842 13.7279 16.8157C12.9398 17.1473 12.0699 17.33 11.1593 17.33C10.8709 17.33 10.585 17.3107 10.3062 17.2747C10.0275 17.2386 9.75359 17.1858 9.48688 17.1161C9.22016 17.0464 8.95825 16.9599 8.70595 16.859C8.45366 16.7581 8.20856 16.6427 7.97068 16.513L7.0576 16.8037L6.14452 17.0945L5.23144 17.3852L4.31836 17.676L4.62112 16.7989L4.91907 15.9195L5.21702 15.04L5.51498 14.1606C5.3636 13.9131 5.23144 13.656 5.1137 13.3893C4.99596 13.1226 4.89744 12.8462 4.81575 12.5627C4.73405 12.2792 4.67398 11.9884 4.63073 11.6905C4.58988 11.3925 4.56826 11.0874 4.56826 10.7798C4.56826 10.7558 4.56826 10.7317 4.56826 10.7077C4.56826 10.6837 4.56826 10.6597 4.57066 10.6356C4.57066 10.6116 4.57306 10.5876 4.57306 10.5635C4.57306 10.5395 4.57546 10.5155 4.57546 10.4915C4.61391 9.62163 4.82296 8.79505 5.17137 8.04536C5.51978 7.29568 6.00516 6.62288 6.59866 6.05821C7.19216 5.49354 7.88899 5.037 8.6627 4.72223C9.43642 4.40746 10.2774 4.23926 11.1641 4.23926C12.0603 4.23926 12.9157 4.41707 13.6967 4.73905C14.4752 5.06103 15.1792 5.52718 15.7751 6.10386C16.3686 6.68055 16.854 7.36776 17.1976 8.13187C17.5364 8.89357 17.7358 9.73456 17.7575 10.6188ZM11.1641 16.2895C11.9282 16.2895 12.6586 16.1357 13.3218 15.857C13.985 15.5783 14.5833 15.1746 15.0855 14.6772C15.5877 14.1798 15.9938 13.5863 16.2749 12.9279C16.556 12.2696 16.7122 11.5463 16.7122 10.787C16.7122 10.751 16.7122 10.7149 16.7098 10.6789C16.7098 10.6428 16.7074 10.6068 16.705 10.5708C16.7026 10.5347 16.7002 10.4987 16.7002 10.4626C16.6978 10.4266 16.6954 10.3905 16.693 10.3569C16.6377 9.64806 16.4455 8.97767 16.1452 8.36734C15.8448 7.75942 15.4339 7.21398 14.9389 6.75504C14.4439 6.2985 13.8649 5.92846 13.2281 5.67616C12.5914 5.42386 11.8945 5.28209 11.1665 5.28209C10.448 5.28209 9.7584 5.41905 9.12885 5.66655C8.49691 5.91404 7.92263 6.27447 7.43004 6.7214C6.93746 7.16832 6.52417 7.70416 6.21901 8.30006C5.91385 8.89597 5.71441 9.55675 5.64713 10.2512C5.64233 10.2944 5.63992 10.3401 5.63512 10.3833C5.63272 10.4266 5.62791 10.4722 5.62791 10.5155C5.62551 10.5587 5.6231 10.6044 5.6231 10.65C5.6231 10.6957 5.6207 10.739 5.6207 10.7846C5.6207 11.085 5.64473 11.3805 5.69279 11.6689C5.74084 11.9572 5.81053 12.2383 5.89943 12.5098C5.99074 12.7814 6.10127 13.0433 6.23102 13.2956C6.36078 13.5455 6.50975 13.7858 6.67555 14.014L6.50255 14.5258L6.32714 15.0328L6.15413 15.5446L5.98113 16.0564L6.51456 15.8858L7.04799 15.7152L7.58142 15.5446L8.11485 15.374C8.33351 15.5182 8.56419 15.648 8.80207 15.7585C9.04235 15.8714 9.28984 15.9675 9.54695 16.0444C9.80405 16.1213 10.066 16.1814 10.3375 16.2222C10.6066 16.2679 10.8829 16.2895 11.1641 16.2895Z" fill="white"/>
<path d="M4.09277 17.9067L5.35427 14.1823C5.2149 13.9468 5.08755 13.7017 4.97942 13.4543C4.85928 13.1803 4.75836 12.8968 4.67666 12.6109C4.59257 12.3201 4.53009 12.0198 4.48924 11.7194C4.44599 11.4118 4.42437 11.0995 4.42437 10.7871C4.42437 10.7631 4.42437 10.7366 4.42437 10.7126C4.42437 10.6886 4.42437 10.6621 4.42677 10.6381C4.42677 10.6141 4.42917 10.5901 4.42917 10.5636C4.42917 10.5396 4.43157 10.5156 4.43157 10.4915C4.47002 9.62172 4.67426 8.77832 5.03949 7.99019C5.39031 7.22368 5.88289 6.54127 6.49562 5.95498C7.11075 5.36868 7.81959 4.90974 8.60532 4.59016C9.41748 4.26097 10.2777 4.09277 11.1643 4.09277C12.0606 4.09277 12.9304 4.26338 13.7522 4.60218C14.5451 4.92896 15.2588 5.39752 15.8763 5.99583C16.4915 6.59413 16.9816 7.29096 17.33 8.06948C17.6905 8.87443 17.8851 9.72985 17.9067 10.6141L17.9091 10.6982C17.9091 10.7126 17.9091 10.727 17.9091 10.7414C17.9091 10.7559 17.9091 10.7703 17.9091 10.7847C17.9091 11.6882 17.7313 12.5652 17.3781 13.3918C17.0393 14.1895 16.5515 14.9056 15.934 15.5183C15.3141 16.1334 14.5932 16.6164 13.7907 16.9528C12.9593 17.3012 12.075 17.479 11.1667 17.479C10.876 17.479 10.5829 17.4598 10.2945 17.4238C10.0134 17.3877 9.72985 17.3324 9.45592 17.2604C9.1868 17.1907 8.91769 17.1018 8.65818 16.9985C8.4227 16.9047 8.18722 16.7942 7.96135 16.6741L4.09277 17.9067ZM11.1643 4.38592C10.3161 4.38592 9.49196 4.54691 8.71585 4.86409C7.96616 5.16925 7.28615 5.60897 6.69746 6.16883C6.11116 6.72869 5.64021 7.38227 5.3014 8.11273C4.95299 8.86723 4.75596 9.66978 4.71992 10.5036C4.71992 10.5276 4.71751 10.5516 4.71751 10.5756C4.71751 10.5997 4.71511 10.6237 4.71511 10.6453C4.71511 10.6694 4.71511 10.6934 4.71271 10.715C4.71271 10.739 4.71271 10.7607 4.71271 10.7847C4.71271 11.0826 4.73433 11.383 4.77518 11.6762C4.81603 11.9645 4.8761 12.2504 4.95539 12.5292C5.03229 12.8031 5.1308 13.0746 5.24614 13.3365C5.35907 13.5936 5.49123 13.8483 5.6378 14.0886L5.67385 14.1463L4.55412 17.4526L7.99019 16.3593L8.04545 16.3905C8.27613 16.5179 8.51881 16.6308 8.7639 16.7293C9.0114 16.8278 9.2685 16.9119 9.52801 16.9792C9.78992 17.0465 10.0614 17.0994 10.3306 17.1354C10.6045 17.1715 10.8856 17.1883 11.1643 17.1883C12.0366 17.1883 12.88 17.0201 13.6753 16.6861C14.4442 16.3641 15.1338 15.9028 15.7249 15.3141C16.3184 14.7254 16.7822 14.0405 17.1066 13.2788C17.443 12.4907 17.6136 11.6521 17.6136 10.7871C17.6136 10.7751 17.6136 10.7607 17.6136 10.7487C17.6136 10.7342 17.6136 10.7222 17.6136 10.7078L17.6112 10.6261C17.5896 9.78031 17.4045 8.96094 17.0609 8.19203C16.7269 7.44714 16.2608 6.78156 15.6721 6.20968C15.081 5.6378 14.3986 5.18847 13.6417 4.8761C12.8559 4.54931 12.0222 4.38592 11.1643 4.38592ZM11.1643 16.4338C10.8808 16.4338 10.5949 16.4122 10.3137 16.3713C10.0398 16.3305 9.76589 16.268 9.50158 16.1887C9.24207 16.1094 8.98496 16.0109 8.73747 15.8955C8.51401 15.7898 8.29775 15.6721 8.09111 15.5375L5.74833 16.2824L6.51004 14.0357C6.35625 13.8219 6.21929 13.5936 6.09675 13.3605C5.96219 13.101 5.84685 12.8295 5.75554 12.5556C5.66183 12.2745 5.58975 11.9837 5.54169 11.693C5.49363 11.395 5.4672 11.0899 5.4672 10.7847C5.4672 10.739 5.4672 10.6934 5.4696 10.6453C5.4696 10.5997 5.47201 10.554 5.47441 10.5084C5.47681 10.4627 5.47921 10.4171 5.48402 10.3714C5.48642 10.3258 5.49123 10.2801 5.49603 10.2368C5.56331 9.53522 5.76275 8.86002 6.08233 8.23287C6.3947 7.62255 6.81279 7.07711 7.3246 6.61336C7.83881 6.14721 8.4251 5.78197 9.06906 5.52967C9.73465 5.26776 10.4387 5.13561 11.1619 5.13561C11.8924 5.13561 12.6036 5.27257 13.2788 5.53929C13.93 5.79879 14.5211 6.17123 15.0353 6.647C15.5495 7.12036 15.9652 7.67782 16.2752 8.30015C16.5924 8.94171 16.7822 9.62893 16.8375 10.3426C16.8399 10.3786 16.8423 10.4147 16.8447 10.4507C16.8471 10.4867 16.8495 10.5228 16.8519 10.5612C16.8543 10.5973 16.8543 10.6357 16.8567 10.6718C16.8567 10.7078 16.8591 10.7462 16.8591 10.7823C16.8591 11.544 16.7077 12.2841 16.4098 12.9809C16.1214 13.6537 15.7105 14.2568 15.1891 14.7782C14.6653 15.2972 14.0574 15.7057 13.3798 15.9893C12.6757 16.2848 11.9309 16.4338 11.1643 16.4338ZM8.13436 15.2179L8.19203 15.2564C8.40588 15.3958 8.63175 15.5231 8.86242 15.6312C9.0955 15.7418 9.34059 15.8355 9.58568 15.91C9.83557 15.9869 10.0951 16.0445 10.3546 16.083C10.6189 16.1238 10.8904 16.143 11.1619 16.143C11.89 16.143 12.5964 16.0013 13.262 15.7201C13.906 15.4486 14.4827 15.0618 14.9801 14.5692C15.4775 14.0766 15.8667 13.5023 16.1382 12.8656C16.4194 12.2048 16.5635 11.5031 16.5635 10.7823C16.5635 10.7487 16.5635 10.7126 16.5611 10.679C16.5611 10.6429 16.5587 10.6093 16.5563 10.5732C16.5539 10.5372 16.5539 10.5036 16.5515 10.4675C16.5491 10.4315 16.5467 10.3978 16.5443 10.3618C16.4915 9.68659 16.3112 9.03542 16.0109 8.4275C15.7177 7.83641 15.3237 7.30778 14.8359 6.85845C14.3457 6.40671 13.7858 6.05349 13.1683 5.806C12.5292 5.5513 11.854 5.42155 11.1619 5.42155C10.4771 5.42155 9.80914 5.54649 9.17719 5.79639C8.56687 6.03667 8.00941 6.38268 7.52404 6.82481C7.03866 7.26453 6.64219 7.78114 6.34664 8.36023C6.04148 8.95613 5.85406 9.59529 5.78918 10.2609C5.78438 10.3041 5.78197 10.3474 5.77717 10.3906C5.77476 10.4339 5.77236 10.4771 5.76996 10.5204C5.76756 10.5636 5.76515 10.6069 5.76515 10.6501C5.76515 10.6934 5.76275 10.7366 5.76275 10.7799C5.76275 11.0682 5.78678 11.359 5.83243 11.6401C5.87809 11.9164 5.94537 12.1928 6.03427 12.4571C6.12077 12.719 6.2313 12.9761 6.35625 13.2212C6.4812 13.4639 6.62777 13.6993 6.78876 13.9204L6.83442 13.9829L6.20968 15.8259L8.13436 15.2179Z" fill="white"/>
<path d="M13.997 12.1066C14.0379 12.1258 14.0739 12.1451 14.1076 12.1595C14.1412 12.1763 14.17 12.1907 14.1965 12.2051C14.2229 12.2195 14.2445 12.234 14.2637 12.2484C14.283 12.2628 14.2974 12.2772 14.307 12.294C14.3166 12.3109 14.3238 12.3445 14.3286 12.3901C14.331 12.4358 14.331 12.4935 14.3262 12.5608C14.3214 12.628 14.3094 12.7049 14.2902 12.789C14.2709 12.8731 14.2469 12.9644 14.2133 13.0581C14.1796 13.1519 14.1124 13.2456 14.0283 13.3321C13.9418 13.4186 13.8384 13.5003 13.7279 13.5699C13.6174 13.6396 13.5044 13.6997 13.3987 13.743C13.293 13.7862 13.1969 13.815 13.1224 13.8198C13.0479 13.8271 12.9926 13.8463 12.9254 13.8583C12.8581 13.8727 12.7788 13.8823 12.6586 13.8703C12.5385 13.8583 12.3751 13.8271 12.1372 13.755C11.9017 13.6853 11.5918 13.5772 11.1809 13.4162C10.77 13.2552 10.3976 13.0293 10.066 12.7818C9.73678 12.5319 9.45084 12.2604 9.21296 12.0033C8.97508 11.7462 8.78766 11.5083 8.6531 11.3257C8.51854 11.1431 8.43924 11.0205 8.41762 10.9917C8.4032 10.9701 8.36956 10.9268 8.32391 10.8619C8.28066 10.7971 8.22539 10.7154 8.16772 10.6168C8.11005 10.5183 8.04758 10.4054 7.99231 10.2805C7.93465 10.1555 7.88178 10.0209 7.84094 9.87917C7.82892 9.83592 7.81691 9.79026 7.8073 9.74701C7.79768 9.70136 7.78807 9.6557 7.78086 9.61005C7.77366 9.56439 7.76885 9.51874 7.76404 9.47309C7.75924 9.42743 7.75684 9.37937 7.75684 9.33372C7.75684 9.13669 7.78327 8.96368 7.82412 8.81471C7.86496 8.66573 7.92263 8.53838 7.98511 8.43025C8.04758 8.32212 8.11246 8.23322 8.17253 8.16354C8.2326 8.09385 8.28546 8.03859 8.32391 7.99774C8.35995 7.95689 8.4008 7.92565 8.43924 7.89922C8.47769 7.87279 8.51613 7.85357 8.55458 7.83675C8.59303 7.82233 8.62907 7.81272 8.66271 7.80551C8.69635 7.7983 8.72759 7.7959 8.75642 7.7959C8.78285 7.7959 8.80928 7.7959 8.83571 7.7983C8.86214 7.80071 8.88858 7.80071 8.91501 7.80311C8.94144 7.80551 8.96787 7.80551 8.9919 7.80791C9.01593 7.81032 9.04236 7.81032 9.06639 7.81032C9.09042 7.81032 9.11444 7.80791 9.14328 7.80791C9.17211 7.80791 9.20095 7.81032 9.23218 7.82473C9.26342 7.83915 9.29466 7.86078 9.3283 7.90163C9.36194 7.94247 9.39558 7.99774 9.42922 8.07944C9.46286 8.15873 9.50851 8.26926 9.55897 8.3894C9.60943 8.50954 9.6647 8.6417 9.71515 8.76425C9.76561 8.88919 9.81607 9.00453 9.85452 9.09344C9.89297 9.18474 9.9218 9.24722 9.93141 9.26884C9.94102 9.28807 9.95063 9.30969 9.95784 9.33132C9.96505 9.35294 9.96986 9.37697 9.97226 9.3986C9.97466 9.42263 9.97466 9.44665 9.96986 9.47068C9.96505 9.49471 9.95784 9.52114 9.94343 9.54757C9.93381 9.5668 9.9266 9.58362 9.91699 9.60044C9.90979 9.61726 9.90017 9.63408 9.89297 9.64849C9.88576 9.66291 9.87615 9.67973 9.86894 9.69415C9.85933 9.70856 9.85212 9.72298 9.84251 9.7374C9.8377 9.74461 9.83289 9.74941 9.83049 9.75662C9.82569 9.76383 9.82088 9.76864 9.81607 9.77584C9.81127 9.78305 9.80646 9.78786 9.80166 9.79507C9.79685 9.80228 9.78964 9.80948 9.78484 9.81429C9.76561 9.83832 9.74399 9.86235 9.72477 9.88638C9.70314 9.9104 9.68392 9.93683 9.66229 9.96086C9.64067 9.98489 9.62144 10.0089 9.60222 10.033C9.583 10.0546 9.56378 10.0762 9.54455 10.093C9.52533 10.1123 9.5037 10.1339 9.48688 10.1555C9.47006 10.1771 9.45324 10.2012 9.44363 10.2276C9.43402 10.254 9.42922 10.2829 9.43402 10.3141C9.43883 10.3453 9.45084 10.3814 9.47487 10.4222C9.4989 10.4631 9.53734 10.5255 9.5878 10.6048C9.63826 10.6841 9.70314 10.7778 9.78003 10.8788C9.85692 10.9821 9.94583 11.0926 10.0443 11.2031C10.1429 11.3137 10.2534 11.4266 10.3759 11.5347C10.5297 11.6717 10.6787 11.7846 10.8181 11.8783C10.9574 11.9721 11.0848 12.0465 11.1977 12.109C11.3106 12.1691 11.4116 12.2147 11.4933 12.2508C11.575 12.2868 11.6374 12.3109 11.6783 12.3325C11.7191 12.3517 11.7552 12.3661 11.7888 12.3757C11.8224 12.3853 11.8513 12.3877 11.8801 12.3829C11.909 12.3805 11.933 12.3709 11.9594 12.3541C11.9834 12.3397 12.0075 12.3181 12.0315 12.2916C12.0555 12.2652 12.0916 12.222 12.1372 12.1715C12.1805 12.121 12.2333 12.061 12.2838 11.9985C12.3343 11.936 12.3871 11.8735 12.4328 11.8159C12.4784 11.7582 12.5193 11.7053 12.5457 11.6645C12.5721 11.6236 12.601 11.5948 12.6274 11.5756C12.6538 11.5564 12.6827 11.5468 12.7115 11.5419C12.7403 11.5395 12.7716 11.5419 12.8052 11.5492C12.8389 11.5564 12.8725 11.5684 12.9085 11.5828C12.9446 11.5948 13.0215 11.6309 13.12 11.6741C13.2185 11.7198 13.3362 11.775 13.454 11.8327C13.5717 11.8904 13.6919 11.948 13.7928 11.9961C13.8745 12.0465 13.9562 12.085 13.997 12.1066Z" fill="white"/>
<path d="M12.7601 14.0218C12.7241 14.0218 12.6856 14.0194 12.6424 14.017C12.4982 14.0026 12.318 13.9642 12.0945 13.8969C11.8374 13.82 11.5202 13.7095 11.1286 13.5557C10.7393 13.4043 10.3524 13.1833 9.98 12.9021C9.67965 12.6763 9.3865 12.4095 9.10777 12.1068C8.90834 11.8905 8.71611 11.6598 8.5359 11.4172C8.44218 11.2898 8.37491 11.1913 8.33406 11.1312C8.31964 11.1096 8.30763 11.0928 8.30282 11.0856L8.29801 11.0808C8.28119 11.0567 8.24755 11.0135 8.2043 10.951C8.14664 10.8693 8.09137 10.7828 8.04091 10.6963C7.97363 10.581 7.91116 10.4632 7.85829 10.3455C7.79342 10.2037 7.74055 10.0596 7.69971 9.92258C7.68529 9.87453 7.67328 9.82647 7.66366 9.78082C7.65165 9.73276 7.64204 9.6823 7.63483 9.63665C7.62762 9.58619 7.62041 9.53573 7.61561 9.48767C7.6108 9.43721 7.6084 9.38435 7.6084 9.33629C7.6084 9.14166 7.63243 8.95183 7.68048 8.77883C7.72133 8.63226 7.779 8.49049 7.85349 8.36074C7.91116 8.25982 7.97603 8.1661 8.05533 8.07239C8.10338 8.01713 8.14664 7.97147 8.18028 7.93543C8.19229 7.92342 8.2019 7.9114 8.21151 7.90179C8.25476 7.85614 8.30042 7.81529 8.35088 7.78165C8.39653 7.75041 8.44459 7.72398 8.49505 7.70476C8.5383 7.68794 8.58395 7.67352 8.63201 7.66631C8.67286 7.6591 8.71371 7.6543 8.75215 7.6543C8.77858 7.6543 8.80742 7.6543 8.83865 7.6567C8.86509 7.6591 8.89392 7.6591 8.92035 7.66151C8.94678 7.66391 8.97081 7.66391 8.99484 7.66631C9.02608 7.66872 9.05491 7.66872 9.08615 7.66631C9.10297 7.66631 9.11979 7.66391 9.13661 7.66391C9.18947 7.66391 9.23753 7.67352 9.28318 7.69274C9.33845 7.71677 9.3889 7.75762 9.43456 7.81048C9.48021 7.86575 9.51866 7.93543 9.5571 8.02434C9.59074 8.10363 9.6364 8.21416 9.68686 8.3343L9.7229 8.42321C9.76135 8.51692 9.80219 8.61544 9.84304 8.70915C9.8935 8.83169 9.94396 8.94943 9.98 9.03834C10.0353 9.16569 10.0473 9.19692 10.0521 9.20413C10.0665 9.23537 10.0785 9.2618 10.0881 9.28823C10.1001 9.32187 10.1074 9.35551 10.1098 9.38675C10.1146 9.4252 10.1122 9.46364 10.105 9.49968C10.0977 9.54053 10.0833 9.57898 10.0641 9.61742L10.0377 9.67029C10.0281 9.6871 10.0209 9.70392 10.0112 9.72074C10.0016 9.73756 9.99442 9.75438 9.98481 9.7712C9.9752 9.78802 9.96559 9.80484 9.95357 9.82166L9.95117 9.82407C9.94636 9.83128 9.94156 9.83848 9.93675 9.84569C9.93195 9.8529 9.92474 9.86011 9.91993 9.86732C9.91513 9.87453 9.90792 9.88174 9.90071 9.89135C9.8935 9.89856 9.8887 9.90576 9.88149 9.91538C9.86226 9.937 9.84304 9.96103 9.82382 9.98506L9.81421 9.99707C9.79739 10.0187 9.77817 10.0403 9.76135 10.062C9.73972 10.0884 9.71809 10.1124 9.69647 10.1364C9.67244 10.1629 9.65081 10.1845 9.63159 10.2037C9.61477 10.2205 9.59795 10.2374 9.58594 10.2542C9.57633 10.2662 9.56912 10.2758 9.56672 10.2854C9.56431 10.2902 9.56431 10.295 9.56431 10.3022C9.56431 10.3095 9.56912 10.3263 9.58594 10.3527C9.61958 10.4104 9.65562 10.468 9.69647 10.5305C9.75414 10.6218 9.81901 10.7107 9.88389 10.7972C9.96559 10.9078 10.0521 11.0135 10.141 11.112C10.2443 11.2297 10.3524 11.3355 10.4582 11.4292C10.5951 11.5517 10.7393 11.6623 10.8859 11.7608C11.0036 11.8425 11.1286 11.917 11.2511 11.9818C11.3688 12.0443 11.4698 12.09 11.537 12.1188C11.5683 12.1332 11.5947 12.1428 11.6187 12.1548C11.662 12.1741 11.698 12.1885 11.7269 12.2029C11.7605 12.2197 11.7869 12.2293 11.8086 12.2341C11.823 12.2389 11.835 12.2389 11.847 12.2389C11.8518 12.2389 11.8566 12.2365 11.8662 12.2317C11.8782 12.2245 11.8903 12.2125 11.9047 12.1981C11.9287 12.1717 11.9648 12.1308 12.008 12.0779C12.0513 12.0275 12.1017 11.9674 12.1522 11.9073C12.2074 11.8401 12.2579 11.78 12.2987 11.7271C12.3468 11.6671 12.3828 11.619 12.4045 11.5854C12.4405 11.5301 12.479 11.4892 12.5222 11.4604C12.5679 11.4292 12.6207 11.4076 12.6736 11.4027C12.7168 11.3979 12.7649 11.4003 12.8154 11.4124C12.8562 11.422 12.8971 11.4364 12.9355 11.4508C12.9595 11.4604 13.01 11.4796 13.159 11.5469C13.2479 11.5878 13.3608 11.6406 13.4954 11.7055C13.6155 11.7632 13.7332 11.8208 13.8342 11.8689C13.9351 11.917 14.0144 11.9578 14.0552 11.977C14.0841 11.9914 14.1129 12.0035 14.1369 12.0179L14.1634 12.0299C14.1994 12.0467 14.2306 12.0635 14.2595 12.0779C14.2955 12.0972 14.3219 12.114 14.346 12.1332C14.3796 12.1596 14.4036 12.1861 14.4229 12.2173L14.4253 12.2197C14.4469 12.2582 14.4613 12.3086 14.4661 12.3783C14.4709 12.4336 14.4685 12.5008 14.4637 12.5729C14.4565 12.6522 14.4445 12.7363 14.4253 12.8204C14.4036 12.9165 14.3772 13.0127 14.3436 13.1064C14.3051 13.2145 14.2306 13.325 14.1249 13.4331C14.036 13.5245 13.9255 13.611 13.8005 13.6927C13.6876 13.7647 13.565 13.8296 13.4473 13.8777C13.3632 13.9113 13.2383 13.9546 13.1277 13.9666C13.0893 13.9714 13.0532 13.9786 13.0148 13.9882C12.9932 13.993 12.9715 13.9978 12.9475 14.0026C12.9067 14.0122 12.8442 14.0218 12.7601 14.0218ZM8.75455 7.94264C8.73293 7.94264 8.7113 7.94504 8.68727 7.94985C8.66084 7.95465 8.63201 7.96186 8.60558 7.97388C8.57434 7.98589 8.54551 8.00271 8.51667 8.01953C8.48544 8.04116 8.4542 8.06759 8.42777 8.09642C8.41816 8.10844 8.40614 8.11805 8.39413 8.13246C8.36289 8.1661 8.32204 8.20936 8.28119 8.25741C8.21391 8.33671 8.15625 8.4184 8.10819 8.5025C8.04572 8.61303 7.99526 8.73077 7.96162 8.85332C7.92077 9.00229 7.89914 9.16329 7.89914 9.33389C7.89914 9.37474 7.90155 9.41799 7.90395 9.46124C7.90635 9.50209 7.91356 9.54534 7.92077 9.58859C7.92798 9.62944 7.93519 9.67269 7.9448 9.71594C7.95441 9.75679 7.96402 9.79764 7.97603 9.84089C8.01208 9.96343 8.06013 10.0932 8.1202 10.2229C8.16826 10.3311 8.22593 10.4392 8.2884 10.5473C8.33646 10.629 8.38692 10.7083 8.43978 10.7852C8.47823 10.8429 8.50946 10.8837 8.52628 10.9054L8.52869 10.9102C8.5359 10.9174 8.54791 10.939 8.56713 10.9678C8.60558 11.0255 8.67045 11.1216 8.76176 11.2442C8.93477 11.4772 9.11979 11.7007 9.31201 11.9073C9.58113 12.1957 9.85986 12.4528 10.1458 12.6666C10.499 12.9334 10.8618 13.14 11.2247 13.2818C11.6091 13.4331 11.9191 13.5413 12.169 13.6158C12.3756 13.6758 12.5366 13.7119 12.6616 13.7239C12.7697 13.7335 12.8322 13.7263 12.885 13.7143C12.9043 13.7095 12.9235 13.7047 12.9427 13.7023C12.9884 13.6927 13.0364 13.6782 13.0989 13.6734C13.1566 13.6686 13.2407 13.6446 13.3344 13.6062C13.4353 13.5653 13.541 13.51 13.6419 13.4452C13.7477 13.3779 13.8438 13.301 13.9159 13.2265C13.9903 13.1496 14.0432 13.0727 14.0672 13.0054C14.0961 12.9237 14.1201 12.8396 14.1393 12.7555C14.1561 12.6835 14.1658 12.6114 14.173 12.5441C14.1802 12.472 14.1778 12.424 14.1754 12.3975C14.173 12.3807 14.173 12.3711 14.1706 12.3639C14.1682 12.3639 14.1682 12.3615 14.1658 12.3591C14.1561 12.3519 14.1393 12.3423 14.1201 12.3302C14.0985 12.3182 14.0696 12.3038 14.0384 12.2894L14.012 12.2774C13.9855 12.2654 13.9567 12.2509 13.9255 12.2365C13.8846 12.2173 13.8053 12.1765 13.7068 12.1284C13.6083 12.0803 13.4882 12.0227 13.3704 11.965C13.2359 11.9001 13.1253 11.8473 13.0364 11.8088C12.9019 11.7464 12.8538 11.7271 12.837 11.7223C12.8057 11.7103 12.7745 11.7007 12.7481 11.6935C12.7289 11.6887 12.7144 11.6887 12.7048 11.6887C12.7 11.6887 12.6952 11.6911 12.688 11.6959C12.6784 11.7031 12.664 11.7151 12.6448 11.7464C12.6183 11.7872 12.5775 11.8401 12.5246 11.9049C12.4814 11.9602 12.4309 12.0227 12.3732 12.0924C12.3204 12.1548 12.2699 12.2149 12.2267 12.2678C12.181 12.3206 12.145 12.3639 12.1209 12.3903C12.0873 12.4288 12.0537 12.4576 12.0152 12.4816C11.972 12.5081 11.9263 12.5249 11.8782 12.5297C11.8326 12.5345 11.7845 12.5321 11.7341 12.5177C11.6908 12.5081 11.6452 12.4888 11.5947 12.4648C11.5731 12.4552 11.5394 12.4408 11.501 12.424C11.4746 12.4119 11.4481 12.3999 11.4169 12.3879C11.3472 12.3567 11.2391 12.3086 11.1117 12.2413C10.9772 12.1693 10.845 12.09 10.7177 12.0035C10.5615 11.8977 10.4077 11.7776 10.2611 11.6478C10.1458 11.5469 10.0305 11.4316 9.91753 11.3042C9.82382 11.2009 9.73251 11.088 9.64601 10.9702C9.57633 10.8789 9.51145 10.7828 9.44898 10.6867C9.40813 10.6218 9.36728 10.5593 9.33364 10.4993C9.3024 10.444 9.28078 10.3887 9.27357 10.3359C9.26636 10.283 9.27357 10.2302 9.29279 10.1797C9.30721 10.1413 9.32883 10.1052 9.36007 10.0692C9.3817 10.0403 9.40813 10.0163 9.42735 9.99467C9.44417 9.98025 9.46099 9.96103 9.48021 9.9394C9.49944 9.91778 9.51866 9.89615 9.53788 9.87212C9.5547 9.8529 9.57152 9.83128 9.58834 9.80965L9.59795 9.79764C9.61958 9.7712 9.6388 9.74718 9.66043 9.72315L9.66283 9.72074C9.66763 9.71594 9.67244 9.70873 9.67725 9.70392C9.68205 9.69912 9.68686 9.69431 9.68926 9.68951C9.69407 9.6847 9.69647 9.6799 9.70127 9.67509C9.70368 9.67029 9.70848 9.66548 9.71089 9.66067C9.71809 9.64866 9.7253 9.63665 9.73251 9.62463C9.73972 9.61262 9.74693 9.5982 9.75414 9.58619C9.76135 9.57177 9.76855 9.55735 9.77817 9.54053L9.8046 9.48767C9.81181 9.47325 9.81661 9.46124 9.81901 9.44922C9.82142 9.43961 9.82142 9.4276 9.81901 9.41799C9.81901 9.40597 9.81421 9.39396 9.81181 9.38194C9.807 9.36753 9.80219 9.35311 9.79258 9.33629C9.78537 9.32428 9.76855 9.28823 9.71329 9.15367C9.67484 9.06237 9.62679 8.94703 9.57392 8.82208C9.53548 8.72837 9.49463 8.62985 9.45378 8.53614L9.41774 8.44724C9.36728 8.32709 9.32163 8.21656 9.28799 8.13727C9.26155 8.0748 9.23512 8.02914 9.20869 7.9955C9.19908 7.98349 9.18226 7.96667 9.16784 7.95946C9.16063 7.95706 9.15102 7.95465 9.13661 7.95465C9.12459 7.95465 9.11498 7.95465 9.10537 7.95706C9.06212 7.95946 9.02848 7.95946 8.97802 7.95706C8.95159 7.95465 8.92756 7.95465 8.90113 7.95225C8.8747 7.94985 8.84827 7.94985 8.82183 7.94745C8.80021 7.94264 8.77618 7.94264 8.75455 7.94264Z" fill="white"/>
</g>
</g>
</g>
<defs>
<clipPath id="clip0_3_8028">
<rect width="22" height="22" fill="white"/>
</clipPath>
<clipPath id="clip1_3_8028">
<rect width="22" height="22" fill="white"/>
</clipPath>
</defs>
</svg>
