<svg width="31" height="30" viewBox="0 0 31 30" fill="none" xmlns="http://www.w3.org/2000/svg">
<path d="M14.7388 0.913826C11.815 1.16578 9.37161 2.06812 7.1802 3.71461C6.4888 4.23023 5.31692 5.36695 4.74856 6.06421C3.16653 8.00953 2.14114 10.3767 1.74856 12.949C1.62552 13.781 1.6138 15.7615 1.72513 16.5818C1.9595 18.3103 2.46341 19.9216 3.18997 21.3103L3.47708 21.8435L2.4927 25.4412C1.94778 27.4158 1.51419 29.0447 1.53177 29.0564C1.54348 29.0681 3.20755 28.6462 5.22903 28.113L8.90286 27.1462L9.62356 27.4919C12.4536 28.8455 15.8814 29.1853 18.9575 28.4177C20.897 27.9314 22.8365 26.9705 24.3892 25.7224C25.9009 24.4978 27.3599 22.6462 28.1861 20.8884C29.4458 18.2341 29.8384 15.3806 29.3521 12.4802C28.3618 6.5857 23.5923 1.9275 17.6568 1.05445C16.9302 0.948982 15.2779 0.866951 14.7388 0.913826ZM17.2232 3.43336C19.6958 3.7732 21.9224 4.89234 23.7388 6.70289C26.522 9.49195 27.6822 13.3416 26.897 17.1794C26.522 19.0017 25.6548 20.8005 24.4536 22.2361C22.6372 24.4158 20.1997 25.7986 17.3462 26.2908C16.5259 26.4255 14.6333 26.4255 13.8306 26.2908C12.3365 26.0271 11.0181 25.5584 9.79349 24.8494L9.272 24.5505L7.13919 25.113C5.96145 25.4177 4.9888 25.658 4.97708 25.6462C4.96536 25.6345 5.20559 24.6853 5.522 23.5369L6.09036 21.4509L5.79153 20.9646C4.2095 18.3748 3.69388 15.4861 4.27981 12.5681C5.10598 8.47242 8.16458 5.09156 12.1665 3.84351C13.8599 3.31617 15.4361 3.18726 17.2232 3.43336Z" fill="#17706E"/>
<path d="M10.3339 8.4317C9.67769 8.6485 8.82222 9.77936 8.5937 10.7286C8.24214 12.2286 8.69917 13.7344 10.1054 15.668C11.3828 17.4258 12.7656 18.7911 14.2832 19.7872C15.2675 20.4317 16.9785 21.1758 18.1093 21.4512C18.7011 21.5919 19.7734 21.6036 20.2714 21.4747C21.0449 21.2696 22.0117 20.6133 22.3222 20.0801C22.5273 19.7344 22.6621 19.1485 22.6738 18.6153C22.6796 18.1993 22.6679 18.1465 22.539 18.0528C22.2578 17.836 19.539 16.5821 19.2871 16.5469C18.9824 16.5001 18.9707 16.5118 18.3789 17.2794C17.7695 18.0645 17.4824 18.3399 17.289 18.3399C17.0429 18.3399 15.5488 17.5782 14.9335 17.1329C14.6406 16.9219 14.1777 16.5352 13.9082 16.2715C13.0937 15.4688 12.1621 14.1856 12.1621 13.8633C12.1621 13.7579 12.2734 13.5645 12.4785 13.3067C13.1171 12.5098 13.2753 12.2462 13.2753 11.9883C13.2753 11.6837 12.1328 8.90631 11.8867 8.6192C11.7226 8.42584 11.7226 8.42584 11.1074 8.4024C10.7675 8.39068 10.4218 8.4024 10.3339 8.4317Z" fill="#17706E"/>
</svg>
