<svg width="60" height="60" viewBox="0 0 60 60" fill="none" xmlns="http://www.w3.org/2000/svg">
<rect width="60" height="60" rx="8" fill="#F3F9FF"/>
<path d="M32.2172 21.4996C30.7962 20.8335 29.2037 20.8334 27.7827 21.4996L21.0916 24.6366C20.0156 25.141 19.7351 26.5635 20.25 27.5467L20.25 32.5C20.25 32.9142 20.5858 33.25 21 33.25C21.4142 33.25 21.75 32.9142 21.75 32.5V28.672L27.7828 31.5003C29.2038 32.1665 30.7963 32.1665 32.2173 31.5003L38.9084 28.3634C40.3639 27.6811 40.3639 25.319 38.9084 24.6366L32.2172 21.4996Z" fill="#4995EC"/>
<path d="M23 30.9147V34.6254C23 35.6334 23.5035 36.5772 24.3853 37.0656C25.8537 37.8787 28.204 39 30 39C31.796 39 34.1463 37.8787 35.6147 37.0656C36.4965 36.5772 37 35.6334 37 34.6254V30.9148L32.854 32.8585C31.0296 33.7138 28.9705 33.7138 27.1461 32.8585L23 30.9147Z" fill="#4995EC"/>
</svg>
