<svg width="116" height="12" viewBox="0 0 116 12" fill="none" xmlns="http://www.w3.org/2000/svg">
<g clip-path="url(#clip0_709_9176)">
<path fill-rule="evenodd" clip-rule="evenodd" d="M76.1018 6.00996C76.1018 3.67347 74.4187 2.2781 71.8944 2.2677C69.3377 2.2677 67.6875 3.80661 67.6875 5.98919C67.6875 8.33605 69.3702 9.73191 71.8944 9.73191C74.452 9.73191 76.1018 8.19111 76.1018 6.00996ZM74.6216 5.99957C74.6216 7.51915 73.5771 8.5429 71.9059 8.5429V8.54147C70.1107 8.53112 69.1681 7.41479 69.1681 5.99957C69.1681 4.49039 70.2015 3.46665 71.8842 3.45625C73.6794 3.46665 74.6216 4.58294 74.6216 5.99957Z" fill="#FF0D65"/>
<path fill-rule="evenodd" clip-rule="evenodd" d="M93.1174 6.00996C93.1174 3.67347 91.4347 2.2781 88.9105 2.2677C86.353 2.2677 84.7039 3.80661 84.7031 5.98919C84.7031 8.33605 86.3862 9.73191 88.9105 9.73191C91.468 9.73191 93.1174 8.19111 93.1174 6.00996ZM91.6376 5.99957C91.6376 7.51915 90.5932 8.5429 88.9216 8.5429L88.922 8.54147C87.1272 8.53112 86.1846 7.41479 86.1842 5.99957C86.1842 4.49039 87.2171 3.46665 88.9002 3.45625C90.695 3.46665 91.6376 4.58294 91.6376 5.99957Z" fill="#FF0D65"/>
<path fill-rule="evenodd" clip-rule="evenodd" d="M94.5938 9.61676V2.38013H98.0039C99.7544 2.38013 100.652 2.97936 100.652 4.17877C100.652 5.00561 100.293 5.55386 99.4849 5.84332C100.45 5.99819 100.888 6.56677 100.888 7.50738C100.888 9.00667 99.7207 9.61676 97.8129 9.61676H94.5938ZM97.8022 5.44004C98.6886 5.44004 99.2492 5.07836 99.2492 4.45784C99.2492 3.87892 98.834 3.56868 97.8359 3.56868H95.9963V5.44004H97.8022ZM97.9045 8.42771C98.9806 8.42771 99.4751 8.10708 99.4751 7.41434C99.4751 6.72164 98.9145 6.45296 97.9271 6.45296H95.9976V8.42771H97.9045Z" fill="#FF0D65"/>
<path fill-rule="evenodd" clip-rule="evenodd" d="M104.945 4.63353H103.878V2.38013H102.477V9.61676H104.958C107.246 9.61676 108.48 8.76866 108.48 7.08382C108.48 5.45043 107.435 4.63353 104.945 4.63353ZM103.878 8.42771V5.82254H105.068C106.437 5.82254 107.031 6.16349 107.031 7.05266C107.031 8.03486 106.358 8.42771 105.045 8.42771H103.878Z" fill="#FF0D65"/>
<path d="M111.348 6.48412H114.961L114.962 5.29507H111.35V3.56868H115.377V2.38013H109.945V9.61676H115.499V8.42771H111.348V6.48412Z" fill="#FF0D65"/>
<path fill-rule="evenodd" clip-rule="evenodd" d="M78.9651 7.36289V9.61676H77.5625V2.38013H80.1759C82.6549 2.38013 83.7117 3.19658 83.7117 4.82996C83.7117 6.51528 82.4779 7.36289 80.1759 7.36289H78.9651ZM78.9651 3.56868V6.17384H80.2773C81.5789 6.17384 82.2516 5.78099 82.2516 4.79924C82.2516 3.91008 81.6688 3.56868 80.2999 3.56868H78.9651Z" fill="#FF0D65"/>
<path fill-rule="evenodd" clip-rule="evenodd" d="M59.7276 8.42771C60.1761 7.44554 60.5014 6.08084 60.5355 3.87892L60.5577 2.38013H66.0773V8.42771H66.9858V10.9606H65.6736V9.61676H60.1872V10.9606H58.875V8.42771H59.7276ZM61.0966 8.42771H64.6747V3.56868H61.8371V3.91008C61.7919 5.80177 61.5434 7.29067 61.0966 8.42771Z" fill="#FF0D65"/>
<path d="M54.8418 2.27673C53.5965 2.27673 52.688 2.61768 52.2391 2.91751L52.2379 4.71619C52.6983 4.07539 53.6519 3.44499 54.8406 3.46528C55.671 3.48606 56.3216 3.75473 56.3216 4.42669C56.3216 4.96455 55.9737 5.40889 54.9642 5.40889H53.7854V6.47374H54.9749C56.1976 6.47374 56.7138 6.77359 56.7138 7.41439C56.7138 8.14868 55.9511 8.52075 54.9974 8.53118C53.5497 8.54153 52.5291 7.96264 52.0469 7.22832V8.82064C52.4642 9.25459 53.5497 9.73058 54.9749 9.72019C57.0843 9.7098 58.1723 8.74838 58.1723 7.49749C58.1723 6.546 57.5903 5.96704 56.3787 5.80178C57.2876 5.50193 57.7698 4.94378 57.7698 4.09617C57.7698 2.8245 56.6029 2.28713 54.8418 2.27673Z" fill="#FF0D65"/>
<path d="M21.7987 8.32236C22.3086 8.32499 22.811 8.20956 23.2592 7.98681L23.6341 7.80077L24.7288 8.53979C24.0065 9.24835 22.942 9.63779 21.7225 9.63779C20.5567 9.63779 19.4912 9.25866 18.729 8.57586C17.9668 7.8931 17.5469 6.94412 17.5469 5.91314C17.5469 4.88215 17.973 3.94724 18.7336 3.28884C19.4943 2.63043 20.5593 2.2677 21.7332 2.2677C22.8156 2.2677 23.762 2.56904 24.4705 3.13935L24.5508 3.20168L23.3374 4.02085C22.8891 3.7271 22.3499 3.57258 21.7987 3.57985C20.2739 3.57985 19.1669 4.57709 19.1669 5.95109C19.1669 7.32512 20.2739 8.32236 21.7987 8.32236Z" fill="#21A038"/>
<path fill-rule="evenodd" clip-rule="evenodd" d="M29.9141 5.15959H27.8557V3.55593H31.1413L32.9122 2.36047H26.1641V9.54218H29.6937C31.6748 9.54218 32.8109 8.71973 32.8109 7.28618C32.813 5.91499 31.7833 5.15959 29.9141 5.15959ZM29.6195 8.34623H27.8557V6.3555H29.6195C30.6937 6.3555 31.1929 6.68869 31.1929 7.35086C31.1929 8.02759 30.6615 8.34623 29.6195 8.34623Z" fill="#21A038"/>
<path d="M40.31 2.36035L38.539 3.55581H36.0745V5.31176H39.6874V6.50771H36.0745V8.34611H40.31V9.54206H34.3828V2.36035H40.31Z" fill="#21A038"/>
<path fill-rule="evenodd" clip-rule="evenodd" d="M41.8906 2.36035H45.118C47.1769 2.36035 48.4551 3.34493 48.4551 4.93031C48.4551 6.51566 47.1757 7.50772 45.1168 7.50772H43.5824V9.54206H41.8906V2.36035ZM43.5824 6.31181H45.0815C46.1653 6.31181 46.7617 5.82254 46.7617 4.93406C46.7617 4.04553 46.1653 3.55581 45.0815 3.55581H43.5824V6.31181Z" fill="#21A038"/>
<path d="M12.1972 2.3313C12.5053 2.69739 12.7687 3.09741 12.9794 3.52381L7.03188 7.55317L4.54688 6.12131V4.39875L7.03188 5.83061L12.1972 2.3313Z" fill="#21A038"/>
<path d="M2.00802 5.99974C2.00802 5.92249 2.01008 5.84569 2.01418 5.76934L0.508202 5.70007C0.503076 5.79949 0.5 5.89939 0.5 5.99974C0.5 7.65634 1.23043 9.15652 2.41194 10.2426L3.47966 9.26111C2.57136 8.42527 2.00802 7.27189 2.00802 5.99974Z" fill="url(#paint0_linear_709_9176)"/>
<path d="M7.02206 1.38568C7.10614 1.38568 7.18967 1.38851 7.27272 1.39228L7.34809 0.00753874C7.23995 0.00282714 7.13127 0 7.02206 0C5.21985 0 3.58776 0.671404 2.40625 1.75743L3.47396 2.73886C4.38329 1.90302 5.63808 1.38568 7.02206 1.38568Z" fill="url(#paint1_linear_709_9176)"/>
<path d="M7.02915 10.6138C6.94508 10.6138 6.86154 10.6119 6.77849 10.6081L6.70312 11.9924C6.81127 11.9971 6.91994 12 7.02915 12C8.83136 12 10.4635 11.3286 11.645 10.2426L10.5772 9.26111C9.66791 10.096 8.41309 10.6138 7.02915 10.6138Z" fill="url(#paint2_linear_709_9176)"/>
<path d="M9.86124 2.1909L11.1309 1.33103C10.0104 0.498488 8.58441 0 7.03125 0V1.38616C8.08054 1.38568 9.05496 1.68346 9.86124 2.1909Z" fill="url(#paint3_linear_709_9176)"/>
<path d="M13.5518 5.99976C13.5518 5.63271 13.5159 5.27369 13.4472 4.92456L12.0422 5.87631C12.0432 5.9173 12.0442 5.95829 12.0442 5.99927C12.0442 7.35389 11.4055 8.57417 10.3906 9.41897L11.404 10.4485C12.7229 9.35114 13.5518 7.76425 13.5518 5.99976Z" fill="#21A038"/>
<path d="M7.02786 10.6138C5.55417 10.6138 4.22656 10.0268 3.3075 9.09387L2.1875 10.0253C3.38182 11.2381 5.10822 12 7.02786 12V10.6138Z" fill="url(#paint4_linear_709_9176)"/>
<path d="M3.66163 2.58002L2.64825 1.55054C1.32885 2.64834 0.5 4.2352 0.5 5.99973H2.00802C2.00854 4.64467 2.64671 3.42481 3.66163 2.58002Z" fill="url(#paint5_linear_709_9176)"/>
</g>
<defs>
<linearGradient id="paint0_linear_709_9176" x1="2.71737" y1="10.0688" x2="1.30182" y2="5.6173" gradientUnits="userSpaceOnUse">
<stop offset="0.1444" stop-color="#F2E913"/>
<stop offset="0.3037" stop-color="#E7E518"/>
<stop offset="0.5823" stop-color="#CADB26"/>
<stop offset="0.891" stop-color="#A3CD39"/>
</linearGradient>
<linearGradient id="paint1_linear_709_9176" x1="2.83724" y1="2.00247" x2="6.98427" y2="0.28317" gradientUnits="userSpaceOnUse">
<stop offset="0.0592" stop-color="#0FA8E0"/>
<stop offset="0.5385" stop-color="#0099F9"/>
<stop offset="0.9234" stop-color="#0291EB"/>
</linearGradient>
<linearGradient id="paint2_linear_709_9176" x1="6.60361" y1="11.1634" x2="11.3599" y2="9.9939" gradientUnits="userSpaceOnUse">
<stop offset="0.1226" stop-color="#A3CD39"/>
<stop offset="0.2846" stop-color="#86C339"/>
<stop offset="0.8693" stop-color="#21A038"/>
</linearGradient>
<linearGradient id="paint3_linear_709_9176" x1="6.71578" y1="0.464276" x2="10.7542" y2="1.81985" gradientUnits="userSpaceOnUse">
<stop offset="0.0566" stop-color="#0291EB"/>
<stop offset="0.79" stop-color="#0C8ACB"/>
</linearGradient>
<linearGradient id="paint4_linear_709_9176" x1="2.56574" y1="9.85643" x2="6.93351" y2="11.6318" gradientUnits="userSpaceOnUse">
<stop offset="0.1324" stop-color="#F2E913"/>
<stop offset="0.2977" stop-color="#EBE716"/>
<stop offset="0.5306" stop-color="#D9E01F"/>
<stop offset="0.8023" stop-color="#BBD62D"/>
<stop offset="0.9829" stop-color="#A3CD39"/>
</linearGradient>
<linearGradient id="paint5_linear_709_9176" x1="1.06203" y1="6.16761" x2="2.60751" y2="1.79375" gradientUnits="userSpaceOnUse">
<stop offset="0.0698" stop-color="#A3CD39"/>
<stop offset="0.2599" stop-color="#81C55F"/>
<stop offset="0.9216" stop-color="#0FA8E0"/>
</linearGradient>
<clipPath id="clip0_709_9176">
<rect width="115" height="12" fill="white" transform="translate(0.5)"/>
</clipPath>
</defs>
</svg>
