<svg width="58" height="14" viewBox="0 0 58 14" fill="none" xmlns="http://www.w3.org/2000/svg">
<path fill-rule="evenodd" clip-rule="evenodd" d="M18.8096 10.8735C22.0163 10.8735 24.5989 8.42795 24.5989 5.43674C24.5989 2.42531 21.9948 0 18.8096 0C15.6245 0 13.0204 2.42531 13.0204 5.41652C13.0204 8.42795 15.603 10.8735 18.8096 10.8735ZM18.8096 8.38753C20.5529 8.38753 21.9518 7.05361 21.9518 5.43674C21.9518 3.79965 20.5314 2.48594 18.8096 2.48594C17.0664 2.48594 15.6675 3.81986 15.6675 5.43674C15.6675 7.05361 17.0664 8.38753 18.8096 8.38753Z" fill="#13A546"/>
<path fill-rule="evenodd" clip-rule="evenodd" d="M21.6074 10.7118L24.2115 13.5615C24.685 14.087 25.5243 14.1476 26.0839 13.703C26.6434 13.2584 26.708 12.4701 26.2345 11.9446L23.695 9.15554C23.1354 9.80229 22.4252 10.3278 21.6074 10.7118Z" fill="#13A546"/>
<path d="M36.1774 9.05449C36.1774 9.41829 36.0482 9.72145 35.8115 9.94377C35.5532 10.1863 35.2519 10.2874 34.8861 10.2874C34.4772 10.2874 34.1328 10.1459 33.8746 9.86293L30.9262 6.54834L29.6779 7.63973V9.03428C29.6779 9.37786 29.5488 9.66082 29.2905 9.90335C29.0323 10.1459 28.7095 10.2671 28.3651 10.2671C28.0208 10.2671 27.698 10.1459 27.4397 9.90335C27.1814 9.66082 27.0738 9.35765 27.0738 9.03428V1.87961C27.0738 1.53603 27.203 1.25308 27.4397 1.01055C27.698 0.768015 28.0208 0.646749 28.3866 0.646749C28.7525 0.646749 29.0538 0.768015 29.2905 1.01055C29.5488 1.25308 29.6779 1.55624 29.6779 1.87961V4.91125L33.8315 0.949913C34.0683 0.727593 34.3481 0.626538 34.6924 0.626538C35.0367 0.626538 35.338 0.747804 35.5532 0.970124C35.79 1.19244 35.8976 1.45519 35.8976 1.77856C35.8976 2.10193 35.79 2.38489 35.5532 2.587L32.8416 5.09315L35.9191 8.30669C36.0913 8.46837 36.1774 8.73111 36.1774 9.05449Z" fill="#2C2B67"/>
<path d="M41.0412 9.05449V2.93058H39.2549C38.9321 2.93058 38.6523 2.82953 38.4156 2.62742C38.2004 2.42531 38.0928 2.16257 38.0928 1.8594C38.0928 1.55624 38.2004 1.31371 38.4156 1.09139C38.6523 0.869069 38.9321 0.768015 39.2549 0.768015H45.4961C45.8189 0.768015 46.0772 0.869069 46.3139 1.09139C46.5506 1.2935 46.6583 1.55624 46.6583 1.8594C46.6583 2.14236 46.5506 2.4051 46.3139 2.62742C46.0987 2.82953 45.8189 2.93058 45.4961 2.93058H43.6883V9.0747C43.6883 9.41829 43.5592 9.70124 43.3009 9.94377C43.0427 10.1863 42.7199 10.3076 42.3755 10.3076C42.0097 10.3076 41.7084 10.1863 41.4501 9.94377C41.1918 9.70124 41.0412 9.39807 41.0412 9.05449Z" fill="#2C2B67"/>
<path d="M49.8649 11.8032L49.9941 11.783C50.6827 11.7628 51.1347 11.5404 51.3714 11.0958L51.7373 10.2874L48.2939 2.28383C48.2293 2.18278 48.2078 2.02109 48.2078 1.83919C48.2078 1.49561 48.3369 1.21265 48.5737 0.990335C48.8319 0.747804 49.1332 0.626538 49.4776 0.626538C50.1017 0.626538 50.5106 0.88928 50.6827 1.39455L53.0931 7.39719L55.482 1.39455C55.6972 0.88928 56.1061 0.626538 56.7087 0.626538C57.0746 0.626538 57.3974 0.747804 57.6341 0.990335C57.8924 1.23287 58 1.51582 58 1.83919C58 1.98067 57.957 2.14236 57.8924 2.30404L53.8249 11.7021C53.2007 13.1977 51.9955 13.9657 50.1878 13.986C50.0371 13.986 49.9295 13.986 49.908 13.9657C49.5636 13.9455 49.2839 13.8445 49.0471 13.6424C48.8104 13.4403 48.7243 13.1775 48.7243 12.8541C48.7243 12.551 48.8319 12.3084 49.0471 12.1063C49.3054 11.9244 49.5636 11.8234 49.8649 11.8032Z" fill="#2C2B67"/>
<path d="M11.4709 9.29702V11.5606C11.4709 11.8638 11.3633 12.1063 11.1481 12.3287C10.9328 12.551 10.6531 12.6318 10.3302 12.6318C10.0074 12.6318 9.72764 12.5308 9.49091 12.3287C9.27569 12.1265 9.16809 11.8638 9.16809 11.5606V10.1459H2.30278V11.5606C2.30278 11.8638 2.19518 12.1063 1.97996 12.3287C1.76475 12.551 1.48497 12.6318 1.16215 12.6318C0.839332 12.6318 0.559555 12.5308 0.32282 12.3287C0.107607 12.1265 0 11.8638 0 11.5606V9.66082C0 8.73111 0.32282 8.20563 0.946939 8.04394C1.50649 7.07382 1.9154 5.39631 2.15213 3.01143L2.23822 2.10194C2.28126 1.67751 2.43191 1.35413 2.71169 1.13181C2.99147 0.88928 3.33581 0.768015 3.76623 0.768015H8.7807C9.27569 0.768015 9.66308 0.88928 9.92134 1.15202C10.2011 1.39455 10.3302 1.75835 10.3302 2.2232V8.02373C11.105 8.08436 11.4709 8.50879 11.4709 9.29702ZM7.72616 7.98331V2.91037H4.49796L4.43339 3.73902C4.30427 5.76011 3.95993 7.17487 3.42189 7.98331H7.72616Z" fill="#2C2B67"/>
</svg>
