<svg xmlns="http://www.w3.org/2000/svg" width="766" height="736" fill="none">
  <path fill="#BBC8D7" d="m686.06 485.781 5.722-2.254-28.697-11.965-.261.607 23.236 13.699v-.087Zm3.988-2.254-3.901 1.561-18.727-11.011 22.628 9.45Z"/>
  <path fill="#BBC8D7" d="m633.862 500.606 29.911-28.958-27.223-3.815-2.688 32.773Zm28.438-28.525-27.658 26.791 2.515-30.345 25.143 3.554ZM744.837 287.322l12.918-30.605-.52-.347-24.276 27.484 11.878 3.468Zm11.531-28.958-11.878 28.178-10.318-2.948 22.196-25.143v-.087ZM746.403 384.949l19.074-52.54-.607-.261-19.681 46.992 1.214 5.809Zm13.698-39.882-13.525 37.367-.694-3.294 14.219-34.073Z"/>
  <path fill="#BBC8D7" d="m730.276 398.905 16.82-15.173-18.901-11.964 2.168 27.137h-.087Zm15.693-15.086-15.173 13.698-1.907-24.536 17.08 10.751v.087Z"/>
  <path fill="#BBC8D7" d="m760.619 443.21.607-.26-14.479-59.303h-.694l-.52 37.888 14.999 21.675h.087Zm-13.872-56.875 13.351 55.055-13.872-20.028.434-35.027h.087ZM749.266 300.589l12.138-44.564-.607-.26-16.473 31.125 4.942 13.699Zm10.664-41.877-10.75 39.709-4.162-11.444 14.912-28.265ZM745.534 380.095l20.374-48.726-29.391 18.814 9.017 29.912Zm18.9-46.992-18.814 45.084-8.323-27.657 27.224-17.34-.087-.087Z"/>
  <path fill="#BBC8D7" d="m747.009 384.429-1.127-5.548-17.167-6.85-.26.607 18.641 11.791h-.087Zm-1.734-5.028.78 3.641-14.305-9.017 13.525 5.376Z"/>
  <path fill="#BBC8D7" d="M745.618 421.534h.694l.52-37.802h-.607l-6.069 17.254 5.549 20.548h-.087Zm.434-35.807-.434 33.292-4.855-18.033 5.289-15.259ZM736.343 351.05l29.218-18.727-16.473-33.813-12.745 52.54Zm28.351-18.901-27.311 17.514 11.965-49.072 15.346 31.645v-.087ZM715.187 301.37l18.987-17.687-17.687-7.37-1.387 25.143.087-.086Zm17.773-17.514-17.08 15.866 1.214-22.542 15.866 6.676Z"/>
  <path fill="#BBC8D7" d="m719.956 425.175 21.068-24.362-10.75-3.035-10.925 27.051.521.346h.086Zm19.855-24.015-19.074 22.021 9.97-24.622 9.104 2.601ZM717.185 276.833l5.635-13.525-4.508-5.029-1.734 18.467.607.174v-.087Zm4.855-13.438-4.682 11.184 1.387-14.739 3.295 3.641v-.086ZM749.004 299.721l.52-.347-4.595-12.658-12.484-3.642 16.559 16.647Zm-4.595-12.485 3.988 10.924-13.698-13.785 9.71 2.774v.087Z"/>
  <path fill="#BBC8D7" d="m716.753 277.008.26-.607-17.86-10.751-2.081 4.335 19.681 6.936v.087Zm-17.254-10.404 14.392 8.67-15.866-5.635 1.474-3.035ZM733.566 284.289l24.883-28.178-36.5 6.936 11.617 21.242Zm23.063-27.137-22.976 26.01-10.751-19.594 33.727-6.416ZM741.983 485.435l10.75-19.854-22.108-4.162 11.358 24.016Zm9.797-19.421-9.711 17.947-10.23-21.675 19.941 3.728Z"/>
  <path fill="#BBC8D7" d="m752.466 466.185 7.109-18.207-29.391 14.045 22.282 4.162Zm5.895-16.907-6.242 16.126-19.768-3.641 26.01-12.485Z"/>
  <path fill="#BBC8D7" d="m730.622 462.544 28.784-13.785-.173-.26-13.352-27.831-15.259 41.876Zm27.831-14.045-26.704 12.745 14.219-38.929 12.485 26.097v.087ZM691.174 483.957l10.751-30.345-39.709 18.294 28.958 12.138v-.087Zm9.624-29.131-10.058 28.178-26.877-11.271 36.935-16.994v.087ZM740.676 401.421l6.156-17.601-.52-.346-16.386 14.825 10.837 3.122h-.087Zm5.116-16.56-5.462 15.779-9.017-2.601 14.565-13.178h-.086ZM746.054 379.656l-9.191-30.431-8.843 23.235 17.947 7.196h.087Zm-9.277-28.351 8.236 27.224-16.126-6.416 7.89-20.808ZM721.604 263.828l37.108-7.11-23.582-9.623-13.526 16.733Zm34.767-7.283-33.119 6.329 12.051-14.912 21.068 8.583Z"/>
  <path fill="#BBC8D7" d="m718.916 425.438 27.484-3.641-5.809-21.415-21.675 25.056Zm26.617-4.248-24.969 3.294 19.767-22.802 5.289 19.508h-.087Z"/>
  <path fill="#BBC8D7" d="m731.227 462.892 15.259-41.876-27.223 3.641 11.964 38.235Zm14.219-41.009-14.219 38.928-11.097-35.634 25.316-3.381v.087ZM718.566 188.661l12.831-19.941-.433-.434-27.744 18.554 15.346 1.821Zm11.444-18.988-11.791 18.294-13.178-1.561 24.969-16.646v-.087ZM722.474 263.826l13.005-16.126-.434-.52-16.993 11.704 4.422 4.942Zm11.097-14.739-11.097 13.699-3.382-3.728 14.479-9.971ZM714.67 300.935l35.287-1.127-16.386-16.56-18.901 17.6v.087Zm33.726-1.734-31.992 1.04 17.167-15.953 14.825 15v-.087ZM650.856 452.052l30.952-42.743-25.143-20.895-5.809 63.725v-.087Zm30.085-42.657-29.218 40.316 5.549-59.996 23.669 19.767v-.087Z"/>
  <path fill="#BBC8D7" d="m736.95 351.393 12.745-52.194-34.593 1.127 21.848 51.153v-.086Zm11.878-51.5-12.051 49.419-20.721-48.379 32.772-1.04ZM734.353 284.464l-11.965-21.849-5.982 14.306 17.947 7.543Zm-11.878-20.288 10.404 18.987-15.606-6.502 5.202-12.398v-.087ZM677.998 277.354l17.774-3.208 2.427-4.855-20.374 7.456.173.607Zm17.34-3.815-13.698 2.428 15.172-5.549-1.474 3.121Z"/>
  <path fill="#BBC8D7" d="m736.607 350.442.607-.26-21.328-49.852-7.196-2.861 27.917 53.06v-.087Zm-21.242-49.679 17.947 41.963-23.149-44.13 5.202 2.081v.086ZM701.577 262.526l-12.831-41.009-27.918 32.686 40.749 8.409v-.086Zm-13.092-39.709 12.138 38.842-38.494-7.977 26.356-30.865Z"/>
  <path fill="#BBC8D7" d="m715.881 301.022 1.301-24.276-.607-.174-7.543 21.675 6.936 2.775h-.087Zm.52-22.022-1.127 21.068-5.462-2.168 6.589-18.813V279ZM733.218 510.314l9.364-26.183-35.98 14.739 26.616 11.444Zm8.237-24.969-8.583 24.102-24.536-10.49 33.119-13.612Z"/>
  <path fill="#BBC8D7" d="m706.606 499.565 35.807-14.739-11.184-23.669-24.623 38.408Zm34.94-15.085-33.293 13.611 22.889-35.633 10.404 22.022ZM688.831 222.385l30.519-34.68-19.335 5.029-11.704 29.304.52.347Zm28.611-33.466-27.83 31.559 10.924-27.137 16.906-4.422Z"/>
  <path fill="#BBC8D7" d="m690.302 484.22 41.79-22.455-31.039-7.89-10.837 30.432.086-.087Zm39.969-22.282-38.755 20.895 10.057-28.178 28.785 7.37-.087-.087ZM709.552 298.596l7.63-21.762-.607-.347-13.612 17.6 6.589 4.509Zm6.329-20.028-6.676 18.987-5.288-3.641 11.964-15.433v.087ZM634.561 499.737l2.601-31.819-6.069-2.947 2.775 34.68h.693v.086Zm1.907-31.385-2.254 27.224-2.341-29.478 4.595 2.254Z"/>
  <path fill="#BBC8D7" d="m717.099 277.441 1.734-18.814-18.554 3.295 16.733 15.519h.087Zm1.04-18.034-1.56 16.56-14.826-13.699 16.386-2.861ZM701.141 538.318l4.249-.346 2.427-39.189h-.693l-5.983 39.449v.086Zm3.642-.953-2.861.173 4.768-31.299-1.907 31.126Z"/>
  <path fill="#BBC8D7" d="m716.663 277.008.434-.521-16.127-14.999-1.994 4.769 17.774 10.664-.087.087Zm-15.519-14.393 13.092 12.138-14.566-8.756 1.474-3.382ZM731.745 462.373l-11.878-38.148-18.987 30.258 30.865 7.89Zm-12.138-36.588 11.098 35.634-28.871-7.37 17.773-28.264Z"/>
  <path fill="#BBC8D7" d="m707.563 499.392.173-.347 24.45-38.062-41.79 22.542 17.167 15.953v-.086Zm22.715-36.588-22.889 35.547-15.866-14.739 38.755-20.808ZM673.228 287.149l22.542-13.005-.261-.607-17.86 3.208-4.508 10.404h.087Zm20.547-12.571-19.16 11.01 3.554-8.236 15.606-2.774ZM677.303 141.927l9.797-14.566-18.381 1.214 8.584 13.352Zm8.496-13.785-8.496 12.571-7.37-11.531 15.953-1.04h-.087ZM699.586 193.603l18.9-4.942v-.607l-14.479-1.734-4.421 7.37v-.087Zm17.08-5.115-15.693 4.075 3.381-5.549 12.312 1.474Z"/>
  <path fill="#BBC8D7" d="m703.312 294.692 14.132-18.207-22.368-2.948 8.236 21.155Zm12.919-17.687-12.745 16.386-7.457-19.074 20.115 2.688h.087Z"/>
  <path fill="#BBC8D7" d="m716.839 277.092.174-.607-19.595-6.936-2.254 4.682 21.675 2.861Zm-19.074-6.763 16.04 5.636-17.6-2.341 1.647-3.295h-.087ZM700.793 262.442l18.294-3.208-30.258-37.281-.607.347 12.571 40.229v-.087Zm17.08-3.641-16.646 2.947-11.878-37.974 28.524 35.113v-.086Z"/>
  <path fill="#BBC8D7" d="m718.486 259.491 17.34-11.965-47.078-25.663-.433.52 30.084 37.108h.087Zm16.126-11.878-15.952 11.011-28.698-35.287 44.65 24.363v-.087ZM704.523 187.621l-3.468-44.824-21.415 13.872 24.969 30.952h-.086Zm-4.075-43.61 3.208 41.529-23.149-28.698 19.854-12.831h.087ZM678.082 277.354l19.767-7.196 2.255-4.681-22.282 11.271.26.606Zm19.247-7.716-14.305 5.202 15.606-7.89-1.301 2.688Z"/>
  <path fill="#BBC8D7" d="m735.732 248.223-17.166-60.603-30.519 34.593 47.685 26.01Zm-17.513-59.302 16.386 57.915-45.517-24.796 29.131-33.119ZM701.321 454.916l18.901-30.171-39.536-16.04 20.635 46.211Zm17.947-29.825-17.86 28.438-19.421-43.523 37.281 15.172v-.087ZM673.75 163.515l6.763-6.59-2.861-15.606h-.694l-3.208 22.196Zm5.982-6.85-5.028 4.942 2.688-18.207 2.427 13.265h-.087ZM704.008 294.519l-8.237-21.068-22.715 13.092 30.952 8.063v-.087Zm-8.583-20.114 7.456 19.161-28.091-7.283 20.635-11.878ZM707.3 499.132l.433-.521-16.646-15.432-5.636 2.254 21.849 13.785v-.086Zm-16.386-15.26 13.785 12.745-17.774-11.184 3.989-1.561Z"/>
  <path fill="#BBC8D7" d="m681.375 409.658 49.506-11.271-2.081-26.703-47.685 37.367.26.607Zm48.726-11.791-47.425 10.751 45.517-35.721 1.908 24.883v.087Z"/>
  <path fill="#BBC8D7" d="m719.875 425.351 11.185-27.658-50.807 11.531 39.709 16.127h-.087Zm10.057-26.704-10.404 25.837-37.107-15.086 47.511-10.838v.087ZM677.821 277.528l22.368-11.358-39.621-12.831 17.253 24.189Zm20.634-11.184-20.374 10.404-15.779-22.109 36.153 11.705Z"/>
  <path fill="#BBC8D7" d="m699.499 266.603 1.994-4.769-40.055-8.236-.174.607 38.148 12.398h.087Zm1.127-4.249-1.474 3.468-31.819-10.317 33.293 6.849ZM662.912 472.255l38.581-17.774v-.607l-50.806-3.381 12.225 21.762Zm37.107-17.774-36.847 16.907-11.358-20.115 48.205 3.208ZM703.921 186.837l.433-.434-24.275-30.085-6.416 6.329 30.258 24.276v-.086Zm-23.842-29.565 21.848 27.137-27.224-21.848 5.376-5.289Z"/>
  <path fill="#BBC8D7" d="m700.276 193.602 4.248-7.109-30.171-24.189-.434.433 26.357 30.865Zm3.381-6.936-3.468 5.809-23.495-27.484 26.963 21.675ZM647.736 508.061l15.606-36.068-.52-.347-29.132 28.178 14.046 8.237Zm14.392-34.767-14.652 33.813-12.572-7.456 27.311-26.444-.087.087ZM595.112 422.663l4.508-21.502h-19.247l14.739 21.502Zm3.641-20.895-3.988 19.247-13.178-19.247h17.166Z"/>
  <path fill="#BBC8D7" d="m688.482 223.252 12.138-30.258-26.183-30.605-.607.26 14.652 60.603Zm11.358-30.172-11.184 27.918-13.786-57.222 25.057 29.304h-.087ZM679.898 157.272l21.848-14.132-24.883-2.167 2.948 16.299h.087Zm19.941-13.698-19.421 12.571-2.601-14.479 22.022 1.908ZM701.925 454.567l-.26-.52-20.288-45.431-30.779 42.483 51.24 3.382.087.086Zm-20.635-44.564 19.594 43.871-48.985-3.295 29.391-40.576Z"/>
  <path fill="#BBC8D7" d="m677.905 141.668-8.583-13.265-12.485 13.179h20.982l.086.086Zm-8.67-12.138 7.456 11.532h-18.207l10.838-11.532h-.087ZM684.931 542.74h.086l16.56-4.421v-.694l-28.004-1.127-.173.607 11.444 5.549.087.086Zm14.392-4.508-14.306 3.815-9.797-4.769 24.103.954Z"/>
  <path fill="#BBC8D7" d="m673.922 537.107 34.073-38.321-22.022-13.872-12.571 51.933.607.26h-.087Zm33.119-38.148-32.685 36.761 12.051-49.679 20.634 13.005v-.087Z"/>
  <path fill="#BBC8D7" d="m701.839 538.322 6.156-40.576-35.027 39.362 28.871 1.127v.087Zm5.116-38.408-5.722 37.714-26.877-1.04 32.599-36.674ZM606.296 445.465l51.5-56.962-59.043 12.745 7.543 44.217Zm49.679-55.835-49.245 54.448-7.196-42.223 56.441-12.138v-.087ZM650.252 568.491v-.694l-28.351-6.936-5.982 6.59 34.333.953v.087Zm-28.091-6.849 24.97 6.069-29.738-.867 4.768-5.202ZM619.215 129.616l.607-.26-14.565-34.3335-4.682 2.601 18.64 31.9925Zm-14.218-33.6398 12.224 28.7848-15.692-26.8774 3.468-1.9074ZM673.922 287.235l4.422-10.231-16.647-23.322-.607.346 12.745 33.207h.087Zm3.641-10.144-3.641 8.41-11.271-29.218 14.912 20.894v-.086ZM674.44 163.341l3.294-22.368h-20.721l17.427 22.368Zm2.514-21.675-2.948 20.028L658.4 141.58h18.554v.086ZM659.093 387.03l69.62-14.392 8.67-22.976-78.55 36.761.173.607h.087Zm69.186-14.999-66.499 13.785 74.562-34.853-7.976 21.068h-.087Z"/>
  <path fill="#BBC8D7" d="m658.228 387.462 79.071-36.934-27.918-53.06-51.153 90.081v-.087Zm78.204-37.281-76.556 35.807 49.505-87.22 27.051 51.413Z"/>
  <path fill="#BBC8D7" d="m681.289 409.832 47.425-37.194-.26-.607L658.4 386.51l22.976 23.322h-.087Zm45.864-36.847-45.777 35.98-21.675-22.021 67.539-13.959h-.087ZM630.746 538.668l10.057-11.618-14.999-6.329 4.942 17.947Zm8.93-11.358-8.584 10.057-4.248-15.433 12.918 5.376h-.086Z"/>
  <path fill="#BBC8D7" d="m681.111 409.571.434-.52-22.542-22.889-2.514 2.861 24.709 20.548h-.087Zm-22.108-22.455 17.34 17.6-18.987-15.779 1.647-1.821ZM636.897 468.613l14.566-17.427-.434-.52-20.201 14.999 6.069 2.948Zm12.312-15.779-12.485 14.912-4.595-2.254 17.08-12.658ZM599.359 401.855l23.842-20.028-.347-.52-41.962 19.854.173.607h18.294v.087Zm21.415-18.814-21.675 18.207h-16.56l38.321-18.207h-.086ZM598.487 156.148l21.242-26.53-.347-.52-34.767 14.565 13.872 12.485Zm19.941-25.923L598.4 155.194l-12.571-11.271 32.599-13.698ZM650.164 568.927l24.016-32.253-34.42-10.057 10.404 42.223v.087Zm22.975-31.819-22.628 30.345-9.797-39.709 32.425 9.451v-.087ZM568.494 620.08l48.899-53.147-60.344-5.809 11.445 58.956Zm47.511-52.627-47.078 51.24-11.011-56.789 58.089 5.636v-.087ZM661.434 254.465l27.918-32.599-51.587-2.255 23.669 34.94v-.086Zm26.53-31.993-26.443 30.952-22.455-33.119 48.898 2.167Z"/>
  <path fill="#BBC8D7" d="m650.512 568.406 35.114-26.096-12.051-5.896-23.496 31.472.433.434v.086Zm33.813-26.01L651.9 566.499l21.848-29.218 10.577 5.115Z"/>
  <path fill="#BBC8D7" d="m674.61 537.542-27.223-30.605-7.63 20.461 34.853 10.144Zm-26.963-29.305 24.969 28.004-31.905-9.277 7.022-18.727h-.086Z"/>
  <path fill="#BBC8D7" d="m646.868 508.323 39.969-22.889-23.929-14.045-16.04 37.021v-.087Zm38.582-22.889-37.195 21.328 14.913-34.42 22.282 13.092Z"/>
  <path fill="#BBC8D7" d="m673.836 537.541 12.832-52.801-39.622 22.716 26.79 30.085Zm11.792-51.5-12.138 50.112-25.404-28.524 37.542-21.588ZM639.758 619.732l2.341-6.762-25.057-45.865-.607.261 23.409 52.366h-.086Zm1.56-6.762-1.647 4.942-19.334-43.35 21.068 38.408h-.087ZM608.289 539.879l18.467-18.64-14.652-13.265-3.815 31.905Zm17.513-18.554-16.646 16.734 3.468-28.698 13.178 11.964ZM639.673 311.515l70.574-13.266-6.763-4.595h-.173L639.5 310.908l.173.607Zm68.84-13.699-60.517 11.444 55.315-14.912 5.202 3.468Z"/>
  <path fill="#BBC8D7" d="m658.916 387.547.434-.693 50.719-89.301-70.834 13.352 19.681 76.642Zm49.853-89.041-49.593 87.307-19.074-74.388 68.667-12.919Z"/>
  <path fill="#BBC8D7" d="m639.677 311.515 65.025-17.513-30.865-7.977-34.42 24.97.26.607v-.087Zm62.424-17.513-60.863 16.386 32.686-23.669 28.177 7.283Z"/>
  <path fill="#BBC8D7" d="m638.89 312.122 35.374-25.664-12.919-33.466-22.542 59.13h.087Zm34.593-25.924-33.206 24.016 21.068-55.401 12.052 31.385h.086ZM689.004 222.471l-14.652-60.777-36.588 58.523 51.24 2.254Zm-14.913-59.129 14.133 58.435-49.246-2.167 35.113-56.182v-.086Z"/>
  <path fill="#BBC8D7" d="m675.219 163.34-17.34-22.368-32.513 2.254v.607l49.94 19.507h-.087Zm-17.687-21.675 15.693 20.201-46.385-18.12 30.692-2.081ZM638.982 220.479l-28.004-54.188-.607.173-.26 45.865 28.871 8.15Zm-28.004-52.714 26.704 51.673-26.964-7.629.26-44.044ZM663.602 472.254l-12.312-21.935-15.085 18.121 27.483 3.814h-.086Zm-12.398-20.808 11.184 19.941-24.97-3.468 13.699-16.473h.087ZM464.803 425.522h.606l9.191-38.754-16.3 13.438 6.416 25.23.087.086Zm8.756-36.934-8.41 35.461-5.982-23.583 14.392-11.964v.086ZM651.031 568.667l-20.201-31.386-9.19 24.276 29.391 7.196v-.086Zm-20.027-29.912 18.553 28.871-27.05-6.589 8.497-22.282Z"/>
  <path fill="#BBC8D7" d="m657.621 141.84 12.138-12.918-37.541-29.5646-.521.4335 25.837 42.0491h.087Zm11.184-12.831L657.707 140.8l-24.449-39.709 35.547 28.005v-.087ZM610.892 232.791l28.438-12.919-29.218-8.236.78 21.155Zm26.531-12.745-25.837 11.704-.78-19.247 26.617 7.543ZM625.628 522.108l22.542-14.566-14.132-8.323-8.41 22.889Zm21.241-14.566-19.941 12.918 7.457-20.288 12.484 7.37Z"/>
  <path fill="#BBC8D7" d="M610.89 232.27h.694l-.78-20.634-3.728.607 3.901 20.027h-.087Zm-.78-19.854.607 15.519-2.948-15.172 2.341-.347ZM649.992 568.319l.607-.26-10.231-41.616-9.884 11.531 19.508 30.345Zm-9.971-40.488 9.451 38.408-18.207-28.265 8.756-10.143ZM584.705 144.354l35.287-14.825-18.987-32.6862-16.3 47.5112Zm34.333-15.085-33.206 13.958 15.346-44.7369 17.86 30.7789Z"/>
  <path fill="#BBC8D7" d="m640.451 527.569 7.803-20.895-22.629 14.652 14.826 6.243Zm6.502-19.248-6.849 18.294-13.005-5.462 19.854-12.832ZM659.445 387.116l-19.508-75.949h-.607l-16.733 70.66 36.934 5.289h-.086Zm-19.855-74.475 18.988 73.695-35.201-5.029 16.3-68.666h-.087Z"/>
  <path fill="#BBC8D7" d="m657.015 389.372 2.601-2.948-36.674-5.202v.693l34.073 7.543v-.086Zm1.301-2.428-1.561 1.734-25.143-5.549 26.617 3.815h.087ZM607.592 320.964l32.686-9.624-41.616-39.535 9.017 49.072-.087.087Zm31.386-9.884-30.865 9.103-8.497-46.384 39.362 37.281ZM617.13 567.537l-8.15-29.045-.347.174-52.453 23.062 60.95 5.895v-.086Zm-8.583-28.178 7.716 27.397-57.396-5.548 49.766-21.849h-.086ZM625.104 143.836l32.599-2.254v-.607l-38.841-12.051 6.155 14.912h.087Zm30.778-2.774-30.345 2.081-5.462-13.179 35.807 11.098Z"/>
  <path fill="#BBC8D7" d="m658.397 141.841-26.443-43.0031-12.918 30.7781 39.361 12.225Zm-26.356-41.529 24.883 40.402-37.021-11.444 12.138-28.872v-.086ZM538.755 128.228l.607-.26-17.34-48.7255-5.895-.2601 22.715 49.2456h-.087Zm-17.253-48.3786 14.739 41.3556-19.074-41.529 4.422.1734h-.087ZM580.454 402.026l42.916-20.287v-.26l-15.433-62.078-27.483 82.712v-.087Zm42.136-20.721-41.009 19.421 26.27-79.07 14.739 59.649ZM611.753 509.275l22.802-9.364-2.688-34.42h-.607l-19.421 43.697-.086.087Zm22.108-9.797-20.808 8.583 18.294-41.183 2.601 32.6h-.087Z"/>
  <path fill="#BBC8D7" d="m626.407 521.845 8.41-22.715-23.062 9.45 14.652 13.352v-.087Zm7.197-21.588-7.543 20.374-13.179-11.964 20.635-8.497.087.087ZM606.986 212.937l3.729-.607.26-45.864h-.694l-3.381 46.471h.086Zm3.122-1.127-2.341.347 2.601-35.634-.174 35.287h-.086ZM599.274 401.854l57.743-12.485v-.693l-34.16-7.543h-.087l-23.756 20.027.26.607v.087Zm56.095-12.745-54.967 11.878L623.03 382l32.339 7.109ZM662.385 254.638l-23.843-35.2-28.091 12.744 51.934 22.456Zm-24.103-34.334 22.282 32.86-48.465-20.895 26.183-11.878v-.087Z"/>
  <path fill="#BBC8D7" d="m607.945 539.361 23.409-1.04-4.856-17.6-18.553 18.727v-.087Zm22.542-1.647-20.895.954 16.56-16.647 4.335 15.693Z"/>
  <path fill="#BBC8D7" d="m622.162 561.987 9.276-24.363-23.235 1.04 13.959 23.323Zm8.236-23.669-8.41 22.195-12.658-21.242 21.068-.953ZM638.372 220.567l36.501-58.436-64.678 3.901 28.177 54.448v.087Zm35.201-57.656-35.201 56.355-27.137-52.54 62.338-3.815Z"/>
  <path fill="#BBC8D7" d="m610.106 166.808 64.158-3.902v-.607l-49.073-19.16-15.085 23.755v-.086Zm62.597-4.509-61.297 3.728 14.132-22.195 47.252 18.467h-.087ZM456.216 509.968l56.095-59.563h-.607l-66.499-9.277v.433l11.011 68.407Zm54.707-59.13-54.274 57.656-10.664-66.672 64.938 9.016ZM616.524 567.884l5.982-6.502-13.439-22.542-.607.26 8.064 28.784Zm5.115-6.589-4.855 5.289-7.11-25.23 11.878 19.941h.087ZM606.21 444.856l.607-.174-7.369-43.263h-.694l-4.248 20.461 11.618 22.976h.086Zm-7.109-41.616 6.676 39.361-10.577-20.808 3.901-18.553Z"/>
  <path fill="#BBC8D7" d="m608.98 539.792 3.815-31.472-26.964 2.948 23.149 28.524Zm3.035-30.778-3.468 29.131-21.415-26.357 24.883-2.687v-.087ZM541.009 359.543l.52-.346-27.223-52.107-2.948 16.733h.086l29.565 35.72Zm-26.357-50.459 24.883 47.598-27.484-33.119 2.601-14.566v.087ZM610.799 166.897l15.432-24.189-28.35 12.918 12.918 11.358v-.087Zm13.698-22.715-13.785 21.675-11.618-10.144 25.403-11.531ZM622.683 381.652h.607l16.819-70.921-32.599 9.624 15.173 61.297Zm16.559-69.967-16.213 68.493-14.652-59.389 30.865-9.104Z"/>
  <path fill="#BBC8D7" d="m598.578 155.972 27.137-12.311-6.156-14.826-21.415 26.704.434.52v-.087Zm26.27-12.658-25.317 11.531 19.855-24.71 5.462 13.266v-.087ZM631.523 466.012l20.634-15.345-46.644-6.503 26.096 21.762-.086.086Zm18.9-14.912-18.9 14.045-23.93-19.941 42.744 5.896h.086Z"/>
  <path fill="#BBC8D7" d="m651.555 451.272 5.809-63.205-51.5 56.876 45.691 6.329Zm4.942-61.297-5.549 60.516-43.783-6.069 49.332-54.447ZM585.312 144.531l16.213-47.2517-43.263 5.5487 27.05 41.616v.087Zm15.26-46.4714L585.139 142.97l-25.75-39.622 41.183-5.2884ZM619.474 130.309l13.005-30.9515-27.917-4.335 14.912 35.2865Zm12.052-30.4313-12.052 28.6973-13.871-32.6855 25.923 3.9882Z"/>
  <path fill="#4995EC" d="m632.395 99.9657 2.948-34.0731-30.865 29.7381 27.917 4.335Zm2.081-32.3391-2.688 31.5588-25.923-3.9882 28.611-27.6573v.0867Z"/>
  <path fill="#BBC8D7" d="m531.473 370.904 10.404-11.705-20.548-6.329 10.144 18.034Zm9.19-11.358-9.103 10.231-8.844-15.78 17.947 5.549ZM570.229 666.464h.347l39.882-7.63-42.136-40.229 1.907 47.859Zm38.842-8.063-38.235 7.283-1.821-45.518 39.969 38.235h.087ZM511.621 450.924l.173-.606-46.731-25.23-20.288 16.646 66.846 9.19Zm-46.385-25.056 44.651 24.189-63.465-8.756 18.814-15.346v-.087ZM639.758 311.776l22.195-58.436-63.464 19.247 41.269 39.102v.087Zm21.155-57.396-21.415 56.182-39.709-37.628 61.124-18.554Z"/>
  <path fill="#BBC8D7" d="m598.66 273.278 63.725-19.334-51.413-22.195-12.398 41.529h.086Zm61.817-19.42-60.863 18.467 11.791-39.622 49.072 21.155ZM427.088 735.215l16.473-80.718-16.734-5.115-.346 85.746h.693l-.086.087Zm15.692-80.198-15.606 76.817.347-81.498 15.259 4.681ZM607.071 212.587h.694l3.295-46.298-13.092-11.444 9.103 57.742Zm3.295-46.038-3.121 43.003-8.323-53.06 11.444 10.057ZM609.764 659.092l.26-.26 30.432-40.315h-.694l-71.874.606 41.963 40.056-.087-.087Zm29.305-39.969-29.391 39.015-40.229-38.408 69.62-.607ZM580.806 401.766l.433-.52-40.315-42.656-.26 22.108h.173l39.969 21.155v-.087Zm-39.275-41.529 37.801 40.056-38.061-20.028.26-20.028ZM577.767 436.187l17.34-14.046-.346-.52-18.814 12.311 1.907 2.255h-.087Zm11.792-10.318-11.705 9.451-.954-1.127 12.659-8.237v-.087Z"/>
  <path fill="#BBC8D7" d="m569.446 471.649 37.888-27.05-29.738-9.364-8.15 36.328v.086Zm36.414-26.79-35.374 25.23 7.63-33.987 27.744 8.757ZM547.336 421.016l34.42-19.595-41.096-21.588 6.763 41.183h-.087Zm33.033-19.508-32.513 18.467-6.416-38.928 38.842 20.461h.087ZM542.224 359.979l-30.259-36.5-.607.346 10.318 29.825 20.461 6.329h.087Zm-29.565-34.593 27.657 33.379-18.033-5.548-9.624-27.744v-.087ZM567.886 619.732l72.307-.607-23.495-52.54-48.812 53.147Zm71.354-1.3-69.794.606 47.165-51.239 22.629 50.633ZM548.636 163.604l37.455-19.854-47.512-16.126 10.057 35.98Zm35.807-19.767-35.373 18.814-9.45-33.987 44.823 15.26v-.087ZM555.225 522.714h.26l31.732-11.185-47.165-26.53 15.086 37.715h.087Zm30.431-11.271-29.998 10.49-14.219-35.373 44.217 24.883Z"/>
  <path fill="#BBC8D7" d="m607.165 445.291-12.138-23.929-17.947 14.479 30.085 9.45Zm-12.398-22.888 11.011 21.761-27.397-8.583 16.299-13.178h.087Z"/>
  <path fill="#BBC8D7" d="m575.949 434.715 19.421-12.744-14.652-21.415-4.769 34.159Zm18.467-12.918-17.6 11.531 4.335-31.038 13.265 19.42v.087Z"/>
  <path fill="#BBC8D7" d="m576.64 434.54 4.768-33.727-34.593 19.681 29.825 14.046Zm3.901-32.426-4.422 31.472-27.83-13.092 32.252-18.38ZM586.266 511.875l26.877-2.948-43.004-38.322-.52.347 16.647 40.836v.087Zm25.316-3.468-24.883 2.687-15.953-39.101 40.836 36.327v.087Z"/>
  <path fill="#BBC8D7" d="m612.532 509.277 19.507-44.044-62.944 5.376 43.35 38.668h.087Zm18.467-43.263-18.728 42.136-41.529-37.021 60.257-5.115Z"/>
  <path fill="#BBC8D7" d="m568.749 471.302 63.638-5.462-25.75-21.588-.174.173-37.627 26.877h-.087Zm61.904-5.982-59.563 5.115 35.373-25.316 24.19 20.201Z"/>
  <path fill="#4995EC" d="m537.713 130.051 1.734-1.82v-.174l-22.542-48.8119-.607.2601 21.415 50.5458Zm.954-1.994-.78.781-12.572-29.7386 13.352 28.9576Z"/>
  <path fill="#BBC8D7" d="m478.063 586.439-15.432-47.511h-.607l-3.121 32.599 19.16 14.826v.086Zm-15.519-45.777 14.219 43.957-17.167-13.352 2.948-30.605ZM599.273 273.451l12.311-41.442-68.58-8.757 56.269 50.199Zm11.444-40.922-11.791 39.708-53.841-48.031 65.719 8.323h-.087Z"/>
  <path fill="#BBC8D7" d="m611.669 232.617-3.988-20.461-63.638 11.271v.694l67.626 8.583v-.087Zm-4.508-19.767 3.728 18.987-64.505-8.236 60.863-10.751h-.086ZM541.962 380.958l-10.664-11.357-1.561 8.843 12.225 2.514Zm-10.231-9.97 8.324 8.843-9.537-1.994 1.213-6.936v.087ZM584.969 144.009l.52-.347-26.703-41.096-2.601 4.682 28.784 36.761Zm-26.097-40.229 22.022 33.9-23.929-30.518 1.907-3.382ZM587.132 512.224l-17.08-41.876-29.998 15.346 47.078 26.443v.087Zm-17.34-40.923 16.039 39.449-44.303-24.97 28.264-14.479ZM557.139 561.989l.433-.174 52.107-22.888-54.621-17.08 2.081 40.142Zm50.632-22.976-50.026 21.935-1.994-38.234 52.02 16.213v.086Z"/>
  <path fill="#BBC8D7" d="m609.679 539.623-23.149-28.524h-.26l-31.993 11.184 55.315 17.34h.087Zm-23.323-27.744 21.415 26.443-51.326-16.039 29.825-10.404h.086ZM607.857 213.368l-9.104-58.003-50.633 7.63 59.823 50.459-.086-.086Zm-9.711-57.309 8.757 55.661-57.309-48.378 48.552-7.283Z"/>
  <path fill="#BBC8D7" d="m548.894 163.429 50.286-7.543-13.872-12.485-36.588 19.421.174.607Zm48.812-7.976-46.992 7.022 34.507-18.293 12.485 11.271ZM542.136 455.26l36.241-19.508-1.821-2.167-.26.173-34.42 20.982.347.607-.087-.087Zm35.201-19.681L552.8 448.757l23.583-14.305.954 1.127ZM517.341 79.7618l-24.71-33.9864-.607.3468 12.485 31.9923 12.832 1.6473Zm-23.756-31.4721 22.282 30.6051-10.838-1.3872-11.444-29.2179Z"/>
  <path fill="#BBC8D7" d="m569.795 471.213.26-.607-28.698-16.299 2.428 7.803h.173l25.75 9.103h.087Zm-27.224-15.519 24.016 13.612-22.109-7.717-1.821-5.895h-.086ZM586.181 144.44l-29.565-37.801-18.033 21.588 47.685 16.213h-.087Zm-29.651-36.761 27.743 35.374-44.65-15.173 16.907-20.288v.087ZM581.149 402.027l27.311-82.278-67.713 39.449 40.402 42.829Zm26.184-80.804-26.444 79.504-39.101-41.356 65.458-38.148h.087Z"/>
  <path fill="#BBC8D7" d="m541.526 455.696 35.547-21.675-29.825-13.959-5.722 35.721v-.087Zm34.16-21.588-33.293 20.288 5.376-33.38 27.917 13.092Z"/>
  <path fill="#BBC8D7" d="m570.142 471.39 8.15-36.328-37.021 19.942 28.871 16.386Zm7.196-35.027-7.629 33.986-27.051-15.345 34.68-18.641Z"/>
  <path fill="#4995EC" d="m444.25 58.1756 35.98-25.8366L447.024.3467l-2.774 57.7422v.0867Zm34.94-25.8366-34.246 24.5361 2.687-54.9678L479.19 32.339Z"/>
  <path fill="#BBC8D7" d="m537.799 226.547 6.763-2.601-5.896-17.513h-.607l-.173 20.201-.087-.087Zm5.896-3.035-5.202 1.995.173-17.08 5.115 15.085h-.086ZM511.093 326.859l.954-3.121.78-15.086h-.607l-1.82 18.034.693.173ZM559.733 104.128l-21.415-40.0557-17.079 15.5193 38.494 24.4494v.087Zm-21.675-38.9286 19.855 37.0206-35.634-22.6284 15.779-14.3922ZM547.248 420.58l.606-.174-6.589-40.228-11.704-2.428 17.687 42.917v-.087Zm-6.503-39.882 6.069 36.934-16.039-39.015 10.057 2.081h-.087Z"/>
  <path fill="#4995EC" d="m521.846 79.937 16.559-15.0857-.433-.5202-22.369 15.2592 6.243.26v.0867Zm12.571-12.3114-12.832 11.7046-3.988-.1735 16.82-11.5311Z"/>
  <path fill="#BBC8D7" d="m540.401 486.386 30.432-15.606-26.877-9.45-3.468 24.97-.087.086Zm28.698-15.432-27.917 14.305 3.208-22.889 24.709 8.67v-.086ZM543.867 224.033h.26l63.291-11.184v-.694l-69.707-6.069 6.069 18.034.087-.087Zm60.95-11.445L544.3 223.253l-5.548-16.473 66.152 5.808h-.087Z"/>
  <path fill="#BBC8D7" d="m608.375 212.937-59.736-50.459-10.838 44.217 70.574 6.155v.087Zm-59.39-49.246 57.309 48.379-67.713-5.896 10.318-42.396.086-.087Z"/>
  <path fill="#4995EC" d="m601.008 98.0591 4.768-2.6877-67.539-31.1253-.26.6069 63.031 33.2061Zm3.294-2.601-3.381 1.8207-51.586-27.1371 54.881 25.3164h.086Z"/>
  <path fill="#4995EC" d="M558.611 103.519h.26l43.264-5.6354-64.765-34.0731 21.241 39.7085Zm41.27-5.9822-40.923 5.2892-20.028-37.3682 60.951 32.079ZM537.544 129.616l.607-.347-21.328-50.2858-12.745-1.6473 33.466 52.1931v.087ZM516.39 79.6768l19.594 46.2982-30.519-47.6854 10.925 1.3872Z"/>
  <path fill="#4995EC" d="m605.17 95.8049 30.518-29.3913-97.45-2.1675-.174.6069 67.106 30.9519Zm28.871-28.7844-29.044 28.0041-65.285-30.0849 94.242 2.0808h.087Z"/>
  <path fill="#BBC8D7" d="m548.551 163.256.607-.174-9.884-35.547-1.82 1.908 11.097 33.899v-.086Zm-9.623-34.42 5.548 19.767-6.242-19.074.694-.693ZM608.375 321.397l-8.93-48.813h-.26l-63.811-8.496 73.001 57.395v-.086Zm-9.537-48.206 8.583 46.645-69.707-54.794 61.211 8.149h-.087Z"/>
  <path fill="#BBC8D7" d="m536.845 264.524 7.717-41.356-6.763 2.601v.173l-1.561 38.495h.694l-.087.087Zm6.85-40.229-6.59 35.634 1.388-33.64 5.202-1.994Z"/>
  <path fill="#BBC8D7" d="m600.134 273.277-56.268-50.199-7.717 41.703 64.072 8.496h-.087Zm-55.835-48.985 53.841 48.032-61.21-8.15 7.369-39.882Z"/>
  <path fill="#4995EC" d="m556.7 107.683 2.601-4.682-37.368-23.7559-.347.5202L556.7 107.596v.087Zm1.734-4.422-1.908 3.381-29.478-23.4087 31.386 20.0277Z"/>
  <path fill="#BBC8D7" d="m541.354 381.218.26-22.802-10.49 11.878 10.23 10.924Zm-.433-20.981-.26 19.334-8.67-9.277 8.93-10.057Z"/>
  <path fill="#4995EC" d="m538.929 128.75 18.12-21.675-35.981-28.5242 17.861 50.1992Zm17.166-21.588-16.906 20.201-16.733-46.9048 33.639 26.7038Z"/>
  <path fill="#BBC8D7" d="m541.009 486.386 3.468-25.056-24.45 11.184 20.982 13.872Zm2.687-24.016-3.208 22.889-19.074-12.658 22.282-10.231Z"/>
  <path fill="#BBC8D7" d="m520.892 472.861 23.67-10.838-2.428-7.543-21.588 17.861.346.52Zm22.803-11.184-20.808 9.537 18.9-15.606 1.908 6.069ZM521.678 353.564l.607-.26-10.577-30.605-1.301 4.075 11.271 26.79Zm-9.97-28.784 6.676 19.247-7.283-17.253.607-1.994Z"/>
  <path fill="#BBC8D7" d="M541.962 455.349v-.694l-30.952-5.982.347 2.167 30.605 4.422v.087Zm-30.172-5.809 16.04 3.121-15.953-2.341v-.78h-.087ZM512.049 323.824l2.861-16.213-2.688.781-.78 15.346h.694l-.087.086Zm1.994-15.172-1.734 9.797.52-9.364 1.214-.347v-.086ZM522.63 354.085l-11.618-27.397-.607.173 1.995 22.715 10.317 4.595-.087-.086Zm-11.358-25.23 10.144 23.929-8.41-3.728-1.734-20.201ZM512.048 590.342h.087l45.43-28.611-.26-.607-60.863 24.536 15.519 4.682h.087Zm42.049-27.137-42.136 26.443-13.438-4.075 55.574-22.368Z"/>
  <path fill="#BBC8D7" d="m504.686 369.082 17.947-15.78-10.144-4.508-8.323 19.941.52.347Zm16.733-15.606-16.039 14.132 7.542-17.947 8.584 3.815h-.087ZM542.223 455.347l5.809-35.72-37.367 29.651 31.645 6.069h-.087Zm4.856-34.159-5.376 33.379-29.478-5.635 34.94-27.658-.086-.086ZM497.313 631.352l72.394-11.878-57.916-29.998-14.478 41.876Zm70.313-12.138-69.36 11.357 13.872-40.055L567.54 619.3l.086-.086ZM541.095 359.807l67.713-39.449-95.024-12.658 27.224 52.107h.087Zm65.719-39.015-65.459 38.148-26.357-50.373 91.816 12.312v-.087Z"/>
  <path fill="#BBC8D7" d="m609.069 321.052-72.654-57.049-22.456 44.39 95.024 12.745.086-.086Zm-72.394-56.009 70.053 55.055L515 307.873l21.675-42.83ZM497.659 585.918l60.17-24.189-2.081-40.229-.52.607-57.915 63.291.346.52Zm59.477-24.623-58.35 23.496 56.442-61.644 1.994 38.148h-.086Z"/>
  <path fill="#BBC8D7" d="m569.098 619.993-11.445-59.043-.433.26-45.951 28.785 57.829 29.998Zm-11.878-58.002 11.011 56.788-55.575-28.784 44.564-27.918v-.086Z"/>
  <path fill="#BBC8D7" d="m498.09 631.089 14.306-41.269-15.26-4.595.347 45.777h.607v.087Zm13.438-40.749-13.438 38.842-.26-42.917 13.698 4.162v-.087ZM504.768 368.994l8.237-19.68-1.908-22.543h-.693l-6.329 42.05.607.173h.086Zm7.63-19.767-7.196 17.08 5.462-36.674 1.647 19.594h.087Z"/>
  <path fill="#BBC8D7" d="m570.918 666.635-1.907-47.598-72.308 11.791 74.215 35.807Zm-2.514-46.818 1.82 45.778-71.267-34.42 69.447-11.358ZM532.08 370.644l-10.057-17.774-18.467 16.3 28.524 1.474Zm-10.23-16.733 9.016 16.039-25.663-1.387 16.647-14.652Z"/>
  <path fill="#4995EC" d="m516.562 79.7664 22.369-15.2592-47.512-19.2474 25.143 34.5066Zm20.981-15.0858-20.808 14.2188-23.409-32.1657 44.131 17.9469h.086Z"/>
  <path fill="#BBC8D7" d="m520.632 473.034 22.108-18.293-31.645-4.595 9.537 22.888Zm20.548-17.86-20.288 16.733-8.757-20.981 29.045 4.161v.087ZM462.021 539.189l.607-.173-5.982-29.999-6.676-2.08 11.964 32.252h.087Zm-5.896-29.651 5.116 25.576-10.057-27.137 5.028 1.561h-.087ZM471.562 230.624l66.759-23.843v-.607l-72.741-7.369 5.982 31.819Zm65.199-24.016-64.678 23.149-5.723-30.172 70.314 7.109.087-.086ZM367.351 268.684l15.172-6.763-.26-.607-12.398 3.035-2.514 4.422v-.087Zm11.618-5.896-9.971 4.509 1.387-2.428 8.584-2.081Z"/>
  <path fill="#BBC8D7" d="m538.406 207.127 10.837-44.391-45.171 8.757 34.334 35.72v-.086Zm9.97-43.61-10.317 42.223-32.599-33.987 42.916-8.323v.087Z"/>
  <path fill="#BBC8D7" d="m503.986 172.099 45.257-8.757-11.271-34.68-33.986 43.35v.087Zm44.39-9.277-42.83 8.236 32.079-41.009 10.664 32.773h.087ZM530.427 378.618l1.56-8.67h-.347l-27.05-1.473-.173.607 26.096 9.45-.086.086Zm.693-7.976-1.214 7.11-23.235-8.41 24.449 1.3ZM511.182 449.712l36.934-29.217-52.02-39.362 15.086 68.666v-.087Zm35.807-29.217-35.373 28.09-14.479-65.805 49.852 37.801v-.086Z"/>
  <path fill="#BBC8D7" d="m548.38 421.447-17.947-43.697-34.593 3.902 52.54 39.795Zm-18.381-42.917 16.82 40.923-49.245-37.281 32.425-3.642Z"/>
  <path fill="#BBC8D7" d="m496.008 382.345 34.16-3.815v-.607l-25.837-9.363-8.323 13.872v-.087Zm32.686-4.335-31.385 3.468 7.282-12.225 24.103 8.757Z"/>
  <path fill="#BBC8D7" d="m465.406 425.699 32.079-44.303-23.669 6.068-9.017 37.975.607.26Zm30.432-43.263-29.998 41.529 8.496-35.98 21.415-5.549h.087ZM511.013 327.727l1.907-19.248h-.087l-37.714-40.489-.52.434 36.414 59.303Zm1.213-18.988-1.647 16.993-33.64-54.794 35.374 37.801h-.087ZM539.1 206.869l-34.247-35.721-39.795 28.178 74.042 7.456v.087Zm-34.334-34.854 32.6 33.987-70.487-7.11 37.887-26.877Z"/>
  <path fill="#BBC8D7" d="M474.508 268.685h.346l62.858-3.902-66.239-35.113 3.035 39.015Zm60.776-4.422-60.169 3.728-2.948-37.194 63.117 33.466Z"/>
  <path fill="#BBC8D7" d="m436.971 261.052 12.138-3.034 22.976-27.571-.434-.433-34.94 30.518.26.607v-.087Zm11.705-3.641-10.577 2.601 30.691-26.877-20.201 24.189.087.087ZM497.488 631.087h.607l-.26-45.777-15.346 1.213 14.999 44.564Zm-.347-45.084.26 42.917-14.045-41.79 13.785-1.127ZM450.497 507.715l.26-.607-28.524-23.409.433 17.427h.26l27.571 6.502v.087Zm-27.571-22.542 26.357 21.588-25.923-6.069-.434-15.519Z"/>
  <path fill="#BBC8D7" d="m451.012 508.149-5.202-67.799-23.669 44.217 28.784 23.582h.087Zm-5.636-65.545 4.855 63.984-27.223-22.281 22.282-41.79.086.087Z"/>
  <path fill="#4995EC" d="m538.061 64.9388.26-.6069-57.482-35.6337-.433.4336 11.704 17.1665h.087l45.777 18.6405h.087ZM481.88 30.0854l52.8 32.7726-42.136-17.0798-10.664-15.6928Z"/>
  <path fill="#BBC8D7" d="m536.843 265.04 1.647-39.362-67.799 4.248 66.152 35.114Zm.954-38.669-1.561 37.628-63.204-33.466 64.765-4.075v-.087ZM474.162 388.069l22.716-5.809 7.89-13.178-.434-.434-30.345 18.814.26.607h-.087Zm22.282-6.416-20.287 5.202 27.31-16.993-7.023 11.705v.086Z"/>
  <path fill="#BBC8D7" d="m514.562 308.654 22.456-44.477-63.031 3.901 40.489 40.576h.086Zm21.415-43.784-21.588 42.657-38.842-38.929 60.343-3.728h.087Z"/>
  <path fill="#BBC8D7" d="m512.4 308.998 2.688-.781-40.055-40.142-.521.434 37.801 40.489h.087Zm1.474-1.128-1.214.347-23.669-25.316 24.883 24.883v.086ZM474.247 387.984l30.432-18.901 6.329-42.309-.607-.26-36.674 60.95.433.433.087.087Zm29.825-19.334-29.045 18.033 35.114-58.349-6.069 40.316ZM471.825 230.533l66.586-4.161.173-20.375-66.846 23.929.174.607h-.087Zm65.892-4.855-63.638 3.988 63.725-22.802-.174 18.814h.087ZM466.45 595.371l17.514-8.67-6.589-1.56-11.271 9.71.346.52Zm15.606-8.496-13.525 6.676 9.017-7.717 4.422 1.041h.086ZM465.931 199.668l39.709-28.177-68.233-17.167 28.611 45.258-.087.086Zm38.148-27.83-37.888 26.877-27.31-43.264 65.285 16.387h-.087ZM467.489 129.268l37.888-51.7599-36.674-3.0345-1.214 54.7944Zm36.674-51.153-35.98 49.072 1.127-51.9331 34.766 2.8611h.087Z"/>
  <path fill="#BBC8D7" d="m505.724 172.186-37.802-44.477-30.518 27.31 68.32 17.167Zm-37.888-43.523 36.067 42.396-65.112-16.386 29.131-26.01h-.086Z"/>
  <path fill="#4995EC" d="M469.307 75.0812 492.803 45.95l-13.872-9.9705L468.7 74.8211l.607.2601Zm22.542-28.9578-22.108 27.3972 9.623-36.414 12.485 9.0168Z"/>
  <path fill="#4995EC" d="M505.292 78.2031 492.46 45.3438l-24.016 29.8248 36.848 3.0345Zm-13.005-31.5589 12.051 30.7786-34.593-2.8611 22.542-27.9175Z"/>
  <path fill="#BBC8D7" d="m504.858 172.187 33.726-43.09-71.354-1.214 37.714 44.304h-.086Zm32.339-42.397-32.339 41.356-36.154-42.57 68.58 1.214h-.087Z"/>
  <path fill="#4995EC" d="m538.405 129.791-33.639-52.54-37.541 51.326 71.18 1.214Zm-33.639-51.4129 32.425 50.7199-68.666-1.214 36.241-49.5059Z"/>
  <path fill="#BBC8D7" d="m462.197 539.796.434-.52 58.435-66.499-.433-.52-64.592 36.847 6.156 30.692Zm57.049-65.979-56.615 64.505-5.809-28.958 62.424-35.633v.086ZM511.879 449.714l-15.086-68.666-32.166 44.477 47.252 24.103v.086Zm-15.433-67.019 14.479 65.805-45.344-23.148 30.865-42.657Z"/>
  <path fill="#BBC8D7" d="m512.049 451.185-.347-2.341h-.173l-46.298-23.756-.347.607 47.078 25.403.087.087Zm-.954-1.908v.694L490.374 438.7l20.721 10.577ZM462.46 539.363l93.463-16.82-14.999-37.281-.347.26-78.464 53.234.261.607h.086Zm92.596-17.34-91.122 16.386 76.816-52.107 14.306 35.721Z"/>
  <path fill="#BBC8D7" d="m462.542 539.36 78.811-53.493-20.722-13.699-.173.26-58.436 66.499.434.52.086-.087Zm77.683-53.493-75.862 51.499 56.528-64.331 19.334 12.832ZM446.676 588l9.797-11.878-11.185-14.219L446.676 588Zm8.93-11.878-8.41 10.144-1.214-22.369 9.624 12.138v.087Z"/>
  <path fill="#BBC8D7" d="m482.749 587.132 15.346-1.214-35.547-47.078-.607.347 20.721 47.945h.087Zm14.132-1.821-13.699 1.127-19.42-44.997 33.119 43.87Z"/>
  <path fill="#BBC8D7" d="m483.523 587.306-20.894-48.378-.607.26 15.172 46.644 6.329 1.474Zm-18.64-41.616 17.513 40.663-4.681-1.128-12.832-39.535Z"/>
  <path fill="#BBC8D7" d="m497.486 586.178.26-.26 58.609-64.071-94.589 16.993 35.72 47.338Zm57.049-63.291-56.962 62.251-34.593-45.865 91.555-16.473v.087ZM456.559 509.537l64.591-36.848-9.45-22.628-55.575 58.956.434.52Zm63.724-37.108-62.164 35.46 53.321-56.615 8.843 21.155ZM456.046 576.643l3.728-5.289-13.958-8.756-.434.52 10.664 13.525Zm2.775-5.115-2.775 3.988-8.93-11.358 11.705 7.37Z"/>
  <path fill="#BBC8D7" d="m466.963 595.717-10.924-20.288-9.711 11.791 20.635 8.497Zm-11.011-19.074 9.537 17.773-18.034-7.456 8.497-10.317ZM459.511 572.047l3.295-34.16-17.687 25.143 14.392 9.017Zm2.341-31.733-2.948 30.605-12.918-8.063 15.866-22.542Z"/>
  <path fill="#BBC8D7" d="m466.186 595.63 11.877-10.144-22.802-10.057 10.925 20.288v-.087Zm10.664-9.971-10.491 8.93-9.537-17.86 20.028 8.844v.086Z"/>
  <path fill="#BBC8D7" d="m477.284 585.832.347-.607-18.467-14.305-3.642 5.202 21.762 9.624v.086Zm-17.947-13.958 15.78 12.224-18.554-8.236 2.774-3.988ZM456.82 509.708l-10.924-68.232h-.693l5.028 66.238 6.589 2.081v-.087Zm-10.317-60.256 9.537 59.303-5.115-1.561-4.422-57.742ZM475.2 268.857l-3.121-39.449-23.756 28.525 26.79 11.01.087-.086Zm-3.641-37.801 2.861 36.76-24.97-10.23 22.109-26.53Z"/>
  <path fill="#4995EC" d="m444.77 57.8279 34.767-21.1548.693-5.0286-35.72 25.5765.347.5202-.087.0867Zm34.16-21.5016-26.877 16.3863 27.31-19.5075-.433 3.2079v-.0867Z"/>
  <path fill="#BBC8D7" d="m437.143 260.968 35.027-30.605-6.069-32.253-29.478 62.511.52.347Zm34.333-30.865-33.553 29.391 27.918-59.216 5.635 29.825ZM417.203 617.652l30.345-30.692-30.258-11.185v41.877h-.087Zm29.044-30.345-28.437 28.784v-39.275l28.437 10.491Z"/>
  <path fill="#4995EC" d="m469.223 75.4276 10.491-39.6219-35.721 21.7617 25.23 17.8602Zm9.364-38.2347-9.797 37.1076-23.669-16.7331 33.466-20.3745Z"/>
  <path fill="#BBC8D7" d="m422.927 484.655 23.149-43.263-14.132-8.15-9.624 51.24.607.26v-.087Zm22.195-43.003-21.761 40.836 9.017-48.205 12.744 7.369ZM437.924 155.365l30.605-27.397-51.413-13.785 20.808 41.095v.087Zm29.218-27.05-29.044 26.01-19.768-39.015 48.812 13.091v-.086ZM419.366 422.318l20.808-5.896v-.693l-20.548.173-.26 6.416Zm18.294-5.896-17.601 4.942.174-4.855h17.34l.087-.087ZM443.903 623.545l3.468-37.367-30.518 30.778 27.05 6.589Zm2.601-35.547-3.208 34.68-25.143-6.069 28.351-28.611Z"/>
  <path fill="#BBC8D7" d="m443.473 655.281.52-33.293-17.34 28.091 16.82 5.202Zm-.26-30.865-.434 29.998-15.172-4.682 15.606-25.316ZM430.636 430.901l10.317-15.346-21.848 6.155 11.618 9.191h-.087Zm8.757-14.219-8.844 13.265-9.97-7.89 18.9-5.375h-.086ZM474.774 268.682l.173-.607-26.01-10.664-12.138 3.035v.607l37.888 7.629h.087Zm-25.837-10.577 22.629 9.277-33.033-6.59 10.491-2.601-.087-.086Z"/>
  <path fill="#BBC8D7" d="m443.215 623.633 24.883-10.317-21.415-27.05-3.468 37.367Zm23.842-10.664-23.062 9.624 3.208-34.68 19.854 25.056ZM465.582 426.045l-6.676-26.184-19.507 16.387 26.096 9.797h.087Zm-7.023-24.97 6.069 23.929-23.842-8.93 17.773-14.999Z"/>
  <path fill="#BBC8D7" d="m445.376 442.085 20.461-16.733-26.097-9.797 5.722 26.53h-.086Zm19.16-16.473-18.727 15.259-5.202-24.276 23.929 8.93v.087Z"/>
  <path fill="#4995EC" d="m468.179 128.662 1.214-54.4472-52.367 40.7492 51.153 13.698Zm.52-53.06-1.214 52.193-49.072-13.091 50.199-39.102h.087Z"/>
  <path fill="#BBC8D7" d="m404.2 551.239 9.71-16.559v-.174l-10.491-23.582-.606.173 1.387 40.142Zm8.93-16.559-8.323 14.305-1.301-36.154 9.624 21.849ZM432.113 434.456l8.324-18.207-.607-.347-9.711 14.479 1.994 4.075Zm5.983-14.739-6.069 13.179-1.214-2.428 7.196-10.751h.087ZM445.721 563.289l16.907-24.016-.434-.433-28.871 19.854 12.398 4.595Zm15.26-22.889-15.52 22.109-10.75-3.988 26.27-18.121ZM403.5 296.426l13.872-31.038-14.999 1.907.52 29.045h.607v.086Zm12.832-30.085-12.745 28.611-.434-26.963 13.265-1.648h-.086Z"/>
  <path fill="#BBC8D7" d="m416.852 537.194 8.843-17.6-.52-.347-12.051 15.519 3.815 2.515-.087-.087Zm6.762-14.912-7.022 13.958-2.601-1.647 9.623-12.311ZM406.886 380.007l.954-16.733-2.514-.26.953 16.993h.694-.087Zm.26-16.126-.607 10.144-.52-10.231h1.127v.087ZM446.076 442.169l-5.809-27.051-8.583 18.814 14.392 8.323v-.086Zm-6.069-24.97 5.029 23.669-12.572-7.283 7.456-16.386h.087ZM462.806 539.36l-12.138-32.686-23.496 32.079 35.634.607Zm-12.312-31.299 11.358 30.605-33.38-.52 22.022-30.085Z"/>
  <path fill="#BBC8D7" d="m433.85 559.126 29.565-20.375-35.98-.606 6.415 20.981Zm27.484-19.768-27.05 18.727-5.896-19.247 33.033.52h-.087Z"/>
  <path fill="#BBC8D7" d="M445.636 563.204v-.607l-11.618-4.335-8.063 4.855 19.594.173.087-.086Zm-11.531-4.249 9.623 3.555-15.346-.173 5.723-3.468v.086Z"/>
  <path fill="#BBC8D7" d="m447.286 588.085-1.387-25.577-19.508-.173 20.895 25.75Zm-1.994-24.883 1.214 22.889-18.641-23.062 17.427.173Z"/>
  <path fill="#4995EC" d="m417.982 115.051 51.673-40.2287-25.143-17.7735-26.963 57.5692.52.433h-.087Zm50.546-40.2287-49.852 38.8417 26.096-55.6615 23.756 16.8198Z"/>
  <path fill="#BBC8D7" d="m426.822 563.29 7.629-4.595-6.242-20.288h-.694l-.693 24.883Zm6.849-4.855-6.156 3.641.607-21.588 5.549 17.947ZM417.198 616.957l.607-.173v-41.182l-14.566 9.276 13.872 32.079h.087Zm0-40.055v38.321l-13.179-30.084 13.179-8.324v.087Z"/>
  <path fill="#BBC8D7" d="m427.691 539.363 23.236-31.732-.434-.521-25.49 12.138 2.601 20.115h.087Zm21.935-31.039-21.415 29.391-2.341-17.946 23.843-11.358-.087-.087ZM420.411 60.3437l24.276-2.5143v-.6936l-30.866-5.8956 6.676 9.0168-.086.0867Zm21.935-2.9478-21.589 2.2542-5.462-7.3695 27.051 5.202v-.0867ZM431.856 433.932l.52-.346-1.647-3.382-10.751-8.583-.434.52 12.312 11.791Zm-1.561-3.294.78 1.561-5.895-5.636 5.115 4.075Z"/>
  <path fill="#BBC8D7" d="m425.091 519.939.433-.173 26.097-12.485-28.958-6.762 2.428 19.42Zm24.536-12.398-23.929 11.445-2.254-17.6 26.183 6.155ZM403.415 296.512l34.507-36.327-21.328 5.375v.173l-13.699 30.519.52.347v-.087Zm32.426-35.2-31.645 33.292 12.744-28.611 18.814-4.681h.087Z"/>
  <path fill="#4995EC" d="M444.943 57.9156 447.718 0l-33.727 52.02 30.952 5.8956Zm1.994-55.488-2.687 54.7077-29.218-5.5488 31.905-49.1589Z"/>
  <path fill="#BBC8D7" d="m418.151 576.64-13.872-27.658-4.335 26.271 18.207 1.387Zm-13.525-25.49 12.398 24.796-16.299-1.214 3.814-23.582h.087Z"/>
  <path fill="#4995EC" d="m380.005 50.3729 19.334-28.8711-38.322-7.9764 19.074 36.8475h-.086Zm18.207-28.4376-18.121 27.1371-17.946-34.68 36.067 7.5429Z"/>
  <path fill="#BBC8D7" d="m419.628 416.593 20.461-.174v-.606l-20.461-6.33v7.197-.087Zm18.38-.78-17.687.173v-5.636l17.687 5.463Z"/>
  <path fill="#BBC8D7" d="m440.173 416.505 18.814-15.779-.26-.607-39.969 9.797 21.502 6.589h-.087Zm17.254-15.432L440 415.725l-18.814-5.809 36.241-8.843ZM373.765 290.099l9.19-29.131-15.172 6.762 5.982 22.369Zm8.063-27.917-8.063 25.576-5.289-19.594 13.265-5.982h.087ZM427.082 650.683l17.08-27.744-27.137-6.589 10.057 34.333Zm16.04-27.311-15.78 25.663-9.277-31.732 25.057 6.069ZM428.295 538.928l-2.688-20.548-9.363 18.64 12.051 1.908Zm-3.035-18.294 2.341 17.514-10.23-1.648 7.976-15.866h-.087ZM399.689 331.019l3.815-34.94-4.769-2.341.261 37.195h.693v.086Zm3.121-34.506-3.208 28.871-.26-30.519 3.468 1.648ZM447.98 587.825l-20.808-25.663-10.057 14.219 30.865 11.444Zm-20.808-24.622 18.728 23.148-27.744-10.317 9.016-12.831Z"/>
  <path fill="#BBC8D7" d="M426.825 562.854h.607l.694-24.622-12.051-1.908 10.664 26.53h.086Zm.694-24.015-.694 22.281-9.623-23.929 10.317 1.648Z"/>
  <path fill="#4995EC" d="m405.233 81.8459 15.78-21.8484-6.59-8.9301-9.797 30.4317.607.2601v.0867Zm14.913-21.8484-14.219 19.7676 8.757-27.2238 5.548 7.4562h-.086Z"/>
  <path fill="#BBC8D7" d="m419.802 410.265 40.142-9.797-51.066-18.641 10.924 28.438Zm37.888-9.971-37.454 9.19-10.144-26.53 47.598 17.34ZM402.72 511.618l20.808-10.577-18.033-24.623-2.775 35.2Zm19.855-10.837-19.074 9.71 2.514-32.252 16.56 22.542Z"/>
  <path fill="#BBC8D7" d="m458.64 400.728.347-.607-51.846-37.281 1.994 19.854h.173l49.332 18.034Zm-50.719-36.501 48.725 35.027-46.904-17.08-1.821-17.947Z"/>
  <path fill="#BBC8D7" d="m458.816 400.815 15.953-13.265-67.193-24.362-.347.606 51.5 37.021h.087Zm14.652-13.005-14.652 12.138-49.072-35.287 63.811 23.149h-.087Z"/>
  <path fill="#BBC8D7" d="m474.251 388.157 37.281-61.991-104.993 37.454 67.712 24.537Zm35.721-60.777-36.068 59.91-65.458-23.756 101.526-36.154ZM417.552 576.902l10.057-14.305-23.929-13.352 13.872 27.657Zm9.104-14.045-9.017 12.832-12.398-24.71 21.415 11.965v-.087ZM369.605 292.525l4.595-3.468-5.722-21.155h-.694l1.734 24.623h.087Zm3.815-3.728-3.208 2.428-1.387-19.855 4.682 17.427h-.087Z"/>
  <path fill="#BBC8D7" d="m427.863 563.462-11.011-27.311-12.918 14.046 23.843 13.352.086-.087Zm-11.184-26.097 9.884 24.623-21.502-11.965 11.618-12.658ZM383.212 401.076l22.976-37.888-.261-.173-75.689-42.657-.433.434 53.407 80.197v.087Zm22.022-37.628-22.022 36.414-52.107-78.116 74.129 41.789v-.087ZM409.828 383.215l-1.994-19.681h-.694l-.953 16.647 3.641 3.121v-.087Zm-2.254-15.519 1.387 13.872-2.081-1.821.694-12.138v.087ZM423.359 501.995l-.433-17.774-18.207-7.629 18.64 25.403Zm-1.127-17.253.434 15.172-15.953-21.762 15.606 6.59h-.087ZM403.326 296.598l72.654-28.351-39.188-7.89-33.813 35.634.347.52v.087Zm70.314-28.177-69.187 26.963 32.599-34.333 36.588 7.37Z"/>
  <path fill="#BBC8D7" d="m422.839 485 9.537-51.24-.607-.26-26.617 44.044 17.6 7.456h.087Zm8.583-49.506-9.103 48.552-16.126-6.849 25.229-41.79v.087Z"/>
  <path fill="#BBC8D7" d="m406.015 477.542 26.53-43.87-12.918-12.399-14.132 56.009.606.26h-.086Zm25.663-43.784-25.056 41.53 13.351-52.801 11.705 11.271Z"/>
  <path fill="#4995EC" d="m417.724 115.658 27.657-58.9559-40.836 24.7963 13.179 34.1596Zm26.096-57.2218-26.01 55.5748-12.485-32.1658 38.495-23.409Z"/>
  <path fill="#4995EC" d="m405.15 81.9322 39.621-24.1026-.173-.6069-24.189 2.5142-15.693 21.7617.434.5202v-.0866Zm38.061-23.9292L406.19 80.4583l14.566-20.2011 22.455-2.3409v.0867Z"/>
  <path fill="#BBC8D7" d="m404.718 550.283 12.485-13.611-3.815-2.515-9.19 15.693.52.433Zm11.445-13.525-9.884 10.751 7.283-12.398 2.601 1.647Z"/>
  <path fill="#BBC8D7" d="m387.115 561.815 17.947-11.705-42.917-33.293-.52.434 25.49 44.65v-.086Zm16.819-11.792-16.559 10.838-24.276-42.57 40.922 31.732h-.087ZM360.153 448.24l60.343-26.27-37.454-21.935-22.889 48.205Zm58.869-26.356L361.54 446.94l21.762-45.951 35.72 20.895Z"/>
  <path fill="#4995EC" d="m414.513 52.3652 33.12-50.9796-.434-.4335-45.864 32.5992 13.178 18.8139Zm31.559-49.9391-31.645 48.7253-12.225-17.5134 43.87-31.212Z"/>
  <path fill="#BBC8D7" d="m403.504 296.775-.52-29.304h-.694l-3.641 26.963 4.855 2.341Zm-1.04-24.883.433 23.843-3.381-1.647 3.034-22.196h-.086ZM425.78 519.942l-2.427-19.507-21.068 10.664 23.495 8.843Zm-3.034-18.467 2.167 17.513-21.068-7.889 18.814-9.537.087-.087Z"/>
  <path fill="#BBC8D7" d="m413.389 535.284 12.485-15.952-.433-.174-22.976-8.67 10.924 24.796Zm11.445-15.692-11.271 14.392-9.884-22.369 21.068 7.977h.087ZM427.778 650.857l-10.057-34.419-22.629 6.329 32.686 28.09Zm-10.49-33.553 9.277 31.646-29.999-25.75 20.808-5.809-.086-.087Z"/>
  <path fill="#BBC8D7" d="M426.476 735.304h.694l.347-85.573h-.087l-32.166-27.744 31.212 113.317Zm.347-85.226-.347 82.799-29.998-108.896 30.432 26.097h-.087ZM407.924 363.966l-8.237-33.032-.607.173 6.33 32.599 2.514.26Zm-5.809-20.634 4.942 19.854h-1.127l-3.815-19.854ZM403.499 585.573l14.306-9.017-.347-.607-14.826 6.589.867 2.948v.087Zm9.971-7.109-9.624 6.069-.434-1.561 10.058-4.508ZM420.667 410.783l-11.184-29.045-9.711 14.913 20.808 14.132h.087Zm-11.271-27.571 9.97 25.837-18.553-12.572 8.583-13.265Z"/>
  <path fill="#BBC8D7" d="m400.551 396.736 9.277-14.392-3.468-2.948-6.416 16.994.607.26v.086Zm8.41-14.218-7.283 11.271 5.029-13.179 2.254 1.994v-.086Z"/>
  <path fill="#BBC8D7" d="M420.319 417.114v-7.37l-19.854-13.438-.433.52 20.201 20.288h.086Zm-.693-7.023v5.375l-16.647-16.646 16.647 11.271Z"/>
  <path fill="#BBC8D7" d="m420.059 422.836.26-6.676-19.767-19.854-.52.433 20.027 26.097Zm-.433-6.416-.174 4.595-15.779-20.548 15.953 15.953ZM407.23 363.966l103.607-36.934v-.607l-111.93 4.248 8.323 33.293Zm101.353-36.848-100.832 35.981-7.977-31.819 108.809-4.162Z"/>
  <path fill="#BBC8D7" d="m398.386 331.367 112.884-4.249-36.414-59.216-.261.26-76.209 63.291v-.086Zm111.756-4.942-109.848 4.161 74.388-61.817 35.374 57.656h.086Z"/>
  <path fill="#BBC8D7" d="m398.909 331.714 76.122-63.205-.347-.607-71.787 28.004-3.902 35.721-.086.087Zm74.128-62.424-73.261 60.863 3.728-33.726 69.533-27.137ZM381.483 55.3128l20.548-21.5016-.433-.5202-21.849 16.2996 1.821 5.7222h-.087Zm17.34-19.074L381.83 54.099l-1.3-4.1616 18.38-13.6986h-.087ZM402.462 267.905l14.826-1.908v-.346l-24.016-82.192-.693.173 9.797 84.359.086-.086Zm13.959-2.428-13.438 1.734-9.277-79.677 22.715 78.03v-.087Z"/>
  <path fill="#4995EC" d="m380.268 50.0267 21.848-16.2996-3.208-12.8316-19.16 28.611.433.4335.087.0867Zm21.155-16.5597-19.941 14.8257 17.253-25.8366 2.774 10.9242-.086.0867Z"/>
  <path fill="#BBC8D7" d="M398.736 294.347h.693l3.728-27.224-9.103.867 4.682 26.357Zm3.554-26.444-3.294 24.276-4.249-23.582 7.543-.694ZM282.726 456.474l13.699-6.85-19.681-8.496 5.982 15.346Zm12.138-6.763-11.791 5.896-5.115-13.179 16.906 7.283ZM436.967 261.398l29.564-62.51-74.215-15.867.347.607 44.304 77.77Zm28.524-62.077-28.611 60.603-43.263-75.949 71.874 15.346Z"/>
  <path fill="#BBC8D7" d="m416.597 266.168 20.808-5.202-44.217-77.597-.607.26 24.016 82.539Zm19.855-5.636-19.335 4.855-22.975-79.157 42.396 74.389-.086-.087Z"/>
  <path fill="#BBC8D7" d="m466.706 199.67-28.524-45.257-46.038 29.305 74.649 15.952h-.087Zm-28.784-44.303 27.31 43.35-71.527-15.259 44.13-28.091h.087ZM383.215 400.812l17.254-3.988 6.329-16.733-.52-.347-23.409 20.461.26.607h.086Zm16.82-4.508-15.692 3.555 21.414-18.728-5.722 15.173Z"/>
  <path fill="#BBC8D7" d="m403.072 267.989-9.797-84.446h-.693l-10.578 78.29 21.068 6.156Zm-10.144-81.758 9.451 80.891-19.595-5.722 10.144-75.169Z"/>
  <path fill="#4995EC" d="m391.019 116.783 27.31-1.647-13.265-34.3333-13.959 36.0673-.086-.087Zm26.356-2.254-25.316 1.561 13.005-33.4666 12.311 31.9056Z"/>
  <path fill="#BBC8D7" d="m383.387 400.727 23.496-20.547-.954-17.861-23.062 38.062.52.433v-.087Zm22.802-20.894-21.675 18.987 20.808-34.333.867 15.432v-.086ZM403.416 511.788l2.688-34.853-30.692 10.664 27.917 24.189h.087Zm1.994-33.9-2.514 32.513-26.097-22.629 28.611-9.97v.086Z"/>
  <path fill="#BBC8D7" d="m419.632 422.142.433-.52-19.594-25.49-18.12 4.161 37.281 21.849Zm-19.421-25.23 18.294 23.843-34.42-20.115 16.126-3.641v-.087ZM394.4 268.597l8.41-.78v-.694l-20.288-5.982-.26.607 12.138 6.762v.087Zm6.589-1.301-6.416.607-9.364-5.202 15.867 4.682-.087-.087Z"/>
  <path fill="#4995EC" d="m405.06 82.2793 9.883-30.8652-33.986 3.0345L405.06 82.366v-.0867Zm8.93-30.1716-9.191 28.7844-22.455-26.01 31.732-2.7744h-.086Z"/>
  <path fill="#4995EC" d="m380.787 55.139 34.333-3.0345-13.265-18.9873-20.981 22.0218h-.087Zm33.119-3.5547-31.385 2.7744 19.247-20.1144 12.138 17.34Z"/>
  <path fill="#BBC8D7" d="m405.929 477.889 14.305-56.616-60.083 26.184 45.778 30.432Zm13.352-55.488-13.786 54.36-43.957-29.217 57.743-25.143ZM392.747 184.066l46.038-29.218-60.256-25.403.173.694 14.045 53.927Zm44.564-29.131-44.217 28.091-13.612-52.454 57.829 24.363ZM374.022 289.145l20.981-20.895-12.745-7.109-8.757 27.744.521.346v-.086Zm19.854-20.808-19.334 19.334 8.063-25.663 11.271 6.329Z"/>
  <path fill="#BBC8D7" d="m438.785 155.539-20.808-41.183-39.795 15.606 60.603 25.49v.087Zm-21.155-40.316 19.768 39.015-57.482-24.189 37.714-14.826Z"/>
  <path fill="#BBC8D7" d="m379.144 130.311 38.754-15.259-.173-.607-26.443 1.648h-.087l-12.485 13.698.347.52h.087Zm36.587-15.085-35.46 13.958 11.357-12.485 24.103-1.473ZM375.93 488.12h.347l30.258-10.664-46.298-30.778 15.693 41.356v.086Zm29.131-10.837-28.697 9.97-14.739-38.841 43.436 28.871ZM399.517 294.692l-4.856-27.137-21.501 21.501 26.357 5.636Zm-5.289-25.75 4.422 24.883-24.19-5.116 19.768-19.767ZM143.056 114.268l20.634-16.7331-31.905-21.0681 11.184 37.8012h.087Zm19.507-16.6464-19.16 15.5194-10.404-35.1136 29.564 19.5942Z"/>
  <path fill="#BBC8D7" d="M399.082 294.604v-.693l-25.316-5.376-4.682 3.555 30.085 2.514h-.087Zm-25.143-5.375 20.028 4.248-23.149-1.907 3.121-2.341ZM370.206 264.867l12.225-2.948v-.693l-9.191.173-3.294 2.948.26.607v-.087Zm9.19-2.948-8.063 1.994 2.168-1.907h5.982l-.087-.087Z"/>
  <path fill="#BBC8D7" d="m399.686 331.975-.347-37.974-30.259-2.515 30.519 40.489h.087Zm-.954-37.367.26 35.373-28.438-37.714 28.178 2.341ZM349.833 212.934l43.697-29.392-37.974-20.374v.52l-5.723 49.246Zm42.483-29.305L350.7 211.633l5.463-47.338 36.153 19.334ZM378.966 130.568l13.092-14.306-27.311-7.803 14.219 22.109Zm11.878-13.959-11.791 12.918-12.832-19.941 24.623 7.023Z"/>
  <path fill="#4995EC" d="M391.712 116.785v-.26l13.959-35.8072-40.923 28.3512 26.964 7.629v.087Zm12.572-34.2465-13.005 33.4665-25.057-7.11 37.975-26.3565h.087Z"/>
  <path fill="#BBC8D7" d="m370.297 292.788-1.821-25.056-28.611-5.896 30.432 30.952Zm-2.428-24.536 1.648 22.802-27.658-28.091 26.01 5.289ZM379.924 130.743l-14.306-22.195-15.779 8.757 30.085 13.438Zm-14.566-21.328 12.745 19.767-26.79-11.964 14.045-7.803ZM350.359 544.908l11.878-27.744-.607-.347-14.218 20.982 2.947 7.109Zm9.884-24.796-9.884 23.149-2.167-5.289 12.051-17.773v-.087Z"/>
  <path fill="#BBC8D7" d="m404.806 550.718-1.387-40.056-42.31 6.156 43.784 33.9h-.087Zm-2.081-39.276 1.301 37.888-41.356-32.079 40.055-5.809ZM350.185 117.913l15.693-8.757-11.011-27.7439h-.607l-4.161 36.5009h.086Zm14.913-9.104-14.046 7.89 3.815-33.813 10.231 25.923ZM368.304 268.338l2.341-4.075-29.825-2.254v.693l27.484 5.636Zm1.213-3.468-1.56 2.774-21.935-4.508 23.582 1.734h-.087Z"/>
  <path fill="#BBC8D7" d="m361.366 517.427 42.57-6.156-27.918-24.189-14.652 30.345Zm41.009-6.589-39.882 5.722 13.699-28.438 26.096 22.629.087.087Z"/>
  <path fill="#4995EC" d="m354.513 82.2791 26.096-32.5992-47.771-26.7903 21.675 59.3895Zm25.056-32.339-24.883 31.0385-20.635-56.5283 45.518 25.4898Z"/>
  <path fill="#4995EC" d="m365.356 109.501 40.663-28.1778h-51.847l11.184 28.1778Zm38.582-27.5708L365.703 108.46l-10.491-26.6165h48.726v.0867Z"/>
  <path fill="#4995EC" d="m405.671 81.9315-24.016-27.744-27.831 27.6573h51.847v.0867Zm-24.016-26.7036 22.629 26.0967h-48.812l26.183-26.0967Z"/>
  <path fill="#BBC8D7" d="m393.445 184.149-14.305-54.967-23.756 34.593 38.061 20.374Zm-14.565-53.407 13.525 52.107-36.067-19.334 22.542-32.773Z"/>
  <path fill="#BBC8D7" d="m379.057 130.31.173-.607-28.697-12.832-10.057 12.485 38.581.954Zm-28.351-12.572 26.704 11.878-35.547-.867 8.843-11.011Z"/>
  <path fill="#4995EC" d="m354.861 81.8458 27.137-27.0504-1.821-5.7222-25.836 32.3391.52.4335Zm26.357-27.2238-22.716 22.6287 21.415-26.7036 1.301 4.1616v-.0867Z"/>
  <path fill="#BBC8D7" d="m341.25 129.443 9.624-11.965-.52-.433-10.664 12.051 1.56.347Zm.347-1.474-.607.78.694-.78h-.087Z"/>
  <path fill="#BBC8D7" d="m355.82 164.384 23.842-34.68-39.015-.954 15.173 35.634Zm22.628-34.073-22.455 32.686-14.305-33.553 36.76.867ZM382.61 262.528v-.867l10.75-78.723-43.61 29.304.174.26 32.599 50.113.087-.087Zm9.883-78.29-10.317 76.383-31.472-48.292 41.789-28.091Z"/>
  <path fill="#BBC8D7" d="m373.158 262.008 9.797-.173-32.426-49.853-.607.347 23.236 49.679Zm8.67-.78h-8.237l-20.981-44.824 29.218 44.824ZM376.622 488.207l-15.693-41.355-20.114 28.784 35.807 12.571Zm-15.866-39.968 14.739 38.841-33.64-11.791 18.901-27.05Z"/>
  <path fill="#BBC8D7" d="m361.886 517.772 14.652-30.345-35.894-12.572 21.242 42.917Zm13.698-29.912-13.698 28.438-19.941-40.229 33.639 11.791ZM370.212 264.869l3.988-3.555-33.379.694v.694l29.391 2.167Zm2.168-2.861-2.428 2.168-22.195-1.648 24.623-.52Z"/>
  <path fill="#BBC8D7" d="m340.472 262.702 33.466-.694-23.755-50.893-9.711 51.5v.087Zm32.426-1.301-31.559.607 9.104-48.725 22.455 48.032v.086Z"/>
  <path fill="#4995EC" d="m307.178 58.004 27.051-34.7667-34.767 1.9074 7.716 32.7726v.0867Zm25.577-33.9864-25.23 32.5125-7.196-30.6918 32.512-1.8207h-.086Z"/>
  <path fill="#BBC8D7" d="m400.123 331.453-30.171-40.056-39.015 26.097 69.273 13.959h-.087Zm-30.345-39.102 28.785 38.148-65.979-13.265 37.194-24.883ZM355.559 163.777l.607-.26-14.826-34.68-1.56-.434 15.779 35.374ZM314.548 527.223l21.502-15.519-36.154-8.323 14.739 23.842h-.087Zm19.941-15.172-19.681 14.219-13.525-21.935 33.206 7.629v.087Z"/>
  <path fill="#BBC8D7" d="m347.754 538.496 14.652-21.675-27.83-5.376 13.091 27.051h.087Zm13.612-21.242-13.525 19.941-12.052-24.883 25.49 4.942h.087Z"/>
  <path fill="#BBC8D7" d="m362.49 517.514-21.328-43.09-6.329 37.714 27.657 5.376Zm-20.981-40.923 19.854 40.056-25.663-4.942 5.896-35.027-.087-.087Z"/>
  <path fill="#BBC8D7" d="m341.163 476.415 20.201-28.871-.26-.174-26.877-22.108 6.849 51.239.087-.086Zm19.248-28.785-18.814 26.964-6.416-47.858 25.316 20.894h-.086Z"/>
  <path fill="#BBC8D7" d="m361.023 448.066 22.889-48.378-49.852 26.183 26.877 22.195h.086Zm21.502-46.818-21.675 45.778-25.49-20.982 47.165-24.796ZM329.984 529.736l5.896-18.727-22.022 15.953 16.213 2.774h-.087Zm4.682-16.993-5.115 16.299-14.046-2.427 19.161-13.786v-.086ZM399.339 331.279v-.694l-67.713-13.698-2.081 3.988 69.794 10.317v.087Zm-67.366-13.612 54.881 11.098-56.355-8.324 1.387-2.774h.087Z"/>
  <path fill="#BBC8D7" d="m406.104 363.968-6.503-33.293h-.26l-69.36-10.318-.173.607 76.296 43.004Zm-7.023-32.686 6.156 31.472-73.435-41.356 67.366 9.97-.087-.086ZM295.994 478.844l46.558-3.121-47.078-26.703.607 29.824h-.087Zm44.304-3.641-43.611 2.948-.52-28.004 44.131 25.056ZM236.173 455.957l38.582-.694 3.034-14.045L236 455.263v.607l.173.087Zm38.148-1.301-35.894.607 38.582-13.005-2.688 12.398Z"/>
  <path fill="#BBC8D7" d="m329.894 321.049.347-.52-13.525-11.965-10.838.434v.607l24.016 11.444Zm-13.438-11.791 11.531 10.231-20.808-9.884 9.19-.347h.087ZM348.537 538.579l-13.352-27.57-5.809 18.554 19.161 9.016Zm-13.178-25.75 11.791 24.363-16.993-7.976 5.115-16.387h.087ZM286.721 329.808l11.618-53.667h-.434l-71.18 8.063 59.996 45.604Zm10.751-52.887-11.184 51.76-57.916-43.957 69.013-7.803h.087ZM224.986 164.123l49.679-20.981-67.279-23.582 17.6 44.65v-.087Zm47.772-20.981-47.425 20.114-16.82-42.656 64.245 22.542ZM341.075 262.961v-.52l9.537-50.113-.607-.26-24.189 38.495 15.259 12.398Zm8.497-49.072-9.017 47.858-13.959-11.357 22.976-36.501Z"/>
  <path fill="#BBC8D7" d="m340.645 262.613.433-.52-14.652-11.878-.52.433 1.3 3.035 13.439 9.017v-.087Zm-13.612-11.011 7.889 6.416-7.196-4.855-.693-1.561ZM330.071 321.396l2.167-4.161-9.017-9.797-.52.346 7.456 13.612h-.086Zm1.3-4.075-1.387 2.601-5.549-10.144 6.85 7.457.086.086Z"/>
  <path fill="#BBC8D7" d="m331.713 317.756 38.321-25.663-.26-.607-47.512 15.953 9.451 10.231v.086Zm35.894-24.796L331.8 316.889l-8.324-9.103 44.131-14.826Z"/>
  <path fill="#BBC8D7" d="m322.354 308.217 48.206-16.213-29.739-30.258-18.38 46.471h-.087Zm46.905-16.473-45.778 15.433 17.514-44.217 28.264 28.784Z"/>
  <path fill="#BBC8D7" d="m329.806 320.962.52-.433-7.283-13.265-7.196 1.387 13.959 12.311Zm-7.109-12.918 6.069 11.184-11.531-10.144 5.375-1.04h.087ZM116.524 150.511l29.912-15.173-39.449-20.808 9.537 36.067v-.086Zm28.524-15.259-28.09 14.218-8.931-33.726 37.021 19.508ZM350.097 212.5l.346-.521-40.228-29.304-.261 2.774h.174l39.969 27.051Zm-39.362-28.698 24.709 18.033-24.883-16.733.174-1.3Z"/>
  <path fill="#BBC8D7" d="m326.082 251.342 24.623-39.189-.26-.173-40.749-27.484 16.3 66.759.086.087Zm23.756-39.015-23.496 37.281-15.519-63.638 39.015 26.27v.087ZM310.471 112.103l44.824-30.5179-48.292-24.883 3.468 55.4009Zm43.523-30.4312L311.078 110.89l-3.381-53.0607 46.297 23.8425Z"/>
  <path fill="#BBC8D7" d="m340.384 129.354 10.838-12.224-40.403-5.983-.26.607 29.825 17.6Zm9.537-11.791-9.624 10.924-27.917-16.473 37.541 5.549Z"/>
  <path fill="#BBC8D7" d="m350.878 117.739 4.162-36.8474-45.171 30.7784 41.009 6.069Zm3.382-35.4602-3.902 34.6802-38.668-5.722 42.57-29.0449v.0867ZM350.53 212.847l5.722-49.679-46.471 20.028 40.749 29.651Zm4.942-48.639-5.462 47.425-38.842-28.351 44.304-19.074Z"/>
  <path fill="#BBC8D7" d="m310.732 183.369 29.998-54.621-30.345-17.947-.26 72.308.607.173v.087Zm29.131-54.361-29.044 52.887.26-69.88 28.784 16.993Z"/>
  <path fill="#BBC8D7" d="m309.694 183.889 46.558-20.028-.173-.347-15.78-35.373-30.692 55.748h.087Zm45.691-20.375-44.217 19.074 29.044-52.887 15.086 33.813h.087Z"/>
  <path fill="#4995EC" d="m355.21 82.2774-21.675-59.3028-26.704 34.4199.347.1734 48.032 24.7095Zm-21.848-58.0023 20.721 56.6151-46.211-23.7558 25.49-32.8593Z"/>
  <path fill="#BBC8D7" d="m296.078 478.845.347-.52-15.693-13.265 1.734 6.675 13.612 7.11Zm-14.132-11.878 11.791 9.884-10.577-5.549-1.127-4.335h-.087ZM341.772 476.154l-6.849-50.719-39.882 24.276 46.731 26.443Zm-7.369-49.592 6.502 48.378-44.563-25.229 38.061-23.149Z"/>
  <path fill="#BBC8D7" d="m296.602 479.275-.607-30.518-15.086 17.253 15.693 13.265Zm-1.214-28.784.52 27.31-14.045-11.878 13.525-15.432Z"/>
  <path fill="#BBC8D7" d="m280.906 467.053 15.086-17.167-.433-.52-12.919 6.416-1.734 11.271Zm13.439-16.386-12.485 14.219 1.387-8.67 11.098-5.549Z"/>
  <path fill="#BBC8D7" d="m283.419 456.387-6.156-15.78-3.208 14.653 9.364 1.127Zm-5.982-13.525 4.942 12.744-7.543-.953 2.601-11.791ZM305.62 309.605l11.531-.434-18.987-32.773-.607.261 8.063 32.946Zm10.404-1.041-9.884.347-7.369-30.172 17.34 29.825h-.087ZM335.527 512.31v-.347l6.329-37.108-42.049 29.218 35.807 8.237h-.087Zm5.376-36.067-5.896 35.287-33.639-7.717 39.535-27.484v-.086Z"/>
  <path fill="#BBC8D7" d="m316.46 309.258 7.109-1.301-25.403-31.559-.52.347 18.814 32.513Zm5.896-1.821-5.549 1.04-16.473-28.35 21.935 27.31h.087Z"/>
  <path fill="#BBC8D7" d="m297.991 276.835 43.697-14.393-14.133-9.45-.173.174-29.651 23.148.346.607-.086-.086Zm42.136-14.566-40.576 13.352 27.918-21.849 12.571 8.41.087.087Z"/>
  <path fill="#BBC8D7" d="m322.959 308.304 18.467-46.558-44.13 14.566.26.347 25.403 31.558v.087Zm17.34-45.431-17.514 44.13-24.362-30.344 41.876-13.786Z"/>
  <path fill="#BBC8D7" d="m298.079 276.834 29.824-23.322-1.56-3.555-28.698 26.357.434.52Zm29.044-23.496-22.889 17.861 21.935-20.115.954 2.254ZM300.329 504.421l.433-.347 41.79-29.045-46.645 3.122 4.422 26.183v.087Zm39.882-28.525-39.362 27.398-4.075-24.45 43.524-2.948h-.087ZM290.968 354.082l.434-.347 39.795-33.639-45.17 8.843 4.855 25.143h.086Zm37.888-32.859-37.454 31.559-4.508-23.409 41.962-8.15Z"/>
  <path fill="#BBC8D7" d="m285.5 329.721 45.604-8.93-25.316-11.965-.173.174-20.115 20.721Zm43.437-9.19-41.529 8.063 18.467-18.988 23.062 10.925Z"/>
  <path fill="#BBC8D7" d="m285.94 330.326 20.374-20.894v-.174l-8.063-32.686h-.607l-11.617 53.841-.087-.087Zm19.594-21.155-18.467 18.988 10.838-50.113 7.629 31.125ZM334.58 426.392l49.332-25.923-93.636-47.772 44.304 73.695Zm47.945-25.923-47.685 25.056-42.743-71.18 90.428 46.124Z"/>
  <path fill="#BBC8D7" d="m384.166 401.334-54.101-81.064-39.535 33.379 93.549 47.772.087-.087Zm-54.188-80.111 52.281 78.377-90.428-46.124 38.147-32.253ZM272.236 218.656l.26-.173 37.975-32.946-.347-.52-50.026 20.634 12.225 13.092-.087-.087Zm36.241-32.339-36.154 31.386-11.098-11.965 47.252-19.508v.087ZM281.6 466.881l1.734-11.185-9.45-1.127 7.716 12.398v-.086Zm.954-10.664-1.388 8.756-6.068-9.71 7.369.867.087.087Z"/>
  <path fill="#BBC8D7" d="m291.573 353.995-4.942-25.403-20.548 18.293 25.49 7.11Zm-5.375-24.103 4.508 23.149-23.322-6.502 18.814-16.647ZM243.457 365.093l.347-.52-17.6-13.438.607 5.549 16.646 8.409Zm-16.473-12.571 13.525 10.317-13.178-6.589-.347-3.728ZM295.736 449.971h.174l38.928-23.756-.26-.607-58.176 16.04 19.334 8.323Zm36.761-23.149-36.761 22.369-17.34-7.456 54.101-14.913Z"/>
  <path fill="#BBC8D7" d="m277.01 442.171 58.176-16.039-44.218-73.609-13.958 89.648Zm57.135-16.473-56.355 15.52 13.525-86.787 42.83 71.267ZM310.821 184.064l.26-73.348-37.888 32.339 37.541 41.009h.087Zm-.347-71.874-.26 70.227-35.98-39.189 36.24-30.952v-.086ZM266.867 347.059l19.855-17.6-.347-.521-25.923 16.213 6.502 1.908h-.087Zm16.387-15.433-16.56 14.739-4.769-1.387 21.329-13.352Z"/>
  <path fill="#BBC8D7" d="m260.189 206.26 50.806-22.888-37.541-40.923-13.352 63.811h.087Zm49.679-23.148-48.812 22.021 12.832-61.297 35.98 39.276Z"/>
  <path fill="#BBC8D7" d="m260.792 205.999 49.766-20.461.26-2.774-50.372 22.715.26.607.086-.087Zm49.159-20.981-30.865 12.658 30.952-13.959-.173 1.301h.086Z"/>
  <path fill="#BBC8D7" d="m326.685 251.168-16.3-66.499-38.755 33.553 54.968 32.946h.087Zm-16.647-65.285 15.606 63.898-52.8-31.646 37.194-32.252Z"/>
  <path fill="#BBC8D7" d="m297.725 277.091 29.045-26.704-55.228-33.033 26.183 59.737Zm27.917-26.53-27.657 25.403-24.97-56.962 52.627 31.472v.087ZM229.67 73.0861l7.283-18.1203-23.496 13.6986 16.213 4.4217Zm5.983-16.6464-6.33 15.7794-14.132-3.8148 20.462-11.9646ZM266.427 507.539l30.345-29.131-14.132-7.456-.173.347-16.56 35.894.52.346Zm29.218-28.957-28.437 27.224 15.692-33.987 12.745 6.676v.087ZM235.569 90.1688l72.828-33.0327-57.742-10.9242v.2601l-14.999 43.6968h-.087Zm70.661-32.7726L236.697 88.955l14.305-41.9628 55.141 10.404h.087Z"/>
  <path fill="#BBC8D7" d="m265.303 507.716 35.634-3.554-4.422-26.27-31.212 29.911v-.087Zm34.853-4.161-32.946 3.294 28.871-27.657 4.075 24.363ZM311.081 111.93l-3.468-55.2279-72.394 32.8594 75.862 22.2815v.087Zm-4.075-54.1874 3.382 53.3204-73.262-21.5015 69.88-31.7322v-.0867ZM214.669 302.499l13.352-18.034-12.659-11.791-.607 29.825h-.086Zm12.398-17.947-11.705 15.866.52-26.27 11.185 10.317v.087Z"/>
  <path fill="#BBC8D7" d="m235.822 89.6471.607-.1734-5.116-17.7735-2.34.7803 6.849 17.1666Zm-4.942-17.0799 3.034 10.4907-4.075-10.1439 1.041-.3468ZM256.111 207.299l5.201-1.387-35.807-42.396-.52.433 31.212 43.437-.086-.087Zm3.988-1.821-3.728 1.041-26.01-36.154 29.651 35.2.087-.087Z"/>
  <path fill="#BBC8D7" d="m260.797 206.434 13.351-63.811-49.505 20.981 36.24 42.917-.086-.087Zm12.398-62.771-12.832 61.297-34.767-41.182 47.512-20.115h.087Z"/>
  <path fill="#BBC8D7" d="m272.064 218.485.433-.52-11.791-12.658-5.289 1.474 16.647 11.704Zm-11.532-12.398 9.364 10.057-12.918-9.103 3.554-.954Z"/>
  <path fill="#BBC8D7" d="m272.15 218.484.347-.607-16.3-11.444-3.988 2.427 19.855 9.537.086.087ZM256.197 207.3l12.572 8.843-15.173-7.283 2.515-1.56h.086ZM277.185 441.911l.52-.434-29.304-38.928-4.682 2.081 33.553 37.281h-.087Zm-29.045-38.495 24.363 32.339-27.744-30.865 3.381-1.474Z"/>
  <path fill="#BBC8D7" d="m277.613 442.518 14.045-90.168-43.87 50.632 29.825 39.536Zm13.091-88.001-13.438 86.353-28.524-37.888 42.049-48.465h-.087ZM228.803 335.615l.607-.173-1.647-52.02-13.179 17.947 14.219 34.246Zm-1.56-50.199 1.474 48.292-13.352-32.166 11.791-16.039.087-.087ZM266.428 507.8l.174-.26 17.08-36.935-39.969 27.398 22.715 9.797Zm15.606-35.374-15.952 34.507-21.069-9.104 37.021-25.403Z"/>
  <path fill="#BBC8D7" d="m244.497 498.091 38.668-26.53-1.647-6.243-37.455 32.253.434.52Zm37.888-26.79-33.293 22.802 32.079-27.571 1.214 4.769Z"/>
  <path fill="#BBC8D7" d="m244.582 498.09 37.194-32.079-7.282-11.704-30.432 43.35.52.433Zm36.414-32.166-34.767 29.999 28.351-40.316 6.503 10.317h-.087ZM228.89 73.263l2.514-.867 5.202-16.5597-.606-.2601-7.11 17.6868Zm1.994-1.3872-.78.2601 3.295-8.2365-2.515 7.9764ZM243.718 365.182l48.812-11.618-25.75-7.196-23.235 18.207.26.607h-.087Zm46.125-11.618-44.824 10.664 21.848-17.08 22.976 6.416Z"/>
  <path fill="#BBC8D7" d="m247.96 403.848 44.13-50.893-48.812 11.618 4.682 39.275Zm42.309-49.766-41.789 48.205-4.422-37.194 46.211-11.011Z"/>
  <path fill="#BBC8D7" d="m243.799 365.094 23.669-18.554-6.503-1.907-.173.173-17.514 19.768.434.52h.087Zm22.195-18.207-19.768 15.433 14.913-16.907 4.768 1.387.087.087ZM238.862 494.883l.607-.173-3.035-40.056-9.19 13.699 11.531 26.53h.087Zm-2.948-38.235 2.774 36.241-10.664-24.363 7.89-11.791v-.087Z"/>
  <path fill="#BBC8D7" d="m244.845 498.526-8.323-43.004h-.694l2.948 39.362 5.982 3.555.087.087Zm-7.89-37.195 6.936 35.807-4.422-2.687-2.514-33.206v.086ZM163.513 98.2298l-.52-15.0858-30.519-6.1557-.26.6069 31.299 20.7213v-.0867Zm-1.214-14.5656.52 13.2651-28.784-19.074 28.264 5.7222v.0867Z"/>
  <path fill="#BBC8D7" d="m244.145 498.698 30.952-44.044-39.362.694 8.41 43.35Zm29.651-43.35-29.304 41.703-7.89-41.096 37.281-.607h-.087ZM236.171 90.6006l14.999-43.9569-.607-.3468-19.854 25.6632 5.375 18.5538.087.0867Zm13.698-42.2229-13.698 40.0554-4.682-16.2129 18.38-23.8425Z"/>
  <path fill="#BBC8D7" d="m273.627 143.659 37.801-32.339-76.123-22.3688 38.322 54.7078Zm36.414-31.992-36.328 31.038-36.761-52.54 73.089 21.502ZM230.885 429.164l13.612-24.189-.607-.347-16.559 24.363 3.554.173Zm9.277-17.947-9.624 17.253h-1.994l11.705-17.253h-.087ZM261.838 345.586l-34.073-61.297-.607.173 1.56 51.327 33.033 9.884.087-.087Zm-33.986-59.823 32.599 58.696-31.039-9.277-1.56-49.419Z"/>
  <path fill="#BBC8D7" d="m244.057 405.234 4.682-2.081-13.958-16.733-.521.347 9.797 18.467Zm3.642-2.341-3.381 1.474-8.064-15.086 11.358 13.612h.087Z"/>
  <path fill="#BBC8D7" d="m248.654 404.11-4.855-40.576-9.71 23.149 14.565 17.427Zm-5.202-37.975 4.249 35.807-12.832-15.432 8.583-20.462v.087ZM278.397 442.343l-34.247-38.062-13.872 24.796 48.205 13.266h-.086Zm-34.16-36.935 32.166 35.721-45.171-12.485 13.005-23.322v.086Z"/>
  <path fill="#BBC8D7" d="m235.997 456.041 41.529-13.959-.173-.606-44.824 6.502 3.555 8.15-.087-.087Zm37.801-13.438-37.454 12.658-2.948-6.763 40.402-5.895Z"/>
  <path fill="#BBC8D7" d="m232.704 448.585 44.737-6.502v-.607l-47.078-13.005 2.341 20.114Zm43.09-6.936-42.57 6.156-2.167-18.467 44.65 12.311h.087ZM231.402 72.3069l19.768-25.4898-.434-.5202-14.652 9.1902-5.202 16.5597.607.2601h-.087Zm18.034-24.4494-17.427 22.542 4.595-14.4789 12.832-8.0631ZM234.524 387.287l9.364-22.369-.52-.347-13.005 15.606 4.161 7.11Zm7.89-20.635-8.063 19.161-3.295-5.549 11.271-13.525.087-.087ZM146.173 135.948l-3.381-20.895-35.287-.26-.174.607 38.842 20.461v.087Zm-3.902-20.201 3.035 18.987-36.414-19.247 33.379.26Z"/>
  <path fill="#BBC8D7" d="M232.619 448.24h.693l-2.254-19.681-3.554-.173 5.115 19.941v-.087Zm-2.168-19.074 1.648 14.219-3.728-14.392h2.08v.173ZM261.05 345.498l.26-.173 25.75-16.127-.347-.26-58.956-44.737-.52.434 33.813 60.95v-.087Zm24.882-16.3-24.622 15.346-32.686-58.956 57.308 43.524v.086ZM199.498 84.533l31.038-11.8779-16.3-4.4217-14.999 15.7794.347.5202h-.086Zm28.871-11.7045-27.744 10.5774 13.698-14.3922 13.959 3.8148h.087ZM162.909 98.0577l35.547-11.7045v-.6069l-36.067-2.6877.52 14.9991Zm33.726-11.7912-33.119 10.9242-.52-13.4385 33.553 2.5143h.086Z"/>
  <path fill="#BBC8D7" d="m226.203 352.26 34.941-6.849v-.607l-32.34-9.71-2.601 17.166Zm33.553-7.282-32.772 6.415 2.341-15.519 30.431 9.104ZM226.811 284.81l71.528-8.063-26.01-59.303-45.518 67.366Zm70.574-8.583-69.186 7.803 44.043-65.112 25.143 57.396v-.087ZM252.816 209.38l3.815-2.341-31.212-43.523-.52.346 27.917 45.518Zm2.861-2.514-2.688 1.647-22.802-37.108 25.404 35.461h.086ZM243.538 365.18l.173-.606-16.993-8.584-.26 5.809 17.08 3.295v.086Zm-16.127-8.149 13.959 7.022-14.132-2.774.173-4.248Z"/>
  <path fill="#BBC8D7" d="m230.622 380.959 13.698-16.387-17.86-3.468 4.162 19.855Zm12.398-15.953-12.051 14.479-3.642-17.514 15.78 3.035h-.087Z"/>
  <path fill="#BBC8D7" d="m243.71 365.269 18.381-20.721-36.241 7.109 17.86 13.612Zm16.56-19.681-16.646 18.814-16.213-12.311 32.859-6.503ZM274.58 143.746l-38.408-54.7948-28.871 31.2118 67.192 23.583h.087Zm-38.408-53.7544 36.761 52.4534-64.332-22.629 27.571-29.8244ZM236.691 455.956l-3.554-8.236-14.219 7.282.173.607 17.6.347Zm-3.901-7.369 2.861 6.676-15.259-.347 12.398-6.329ZM195.078 399.341l10.404-11.358-6.415-6.329-4.509 17.427.607.347-.087-.087Zm9.451-11.358-9.017 9.884 3.901-14.999 5.116 5.029v.086ZM227.585 284.984l44.997-66.586-.52-.433-56.962 55.401 12.485 11.531v.087Zm42.656-64.245-42.743 63.205-11.358-10.578 54.101-52.627Z"/>
  <path fill="#BBC8D7" d="m215.796 273.623 57.049-55.488-20.028-9.623-.173.26-37.368 64.505.52.433v-.087Zm55.922-55.314-54.621 53.147 35.98-62.077 18.641 8.93ZM236.691 89.9075l-7.022-17.6868h-.347L198.023 84.272l38.582 5.6355h.086Zm-7.369-16.8198 6.329 15.9528-34.94-5.1153 28.611-10.9242v.0867ZM153.2 351.483h.347l75.515-15.606v-.694l-77.249-9.364 1.3 25.664h.087Zm73.782-15.867-73.175 15.086-1.214-24.016 74.389 9.017v-.087ZM205.042 388.328l29.998-1.387-4.162-7.023h-.26l-25.75 7.803v.694l.174-.087Zm29.044-1.994-26.27 1.214 22.889-6.85 3.295 5.636h.086ZM207.909 120.339l.173-.607-45.084-22.5416-6.242 17.4266 51.153 5.809v-.087Zm-44.477-22.2816 42.743 21.4146-48.466-5.462 5.723-15.9526ZM233.482 448.761l-5.288-20.548-20.375 8.063 25.663 12.485Zm-5.722-19.594 4.769 18.38-23.062-11.184 18.293-7.283v.087ZM185.799 212.416l40.402-49.506-52.367 19.421 11.965 29.998v.087Zm38.321-48.032-38.148 46.731-11.357-28.351 49.419-18.38h.086Z"/>
  <path fill="#BBC8D7" d="m244.93 405.494-10.231-19.248-29.651 1.387v.607l39.882 17.254Zm-10.664-18.554 9.103 17.166-36.934-15.866 27.831-1.3Z"/>
  <path fill="#BBC8D7" d="m227.848 429.338 16.82-24.623-40.402-17.427 23.669 42.05h-.087Zm15.78-24.363-15.78 23.062-22.108-39.448 37.888 16.299v.087ZM191.695 154.932l16.82-35.2-52.02-5.896 35.287 41.096h-.087Zm15.779-34.594-15.953 33.38-33.466-39.015 49.419 5.549v.086ZM236.175 89.9069v-.6936l-36.934-5.3754-1.474 2.5143 38.408 3.468v.0867Zm-36.588-5.2887 24.363 3.5547-25.056-2.2542.693-1.3005Z"/>
  <path fill="#BBC8D7" d="m204.095 388.589 27.051-8.15-4.075-19.681-22.976 27.831Zm26.357-8.584-24.45 7.283 20.722-25.056 3.728 17.687v.086ZM142.013 115.743l15.259-1.127v-.694l-14.132-.607-1.04 2.428h-.087Zm9.537-1.387-8.41.607.434-.954 7.976.347Z"/>
  <path fill="#BBC8D7" d="m199.413 382.519 27.744-20.808.347-5.982-28.524 26.27.433.52Zm27.137-21.155-22.282 16.733 22.542-20.808-.173 4.075h-.087Z"/>
  <path fill="#BBC8D7" d="m199.407 382.52 28.004-25.836-.607-5.549-27.917 30.952.433.433h.087Zm27.311-26.097-22.456 20.722 22.022-24.45.347 3.728h.087ZM173.485 183.197l52.8-19.594-34.853-9.71v.173l-17.947 29.044v.087Zm50.633-19.507-49.073 18.207 16.647-27.224 32.339 9.017h.087Z"/>
  <path fill="#BBC8D7" d="m205.05 388.415.26-.26 21.848-26.443-.433-.434-27.918 20.895 6.329 6.242h-.086Zm19.767-24.969-19.854 24.016-5.289-5.202 25.057-18.814h.086ZM208.426 436.792l20.375-8.063-30.865-12.311 10.49 20.374Zm18.554-8.063-18.294 7.283-9.363-18.294 27.657 11.011Z"/>
  <path fill="#BBC8D7" d="m228.629 429.34-23.756-42.31-6.589 30.172 30.432 12.138h-.087Zm-23.496-40.489 22.022 39.188-28.177-11.184 6.155-27.917v-.087ZM151.81 326.773l63.291-25.057-.174-.607-57.655 5.723-5.549 19.941h.087Zm60.863-24.797-59.91 23.669 5.029-18.207 54.794-5.462h.087ZM207.825 120.685l29.044-31.4721-39.015-3.5547 9.971 34.9398v.087Zm27.657-30.8652-27.397 29.5652-9.364-32.9465 36.674 3.2946.087.0867ZM127.885 394.4l26.01-43.263-.521-.434-27.484 21.935 1.995 21.762Zm24.449-41.963-23.929 39.882-1.734-19.334 25.75-20.548h-.087Z"/>
  <path fill="#BBC8D7" d="m225.769 164.21-17.774-44.997-16.906 35.373 34.593 9.624h.087Zm-17.861-43.35 16.733 42.31-32.599-9.017 15.866-33.293ZM198.98 86.4413 180.6 59.9111l-18.554 23.7558 36.934 2.7744ZM180.6 61.0382l17.08 24.6228-34.333-2.601L180.6 61.0382ZM185.103 212.675l67.886-3.468-.086-.606-67.193 2.861-.607 1.213Z"/>
  <path fill="#BBC8D7" d="m215.54 274.057 37.975-65.545-68.407 3.468 30.432 62.077Zm36.761-64.852-36.761 63.378-29.478-60.083 66.239-3.381v.086ZM199.412 84.7046l15.52-16.2996-35.201-8.4099 19.595 24.7095h.086Zm14.306-15.9528-14.219 14.9124-17.947-22.6287 32.166 7.7163Z"/>
  <path fill="#BBC8D7" d="m185.195 212.155 68.32-2.948-28.351-46.124-.26.347-39.709 48.638v.087Zm67.193-3.554-65.719 2.774 38.495-47.165 27.224 44.391ZM145.572 136.291l12.225-22.455-15.693 1.214 3.468 21.241Zm11.098-21.675-10.751 19.681-3.034-18.64 13.698-1.041h.087ZM214.407 68.9276l22.022-12.9184-.174-.6069-55.661 4.7686v.6936l33.813 8.0631Zm20.461-12.745-20.635 12.0513-31.558-7.5429 52.193-4.5084Z"/>
  <path fill="#BBC8D7" d="m198.285 86.7013 1.474-2.601-18.901-23.8425-.52.4335 18.034 26.01h-.087Zm.693-2.5143-.693 1.3005-11.618-16.8198 12.398 15.606-.087-.0867Z"/>
  <path fill="#BBC8D7" d="m208.429 120.685-9.971-35.0268-36.154 11.8779 46.125 23.0619v.087Zm-10.404-34.1598 9.363 32.8598-43.35-21.6755 33.987-11.1843ZM185.629 213.106l.693-1.3-.086-.174-11.705-29.131-.607.173 11.705 30.432Z"/>
  <path fill="#BBC8D7" d="m157.451 114.619 6.502-18.034-21.502 17.427 15.086.607h-.086Zm5.028-16.0399-5.462 15.3459-12.832-.52 18.294-14.8259ZM157.625 307.438l57.742-5.722.607-28.958-58.523 34.073.174.607Zm57.048-6.329-55.575 5.549 56.182-32.686-.607 27.137ZM126.411 373.07l27.484-21.935v-.174l-1.301-26.01-26.617 47.685.52.434h-.086Zm26.79-22.196-25.837 20.635 24.623-44.13 1.214 23.495Z"/>
  <path fill="#BBC8D7" d="m183.635 402.547 16.04-20.375-.26-.173-45.691-31.212-.434.434 30.345 51.326Zm15.086-20.201-14.999 19.074-29.131-49.246 44.13 30.172Z"/>
  <path fill="#BBC8D7" d="m199.32 382.695.174-.173 27.917-30.952-74.909-.867 46.818 31.992Zm26.617-30.518-26.703 29.651-44.564-30.431 71.267.78Z"/>
  <path fill="#BBC8D7" d="m226.893 352.174 2.601-17.08-76.036 15.692v.694l73.435.78v-.086Zm1.821-16.3-2.341 15.606-69.707-.78 72.048-14.826Z"/>
  <path fill="#BBC8D7" d="m229.672 335.877-14.479-34.854h-.347l-62.684 24.883v.607l77.423 9.364h.087Zm-14.826-34.073 13.786 33.206-74.996-9.017 61.21-24.189ZM174.265 183.195l17.773-29.045-47.165-19.507 29.305 48.552h.087Zm16.819-28.698-16.819 27.484-27.744-45.951 44.563 18.467Z"/>
  <path fill="#BBC8D7" d="m191.436 154.673.347-.52-34.68-40.402-11.878 21.762 46.211 19.16Zm-34.159-39.795 33.119 38.668-44.217-18.38 11.098-20.288Z"/>
  <path fill="#BBC8D7" d="m175.223 183.455-29.305-48.639-29.825 15.173 59.13 33.466Zm-29.565-47.772 27.744 45.951-55.922-31.558 28.178-14.306v-.087ZM152.419 327.033l5.549-20.114-23.669-6.416 18.12 26.53Zm4.768-19.594-5.028 18.034-16.3-23.843 21.328 5.809ZM184.324 402.375l-30.778-52.02-26.01 43.264h.52l56.268 8.756Zm-30.778-50.719 29.478 49.852-54.361-8.409 24.883-41.443Z"/>
  <path fill="#BBC8D7" d="m158.229 307.697-33.206-67.972-.607.173 10.405 61.384 23.408 6.329v.086Zm-32.772-65.545 31.559 64.592-21.589-5.809-9.97-58.696v-.087ZM117.307 150.947l-9.537-36.154-29.2181 6.502 38.8421 29.565-.087.087Zm-10.057-35.374 8.93 33.64-36.1541-27.571 27.2241-6.069Z"/>
  <path fill="#BBC8D7" d="m124.849 240.161 61.211-27.657v-.26l-11.705-30.259-.347.434-49.592 57.309.347.52.086-.087Zm60.344-28.004-59.303 26.79 48.205-55.748 11.098 28.958Z"/>
  <path fill="#BBC8D7" d="m157.448 307.61 58.956-34.333-.693-.26-91.729-33.813 33.38 68.32.086.086Zm57.396-34.159-57.049 33.206-32.339-66.239 89.474 33.033h-.086Z"/>
  <path fill="#BBC8D7" d="m134.821 301.196.607-.26-10.578-61.991-14.912 21.935v.174l24.883 40.142Zm-10.317-60.517 9.97 58.696-23.756-38.495 13.699-20.201h.087Z"/>
  <path fill="#BBC8D7" d="m216.227 273.972-30.432-62.077-61.991 28.004 92.423 34.073Zm-30.779-61.21 29.478 59.996-89.388-32.946 59.91-27.05ZM142.627 116.005l1.04-2.341-22.108-23.582-.521.4335 21.589 25.4895Zm.26-2.254-.434 1.041-12.571-14.9129 13.091 13.8719h-.086Z"/>
  <path fill="#BBC8D7" d="m143.06 113.924.607-.346-11.011-37.0214-11.791 13.6986 22.195 23.5828v.086Zm-10.751-35.9802L142.54 112.45l-20.808-22.1948 10.577-12.3114ZM110.455 261.399l14.999-22.022-33.1193 7.456 18.1203 14.566Zm13.525-21.068-13.612 20.027-16.4727-13.265 30.0847-6.849v.087ZM63.7229 330.848l15.5193-18.12-18.9006-12.225 3.3813 30.345Zm14.4789-17.947-14.0454 16.386-3.0345-27.397 17.0799 11.011Z"/>
  <path fill="#BBC8D7" d="m79.2422 313.506-9.3636-41.269-9.537 29.131 18.8139 12.138h.0867Zm-9.4503-38.754 8.4966 37.367-17.0799-11.011 8.5833-26.356ZM55.3154 210.854l-10.9241-17.6-.6069.26 3.4679 15.693 8.0631 1.647Zm-10.4907-15.606 9.1036 14.652-6.1557-1.214-2.9479-13.438ZM143.227 115.745l-22.022-26.0096-14.306 25.7496 36.328.26Zm-21.849-24.7959 20.461 24.1889-33.726-.26 13.265-23.9289ZM93.9821 189.698l81.3249-6.849-58.783-33.206-.173.26-22.4557 39.795h.0868Zm79.1569-7.283-77.9431 6.503 21.6751-38.408 56.268 31.818v.087ZM92.9409 247.355l31.8191-7.196v-.694l-38.3216-1.561 6.5025 9.451Zm29.2181-7.283-28.958 6.589-5.5488-7.976 34.4198 1.387h.087Z"/>
  <path fill="#BBC8D7" d="M125.285 240.247 94.42 188.313l-7.7163 50.373 38.5813 1.561Zm-30.5182-49.939 29.3042 49.245-36.6737-1.474 7.3695-47.771ZM84.442 340.991l50.893-39.622-.26-.607-56.7019 11.791v.347l6.0689 28.091Zm49.332-39.276-48.8984 38.148-5.7223-26.79 54.6207-11.358Z"/>
  <path fill="#BBC8D7" d="m124.672 240.417 50.373-58.263-80.9779 6.763 30.6049 51.413v.087Zm48.812-57.396-48.725 56.269-29.5648-49.766 78.2898-6.589v.086ZM84.7074 340.73l68.1466-14.305-17.687-25.837-50.7198 39.535.2602.607Zm67.0186-14.739-65.7182 13.785 49.0722-38.234 16.733 24.449h-.087Z"/>
  <path fill="#BBC8D7" d="m126.321 373.329.173-.347 26.444-47.252-69.0137 14.479 42.4827 33.12h-.086Zm25.316-46.645-25.49 45.691-40.7488-31.819 66.2388-13.872ZM78.1138 313.247l57.5692-11.964-25.23-41.01-32.2525 52.974h-.0867Zm56.4422-12.485-55.1417 11.445 30.9517-50.72 24.19 39.275Z"/>
  <path fill="#BBC8D7" d="m92.3359 378.794 23.3221-1.907-30.7783-36.674-.6069.26 8.0631 38.321Zm22.0221-2.514-21.5019 1.821-7.6296-36.501 29.1315 34.68Z"/>
  <path fill="#BBC8D7" d="m114.878 376.971 11.965-3.989-42.0497-32.859-.4335.52 30.5182 36.414v-.086Zm10.578-4.249-10.404 3.468-28.1779-33.639 38.5819 30.171Z"/>
  <path fill="#BBC8D7" d="m85.0508 340.731-5.9823-28.09h-.6936l4.5084 27.83 2.1675.26Zm-3.9015-14.999 3.0345 14.219h-.7803l-2.2542-14.219Z"/>
  <path fill="#BBC8D7" d="m75.6907 346.193 9.9704-5.983-2.6009-.26-7.803 5.722.3468.521h.0867Zm7.9764-5.549-2.2542 1.387 1.9074-1.387h.3468Z"/>
  <path fill="#BBC8D7" d="m92.3345 378.62.6069-.26-8.0631-38.495-9.7971 5.896 17.2533 32.859Zm-7.8897-37.714 7.3695 35.287-15.8661-30.172 8.4966-5.115Z"/>
  <path fill="#BBC8D7" d="m75.3459 346.365 8.41-6.156-16.9066-10.317 8.4966 16.559v-.086Zm7.1962-6.156-6.9361 5.115-7.0226-13.698 14.0453 8.583h-.0866Z"/>
  <path fill="#BBC8D7" d="m63.9013 338.477 4.335-7.976-4.5951-.867.2601 8.843Zm3.2946-7.456-2.6877 4.942-.1734-5.549 2.8611.52v.087ZM68.8377 274.145l42.2233-13.092-18.034-14.479-.1734.26-24.0159 27.311Zm40.8353-13.352-38.7545 12.051 22.1952-25.316 16.5593 13.265Z"/>
  <path fill="#BBC8D7" d="m78.6408 313.678 32.5122-53.321-41.6156 12.919v.26l9.1034 40.142Zm31.0382-52.193-30.6914 50.459-8.67-38.235 39.3614-12.224Z"/>
  <path fill="#BBC8D7" d="m83.6631 340.906-4.6818-29.045-11.6178 19.074 16.2996 9.971Zm-5.0286-27.137 4.1616 25.836-14.5656-8.93 10.404-16.906ZM94.6781 189.871l22.7159-40.228-51.4135 6.589 28.7844 33.639h-.0868ZM116.18 150.51l-21.5885 38.234-27.3105-31.992 48.899-6.242Z"/>
  <path fill="#BBC8D7" d="m66.0647 156.84 51.4993-6.589-38.4943-29.392-13.005 35.894v.087Zm49.8523-7.023-48.8119 6.243 12.3114-34.074 36.5005 27.831ZM40.2328 180.855l25.0563-26.357-28.7844 4.855 3.6413 21.415.0868.087Zm23.2356-25.317-22.8021 23.93-3.2946-19.508 26.0967-4.422ZM67.8829 331.106l11.0976-18.207-.5202-.347-15.0859 17.687 4.5085.867Zm8.4099-14.913-8.67 14.219-2.9478-.607 11.6178-13.612Z"/>
  <path fill="#BBC8D7" d="m66.7582 156.929 12.8316-35.374-.6069-.26-14.9991 33.813 2.7744 1.734v.087Zm8.9302-26.617-9.2769 25.663-1.6473-1.041 10.9242-24.622ZM75.2601 346.107l.5202-.434-8.0631-15.693-3.9882 7.283 11.5311 8.844Zm-7.5429-14.653 6.7626 13.265-9.8838-7.542 3.1212-5.636v-.087ZM61.4718 263.221l32.079-16.04-6.5025-9.277-26.01 24.797.3468.52h.0867Zm31.1253-16.3L63.2058 261.66l23.8425-22.802 5.6355 8.063h-.0867Z"/>
  <path fill="#BBC8D7" d="m69.8783 273.972.2601-.26 23.2356-26.444-.4335-.52-32.079 16.04 9.0168 11.184Zm21.8484-25.923-21.8484 24.882-7.9764-9.97 29.8248-14.912ZM87.3081 238.942l7.7163-50.286-41.009 21.589 33.206 28.697h.0867Zm6.936-49.072-7.3694 47.772-31.5589-27.224 38.9283-20.548ZM43.002 302.669l18.207-1.213-8.67-29.045-9.537 30.258Zm17.34-1.82-16.3863 1.127 8.5833-27.311 7.803 26.184Z"/>
  <path fill="#BBC8D7" d="M51.8451 273.883h18.7272l-9.1902-11.531-9.537 11.531Zm17.34-.694H53.319l8.0631-9.71 7.803 9.71Z"/>
  <path fill="#BBC8D7" d="m60.7736 302.321 9.5369-29.132H52.1036l8.67 29.132Zm8.5832-28.525-8.5832 26.27-7.8031-26.183h16.3863v-.087ZM47.9502 209.378l-3.5547-16.039h-.6069l-2.5143 14.392 6.6759 1.647Zm-3.8148-14.218 2.9478 13.351-5.0286-1.3 2.0808-12.051Z"/>
  <path fill="#BBC8D7" d="m43.8733 193.686.5203-.433-5.809-10.404-2.0808 4.248 7.3695 6.589Zm-5.2887-9.363 4.2484 7.542-5.5488-4.941 1.3004-2.601ZM52.3681 274.319l9.4503-11.444-14.4789-13.092 5.0286 24.45v.086Zm8.4966-11.357-8.1498 9.883-4.335-21.154 12.4848 11.271Z"/>
  <path fill="#BBC8D7" d="m61.3892 263.396.2601-.174 25.6632-24.536-.3468-.52-39.7086 12.571 14.1321 12.745v-.086Zm24.4494-24.276-24.4494 23.409-12.8316-11.618 37.281-11.791Z"/>
  <path fill="#BBC8D7" d="m47.4277 251.169 40.3155-12.745-33.2929-28.697-7.0226 41.442Zm38.9282-13.005-38.148 12.051 6.5892-39.275 31.4721 27.224h.0867ZM43.5282 193.863l51.7599-4.248-28.7844-33.639-23.0622 37.974.0867-.087Zm50.4594-4.855-49.1589 4.075 21.8484-36.067 27.3105 31.992Z"/>
  <path fill="#BBC8D7" d="m54.5339 210.767 40.2288-21.241-.1734-.607-51.0663 4.248 11.0109 17.687v-.087Zm38.4948-21.068L54.794 209.9l-10.1439-16.213 48.3786-3.988ZM64.502 331.193l-3.3813-30.431-18.2071 1.214 21.5884 29.217Zm-3.9882-29.738 3.0344 27.311-19.4207-26.27 16.3863-1.041Z"/>
  <path fill="#BBC8D7" d="m48.0327 251.343 6.9361-40.923-.6069-.173-12.0514 36.067 5.7222 5.029Zm5.5488-36.848-5.9823 35.547-4.5084-3.901 10.4907-31.646Z"/>
  <path fill="#BBC8D7" d="m43.0057 246.402 12.2248-36.76-17.6001 11.357 4.6817 25.403h.6936Zm11.011-35.113-11.2711 33.726-4.4217-23.669L53.93 211.289h.0867ZM43.7867 193.602l.6069-.26-3.9016-14.045-2.3409 4.335 5.6356 9.97Zm-3.4681-12.571 2.6877 9.797-4.0749-7.283 1.3872-2.514Z"/>
  <path fill="#BBC8D7" d="m43.9589 194.294 22.8888-37.628-.5202-.434-26.2701 23.843 3.9882 14.219h-.0867Zm21.0681-36.067L44.1323 192.56l-3.468-12.312 24.2759-22.021h.0868Z"/>
  <path fill="#BBC8D7" d="m40.6669 180.423 26.4435-24.016-2.7744-1.821-24.1026 25.316.4335.434v.087Zm25.4031-23.93-19.074 17.254 17.4267-18.294 1.6473 1.04ZM38.2381 221.343l17.34-11.184-8.1498-1.647v.173l-9.6237 12.138.4335.52Zm15.606-10.837-14.3055 9.19 8.1498-10.404 6.1557 1.214Z"/>
  <path fill="#BBC8D7" d="m38.322 221.258 9.7971-12.572-6.6759-1.647-3.7281 13.872.6069.26v.087Zm8.67-12.138-8.1498 10.404 3.1212-11.705 5.0286 1.301ZM43.6105 303.103l9.537-30.345-20.4612 12.398 10.9242 17.947Zm8.4099-28.871-8.5833 27.224-9.7971-16.127 18.3804-11.097Z"/>
  <path fill="#BBC8D7" d="M43.2676 247.27 38.4124 221h-.6936l-1.1271 19.334 6.6759 6.936Zm-5.0286-23.496 3.9882 21.415-4.9419-5.115.9537-16.3ZM41.3574 207.561h.6935l2.4276-14.218-8.1497-7.197 5.0286 21.502v-.087Zm2.4276-13.958-2.0809 12.224-4.1615-17.86 6.329 5.636h-.0866ZM23.2368 330.587l4.9419-2.601-4.8552-19.854h-.6936l.5202 22.455h.0867Zm4.1616-2.948-3.5547 1.908-.4335-18.207 3.9882 16.386v-.087Z"/>
  <path fill="#BBC8D7" d="m23.3188 308.303 6.5025-17.253-6.5025-4.335-.6069 21.415h.6069v.173Zm5.6355-16.82-5.5489 14.826.5203-18.207 5.0286 3.381Z"/>
  <path fill="#BBC8D7" d="m43.2639 302.584.5203-.434-10.5774-17.513-4.2483 6.589 14.3054 11.271v.087Zm-10.1438-16.647 9.1035 14.999-12.3981-9.797 3.2946-5.202Z"/>
  <path fill="#BBC8D7" d="m64.6797 330.412-21.2415-28.698-16.2129 26.357 37.4544 2.341Zm-21.1548-27.484 19.7676 26.79-34.9401-2.168 15.1725-24.536v-.086ZM76.4736 346.194 64.249 336.83l-40.6623 8.41v.694l52.8869.26Zm-12.3981-8.67 10.4041 7.976-47.685-.26 37.2809-7.716Z"/>
  <path fill="#BBC8D7" d="m64.502 337.695-.1735-7.89-36.5007-2.254v.693l36.6742 9.537v-.086Zm-.867-7.283.1733 6.416-32.5992-8.497 32.4259 1.994v.087ZM26.7002 211.116l15.4326-3.382-5.1153-21.761-10.3173 25.143Zm14.5656-3.902-13.5252 2.948 9.0168-22.109 4.5084 19.074v.087Z"/>
  <path fill="#BBC8D7" d="m38.2313 221.691 3.9015-14.652-15.606 3.381 11.6178 11.271h.0867Zm3.0345-13.785-3.3813 12.485-9.9705-9.624 13.3518-2.948v.087ZM38.7544 184.065l2.1675-4.075-15.1725-4.681-.2601.606 13.2651 8.15Zm1.2138-3.728-1.4739 2.775-10.4041-6.416 11.878 3.641Z"/>
  <path fill="#BBC8D7" d="m37.0208 187.62 2.0808-4.162-13.1785-8.149-.4334.52 11.5311 11.704v.087Zm1.2138-3.902-1.3873 2.775-9.0168-9.104 10.3174 6.329h.0867ZM29.4746 291.66l4.335-6.849-11.0976 2.427 6.7626 4.422Zm2.9477-5.896-3.1212 4.942-4.8551-3.208 7.9763-1.734ZM27.6552 328.591l16.5596-26.877-21.5882 6.156 5.0286 20.634v.087Zm15.0858-25.75-14.8257 24.016-4.5085-18.467 19.3342-5.549Z"/>
  <path fill="#BBC8D7" d="m22.4532 308.652 21.7616-6.243-14.999-11.791-6.7626 18.034Zm20.2878-6.503-19.2474 5.462 5.9823-15.952 13.2651 10.404v.086ZM52.9707 274.146l-4.9419-23.842-29.6514 7.543 34.5933 16.213v.086Zm-5.4621-22.975 4.5084 21.848-31.7322-14.912 27.2238-6.936Z"/>
  <path fill="#BBC8D7" d="m33.0313 285.765 20.2011-12.225-34.5933-16.213 14.3922 28.524v-.086Zm18.814-12.225-18.5538 11.271-13.1785-26.097 31.7323 14.913v-.087ZM38.8389 221.431 27.221 210.247h-.1733l-20.4612 9.537v.607l32.2524 1.04Zm-11.7046-10.404 10.0572 9.711-28.9578-.954 18.9006-8.757Z"/>
  <path fill="#BBC8D7" d="m19.5118 258.278 23.7558-11.964-6.4158-6.589-.2601.26-17.5134 17.773.3468.52h.0867Zm22.6287-12.138-21.1548 10.664 15.8661-16.039 5.2887 5.462v-.087Z"/>
  <path fill="#BBC8D7" d="m23.3234 287.759 10.3172-2.254-13.9586-27.657-.607.173 4.2484 29.738Zm9.3636-2.688-8.7567 1.908-3.9016-27.051 12.6583 25.143Z"/>
  <path fill="#BBC8D7" d="m19.5063 258.28 29.0445-7.456-5.8089-5.029-23.4957 11.791.2601.607v.087Zm27.6573-7.717-24.8829 6.33 20.3745-10.231 4.5084 3.901ZM36.8496 240.593v-.693l-34.2465-9.451-2.1675 8.41 36.414 1.734Zm-33.813-9.277 30.8652 8.497-32.5992-1.561 1.8207-6.936h-.0867ZM27.3973 211.029l10.2306-24.883-29.5647 20.028 19.4208 4.855h-.0867Zm8.7567-23.149-9.1035 22.369-17.4267-4.335 26.5302-17.947v-.087Z"/>
  <path fill="#BBC8D7" d="m19.4209 258.453 18.207-18.554-37.6278-1.821 19.3341 20.288.0867.087Zm16.7331-17.947-16.7331 16.993-17.7735-18.641 34.4199 1.648h.0867Z"/>
  <path fill="#BBC8D7" d="m37.1944 240.851 1.2138-20.114-32.6859-1.041 31.5588 21.155h-.0867Zm.5202-19.421-1.1271 18.207-28.611-19.247 29.7381.954v.086Z"/>
  <path fill="#BBC8D7" d="m36.7584 240.593.2602-.607-30.4318-20.375-4.2482 11.531 34.4198 9.451ZM6.9336 220.652l28.0041 18.814-31.7322-8.757 3.7282-10.057ZM23.3218 287.499l.6069-.174-4.2483-29.478L1.0399 238.34l-.5202.347 22.8021 48.898v-.086Zm-4.2483-29.392 3.9015 27.051-20.9814-44.997 17.0799 17.946Z"/>
</svg>