<svg width="160" height="160" viewBox="0 0 160 160" fill="none" xmlns="http://www.w3.org/2000/svg">
<g clip-path="url(#clip0_506_562)">
<path d="M72.8901 152.727L7.1101 86.9475C3.1801 83.0175 3.1801 76.6575 7.1101 72.7275L72.8901 6.9475C76.8201 3.0175 83.1801 3.0175 87.1101 6.9475L152.89 72.7275C156.82 76.6575 156.82 83.0175 152.89 86.9475L87.1101 152.727C83.1801 156.657 76.8201 156.657 72.8901 152.727Z" fill="url(#paint0_linear_506_562)"/>
<path d="M80.8401 59C85.2584 59 88.8401 55.4183 88.8401 51C88.8401 46.5817 85.2584 43 80.8401 43C76.4218 43 72.8401 46.5817 72.8401 51C72.8401 55.4183 76.4218 59 80.8401 59Z" fill="white"/>
<path d="M85.8401 60C85.8401 60 89.8401 60 90.8401 62C91.8401 64 94.8401 73 101.84 76C108.84 79 109.84 79 108.84 82C107.84 85 103.97 84 99.4101 82C94.8401 80 89.8401 75 89.8401 75C89.8401 75 89.8401 77 89.8401 79C89.8401 81 88.8401 83.89 88.8401 83.89C88.8401 83.89 94.8401 88 95.8401 93C96.8401 98 95.8401 108 95.8401 108C95.8401 108 96.8401 112 92.8401 112C88.8401 112 87.8401 107 87.8401 102C87.8401 97 88.8401 95 86.8401 93C84.8401 91 82.3801 90.5 82.3801 90.5C82.3801 90.5 83.9201 95.57 82.3801 98.78C80.8401 101.99 74.8401 107.69 72.8401 109.35C70.8401 111 67.5501 110.12 66.8401 108C65.8401 105 73.8401 98 73.8401 98L72.8401 92.72V71.2C72.8401 71.2 68.8401 72 67.8401 76C66.8401 80 66.8401 81 66.8401 81H60.8601C60.8601 81 60.8401 73 65.8401 68C70.8401 63 76.9101 60 76.9101 60L79.8401 64L80.8401 60.83L83.8401 64L85.8401 60Z" fill="white"/>
<path d="M55.1101 99.25C53.1701 99.25 51.5901 97.67 51.5901 95.73V84.78C51.5901 82.84 53.1701 81.26 55.1101 81.26H74.0701C76.0101 81.26 77.5901 82.84 77.5901 84.78V95.73C77.5901 97.67 76.0101 99.25 74.0701 99.25H55.1101Z" fill="#E5072D"/>
<path d="M74.0601 81.75C75.7301 81.75 77.0801 83.11 77.0801 84.77V95.73C77.0801 97.4 75.7201 98.75 74.0601 98.75H55.1101C53.4401 98.75 52.0901 97.39 52.0901 95.73V84.78C52.0901 83.11 53.4501 81.76 55.1101 81.76H74.0601M74.0601 80.75H55.1101C52.8901 80.75 51.0901 82.55 51.0901 84.77V95.73C51.0901 97.95 52.8901 99.75 55.1101 99.75H74.0701C76.2901 99.75 78.0901 97.95 78.0901 95.73V84.78C78.0901 82.55 76.2901 80.75 74.0601 80.75Z" fill="white"/>
<path d="M71.41 87.9801H66.86V83.4301H62.31V87.9801H57.76V92.5301H62.31V97.0801H66.86V92.5301H71.41V87.9801Z" fill="white"/>
</g>
<defs>
<linearGradient id="paint0_linear_506_562" x1="4.16438" y1="79.8364" x2="155.836" y2="79.8365" gradientUnits="userSpaceOnUse">
<stop stop-color="#39D6A8"/>
<stop offset="1" stop-color="#166D6D"/>
</linearGradient>
<clipPath id="clip0_506_562">
<rect width="160" height="160" fill="white"/>
</clipPath>
</defs>
</svg>
