<svg xmlns="http://www.w3.org/2000/svg" fill="none" viewBox="0 0 1389.3 1389.3">
  <defs>
    <linearGradient id="a" x1="1.2" x2="605.4" y1="-116.1" y2="694.7" gradientUnits="userSpaceOnUse">
      <stop stop-color="#4995EC"/>
      <stop offset="1" stop-color="#4995EC" stop-opacity=".6"/>
    </linearGradient>
    <linearGradient id="b" x1="166.9" x2="595.2" y1="62.3" y2="694.7" gradientUnits="userSpaceOnUse">
      <stop stop-color="#4995EC"/>
      <stop offset="1" stop-color="#4995EC" stop-opacity=".4"/>
    </linearGradient>
    <linearGradient id="c" x1="258.7" x2="679.4" y1="220.4" y2="671.7" gradientUnits="userSpaceOnUse">
      <stop stop-color="#4995EC"/>
      <stop offset="1" stop-color="#4995EC" stop-opacity=".4"/>
    </linearGradient>
    <clipPath id="d">
      <rect width="225" height="79" fill="#fff" fill-opacity="0" rx="7.5" transform="translate(947 218.9)"/>
    </clipPath>
    <clipPath id="e">
      <rect width="204" height="79" fill="#fff" fill-opacity="0" rx="7.5" transform="translate(621 316.9)"/>
    </clipPath>
    <clipPath id="f">
      <rect width="232" height="79" fill="#fff" fill-opacity="0" rx="7.5" transform="translate(1001 492.9)"/>
    </clipPath>
  </defs>
  <circle r="514.5" stroke="#4995EC" stroke-opacity=".5" transform="rotate(117.5 136.6 558.1)"/>
  <circle r="433" stroke="url(#a)" stroke-dasharray="4 4" transform="rotate(117.5 136.6 558.1)"/>
  <circle r="351.4" stroke="url(#b)" stroke-opacity=".2" transform="rotate(117.5 136.6 558.1)"/>
  <circle r="269.8" stroke="url(#c)" stroke-dasharray="4 4" transform="rotate(117.5 136.6 558.1)"/>
  <rect width="225" height="79" fill="#F3F9FF" rx="7.5" transform="translate(947 218.9)"/>
  <g clip-path="url(#d)">
    <path fill="#133A66" fill-opacity=".5" fill-rule="evenodd" d="M1022.5 267.1v4.2h3.1V267q1.5 0 2.7-.5.8-.3 1.5-1 .3-.1.5-.4l.3-.3q.7-.8 1-1.8.5-1.2.5-2.8 0-1.5-.5-2.7-.4-1-1-1.9l-.3-.3-.6-.5q-.7-.5-1.5-.8-1.2-.5-2.6-.5v-4.2h-3v4.2q-1.5 0-2.7.5-.8.3-1.4.8l-.7.5q0 .2-.2.3-.7.8-1.1 1.9-.5 1.2-.5 2.8 0 1.5.5 2.7.4 1 1 1.8l.3.3.5.5q.7.6 1.6 1 1.2.4 2.6.4Zm0-11v8.5q-.8 0-1.4-.3l-.5-.3-.6-.6q-.4-.6-.6-1.4l-.2-1.6q0-1.2.3-2.2.4-.8 1-1.4l.2-.2.2-.1q.7-.4 1.6-.4Zm3.1 8.5q.8 0 1.5-.3l.5-.4.5-.5.7-1.4.2-1.6q0-1.2-.4-2.2-.3-.8-1-1.3 0-.2-.2-.3l-.2-.1q-.7-.4-1.6-.4v8.5Zm14.2 2.5v4.2h3V267q1.5 0 2.7-.5.9-.3 1.6-1l.5-.4.3-.3q.6-.8 1-1.8.5-1.2.5-2.8 0-1.5-.5-2.7-.4-1-1.1-1.9l-.2-.3-.7-.5q-.6-.5-1.4-.8-1.2-.5-2.6-.5v-4.2h-3.1v4.2q-1.5 0-2.7.5-.8.3-1.4.8l-.6.5-.3.3q-.7.8-1 1.9-.5 1.2-.5 2.8 0 1.5.4 2.7.4 1 1 1.8l.4.3.5.5q.7.6 1.5 1 1.2.4 2.7.4Zm0-11v8.5q-.8 0-1.5-.3l-.4-.3-.6-.6-.7-1.4-.2-1.6q0-1.2.4-2.2.3-.8 1-1.4l.1-.2.3-.1q.7-.4 1.6-.4Zm3 8.5q.9 0 1.5-.3l.6-.4.5-.5q.4-.6.6-1.4l.2-1.6q0-1.2-.4-2.2-.3-.8-.9-1.3 0-.2-.2-.3l-.2-.1q-.7-.4-1.6-.4v8.5Zm-34.8-8.3 1-.2q.9 0 1.4.4l.3.2.1.2q.5.6.8 1.3l.1.6.1.5h-4v2h4l-.2 1q-.3.8-.8 1.4l-.1.2q-.2 0-.3.2-.6.4-1.4.4-.6 0-1-.2l-.3-.1-.5-.5-.3-.4-.2-.4-.1-.8h-2.9q0 1.4.6 2.5l.1.1.7.9q.5.5 1.1.8 1.2.7 2.8.7 1.9 0 3.2-.9.6-.4 1-.9.6-.6 1-1.5.7-1.5.7-3.3v-.4q0-1.8-.7-3.3-.4-.9-1-1.5l-1-.9q-1.3-.8-3.2-.8-1.1 0-2 .3l-.7.3q-.8.4-1.3 1l-.5.6-.5.8q-.3.7-.3 1.6h2.9l.1-.7.2-.4.2-.2.7-.5.2-.1Zm-14.6 10q1.4.8 3.4.8 1.5 0 2.7-.5 1.2-.4 2-1.3l.5-.7.5-1.3-2.9-.3-.5.9h-.1l-.1.1-.9.5q-.5.2-1.1.2-1 0-1.8-.4l-.4-.3q-.5-.4-.8-1-.4-.8-.4-1.9h9.1v-1q0-1.6-.5-2.9-.4-1.2-1.3-2-.4-.5-1-.8-.4-.3-.9-.4h-.1q-1-.4-2.2-.4-1.8 0-3.1.7l-.1.1-.9.7q-.8.7-1.3 1.7-.8 1.6-.8 3.6t.8 3.5q.5 1 1.1 1.6l1.1.8Zm.1-7.2q0-.8.4-1.4.2-.5.6-.8l.4-.4h.1q.7-.5 1.6-.5 1 0 1.7.4l.3.3.7 1q.3.6.3 1.4h-6Zm60 7.2q1.4.8 3.4.8 1.5 0 2.7-.5 1.2-.4 2-1.3l.5-.7.5-1.3-3-.3q-.1.5-.4.9h-.1l-.1.1-.9.5q-.5.2-1.2.2-1 0-1.7-.4l-.4-.3q-.5-.4-.8-1-.4-.8-.4-1.9h9v-1q0-1.6-.4-2.9-.5-1.2-1.3-2-.4-.5-1-.8-.4-.3-1-.4-1-.4-2.2-.4-1.8 0-3.1.7l-.2.1-.8.7q-.8.7-1.3 1.7-.8 1.6-.8 3.6t.8 3.5q.4 1 1.1 1.6l1 .8Zm.1-7.2q0-.8.3-1.4l.6-.8q.2-.3.5-.4.8-.5 1.7-.5 1 0 1.7.4l.2.3q.5.4.8 1l.3 1.4h-6.1Zm78 7.2q1.4.8 3.3.8 2 0 3.3-.8l1-.8q.7-.6 1.2-1.6.8-1.5.8-3.5t-.8-3.6q-.5-1-1.3-1.7l-.9-.7q-1.4-.8-3.3-.8-2 0-3.3.8l-1 .7q-.7.7-1.2 1.7-.8 1.5-.8 3.6 0 2 .8 3.5.5 1 1.2 1.6l1 .8Zm-151-7.3v-5.3h-2.9v13.1h3v-5.3h5v5.3h3v-13h-3v5.2h-5Zm83.8-5.3v13.1h3V262h1.6l3.5 5h3.8l-5-6.7 5-6.5h-3.8l-4 5.3h-1v-5.3h-3.1Zm12 0v2.6h4.2v10.5h3v-10.5h4.3v-2.6h-11.5Zm21.2 0-5.2 9v-9h-3v13.1h3.2l5.2-8.9v9h3v-13.2h-3.2Zm5.5 0v13.1h6.3q1.6 0 2.6-.4 1.1-.4 1.7-1.2l.3-.5q.3-.6.3-1.4 0-.8-.4-1.4v-.2l-.3-.3q-.4-.5-1-.9-.8-.4-1.8-.5 1.3-.3 2-1 .4-.2.5-.5.3-.5.3-1.2 0-.9-.3-1.5-.4-.7-1-1.1-1.4-1-3.7-1h-5.5Zm15.8 5.3v-5.3h-3v13.1h3v-5.3h5v5.3h3v-13h-3v5.2h-5Zm17.6 5.2q-.7.4-1.6.4-.9 0-1.5-.4l-.2-.1-.1-.1q-.7-.6-1-1.5-.3-1-.3-2.1 0-1.3.3-2.2.3-1 1-1.5l.4-.3q.6-.3 1.4-.3 1 0 1.5.4l.3.1q.7.6 1 1.6.3 1 .3 2.2 0 1.1-.3 2.1t-1 1.5l-.2.2Zm-27.8-5h-2.7v-3h2.6q1 0 1.5.4l.4.4q.2.3.2.7 0 .4-.2.6-.1.3-.4.5-.5.4-1.4.4Zm.7 5.2h-3.4v-3.2h3.4q.8 0 1.3.3v.1l.3.3q.3.4.3 1l-.2.8-.3.3q-.5.4-1.4.4Z"/>
  </g>
  <rect width="204" height="79" fill="#F3F9FF" rx="7.5" transform="translate(621 316.9)"/>
  <g clip-path="url(#e)">
    <path fill="#133A66" fill-opacity=".5" fill-rule="evenodd" d="m689.9 348.9-1.1-2q-.4.3-1 .4h-3.2q-2.5.1-4 1.3l-1.1 1.1q-1.8 2.3-1.8 6.9v1.2q0 3.6 1.7 5.4.5.6 1.1 1 1.5.9 3.5.9 1.9 0 3.3-.8l1-.8q.7-.6 1.1-1.5.8-1.5.8-3.5t-.7-3.3q-.5-1-1.3-1.7l-.7-.4-.1-.1q-1.2-.7-2.8-.7-1.4 0-2.6.7l-.6.4q-.6.6-1 1.4h-.2q.1-1.6.6-2.7.4-.8 1-1.3l.5-.3q.9-.5 2.4-.5h2.2l1.7-.4.5-.2.8-.5Zm-22.5 15.4q1.4.8 3.4.8 1.5 0 2.7-.5 1.2-.4 2-1.3l.5-.7.5-1.3-2.9-.3-.5.9h-.1l-.1.1-.9.5q-.5.2-1.1.2-1 0-1.8-.4l-.4-.3q-.5-.4-.8-1-.4-.8-.4-1.9h9.1v-1q0-1.6-.5-2.9-.4-1.2-1.3-2-.4-.5-1-.8-.4-.3-.9-.4h-.1q-1-.4-2.2-.4-1.8 0-3.1.7l-.1.1-.9.7q-.8.7-1.3 1.7-.8 1.6-.8 3.6t.8 3.5q.5 1 1.1 1.6l1.1.8Zm.1-7.2q0-.8.4-1.4.2-.5.6-.8l.4-.4h.1q.7-.5 1.6-.5 1 0 1.7.4l.3.3.7 1q.3.6.3 1.4h-6Zm26.8 7.2q1.4.8 3.4.8 1.5 0 2.7-.5 1.2-.4 2-1.3l.5-.7.5-1.3-3-.3q-.1.5-.4.9h-.1l-.1.1-.9.5q-.5.2-1.2.2-1 0-1.7-.4l-.4-.3q-.5-.4-.8-1-.4-.8-.4-1.9h9.1v-1q0-1.6-.5-2.9-.5-1.2-1.3-2-.4-.5-1-.8-.4-.3-1-.4-1-.4-2.2-.4-1.8 0-3.1.7l-.2.1-.8.7q-.8.7-1.3 1.7-.8 1.6-.8 3.6t.8 3.5q.4 1 1.1 1.6l1.1.8Zm.1-7.2q0-.8.4-1.4l.5-.8.5-.4q.8-.5 1.7-.5 1 0 1.7.4l.2.3q.5.4.8 1l.3 1.4h-6Zm13.6 4.1h-3q0 1 .3 1.6l.3.5q.8.9 2 1.3 1.1.5 2.6.5 1.6 0 2.8-.5 1.2-.4 1.9-1.3l.4-.6q.3-.7.3-1.5 0-.9-.4-1.6l-.5-.6-.5-.4-.3-.2-1-.3q1-.4 1.7-1l.4-.6q.3-.5.3-1.2 0-.8-.3-1.5l-.3-.5q-.7-.8-1.8-1.3-1-.4-2.6-.4-1.4 0-2.6.4-1 .5-1.7 1.2v.2l-.5.6-.3 1.3h3l.2-.4q.1-.4.5-.6.6-.4 1.5-.4 1 0 1.5.4l.3.4.2.8-.1.6q-.1.3-.4.5-.5.4-1.4.4h-2v2.2h2q.6 0 1 .3.5.1.7.4l.1.2.1.1.2.8q0 .6-.3 1l-.4.4q-.7.4-1.7.4t-1.6-.4q-.3-.2-.4-.5-.2-.3-.2-.7Zm11 3q1.5.9 3.4.9t3.3-.8l1-.8q.7-.6 1.2-1.6.8-1.5.8-3.5t-.8-3.6q-.5-1-1.3-1.7l-.9-.7q-1.4-.8-3.3-.8-2 0-3.4.8l-.9.7q-.7.7-1.2 1.7-.8 1.5-.8 3.6 0 2 .8 3.5.5 1 1.2 1.6l1 .8Zm26.2.5q1 .4 2.3.4 1 0 1.8-.3l1.2-.7.8-1h.1v1.7h3v-8.7q0-1.3-.5-2.2-.3-.6-.8-1l-.5-.4-.5-.3q-.5-.3-1.2-.4l-1.9-.2q-1.3 0-2.5.4-.8.3-1.5.8l-.4.4-.1.1q-.7.8-1 1.9l2.9.4v-.1q.3-.6.9-1 .6-.6 1.8-.6 1 0 1.6.6l.2.2q.4.5.4 1.3 0 .3-.2.5l-.2.2q-.3.2-1 .3l-1.9.2q-1 0-1.8.3-.9.2-1.6.7l-.6.4-.5.7q-.4.8-.4 1.9 0 1.3.5 2.1l.5.6q.5.5 1.1.8Zm13.8-.5q1.4.9 3.4.9 1.6 0 2.8-.6.9-.4 1.5-1.1l.4-.6.3-.4q.5-.9.6-2h-3q-.1.8-.6 1.4l-.3.2-.4.3q-.6.3-1.3.3-.7 0-1.3-.3l-.4-.2q-.7-.6-1.1-1.5-.4-1-.4-2.3 0-1.3.4-2.3.4-1 1.1-1.4l.5-.3q.5-.2 1.2-.2t1.3.3l.6.4.3.3v.2l.4 1h3q-.1-1.2-.6-2.1l-.3-.4-.5-.6q-.6-.6-1.4-1-1.3-.6-2.9-.6-1.8 0-3.2.8l-1 .8q-.8.7-1.3 1.6-.7 1.6-.7 3.6t.7 3.5q.5.9 1.2 1.5.4.5 1 .8Zm26.3 0q1.4.9 3.3.9 2 0 3.4-.8l1-.8q.6-.6 1.1-1.6.8-1.5.8-3.5t-.8-3.6q-.5-1-1.2-1.7l-1-.7q-1.4-.8-3.3-.8t-3.3.8l-.9.7q-.8.7-1.3 1.7-.7 1.5-.7 3.6 0 2 .7 3.5.5 1 1.3 1.6l.9.8ZM654.7 357v-5.3h-3v13.1h3v-5.3h5v5.3h3v-13h-3v5.2h-5Zm75.6-5.3v13.1h3v-10.5h5.1v10.5h3v-13h-11Zm42.3 5.3v-5.3h-3v13.1h3v-5.3h5v5.3h3v-13h-3v5.2h-5Zm-48.6 5.2q-.7.4-1.6.4-.9 0-1.5-.4l-.3-.1v-.1q-.7-.6-1-1.5-.4-1-.4-2.1 0-1.3.4-2.2.3-1 1-1.5l.3-.3q.6-.3 1.5-.3t1.5.4l.2.1q.7.6 1 1.6.4 1 .4 2.2 0 1.1-.3 2.1-.4 1-1 1.5l-.3.2Zm66.2 0q-.6.4-1.6.4-.8 0-1.5-.4l-.2-.1-.1-.1q-.6-.6-1-1.5-.3-1-.3-2.1 0-1.3.3-2.2.4-1 1-1.5l.4-.3q.6-.3 1.4-.3 1 0 1.6.4l.2.1q.7.6 1 1.6.4 1 .4 2.2 0 1.1-.4 2.1-.3 1-1 1.5l-.2.2Zm-104.8 0q-.6.4-1.4.4-.9 0-1.5-.3-.5-.3-.8-.8-.8-1-.8-2.9 0-1 .2-1.6.2-.7.6-1.2.3-.4.7-.6l.3-.2q.5-.2 1.3-.2 1 0 1.6.4l.2.1q.6.5.9 1.2.4.9.3 2.1 0 1.3-.3 2.1-.4.9-1 1.4l-.3.2Zm64.5.3q-.7.3-1.6.3-1 0-1.6-.4-.3-.1-.4-.4-.3-.3-.3-.9 0-.5.3-.9.4-.4 1-.6.5-.3 1.2-.4h.7l.8-.2q.5 0 .8-.2.3 0 .5-.2v1.5l-.1.8q0 .3-.3.6l-.1.2q-.4.5-1 .8Z"/>
  </g>
  <rect width="232" height="79" fill="#F3F9FF" rx="7.5" transform="translate(1001 492.9)"/>
  <g clip-path="url(#f)">
    <path fill="#133A66" fill-opacity=".5" fill-rule="evenodd" d="M1047.4 540.3q1.4.8 3.4.8 1.5 0 2.7-.5 1.2-.4 2-1.3l.5-.7.5-1.3-2.9-.3-.5.9h-.1v.1l-1 .5q-.5.2-1.1.2-1 0-1.7-.4h-.1l-.4-.3q-.5-.4-.8-1-.4-.8-.4-1.9h9.1v-1q0-1.6-.4-2.9-.5-1.2-1.4-2-.4-.5-1-.8-.4-.3-.9-.4h-.1q-1-.4-2.2-.4-1.8 0-3 .7l-.2.1-.9.7q-.8.7-1.3 1.7-.8 1.5-.8 3.6 0 2 .8 3.5.5 1 1.1 1.6l1.1.8Zm.1-7.2q0-.8.4-1.4l.5-.9.5-.3.1-.1q.7-.4 1.6-.4 1 0 1.7.5l.3.1.7 1.1q.3.6.3 1.4h-6Zm28 7.2q1.4.8 3.3.8 2 0 3.4-.8l1-.8q.7-.6 1.2-1.6.7-1.5.7-3.5t-.7-3.6q-.6-1-1.3-1.7l-1-.7q-1.3-.8-3.3-.8-1.9 0-3.3.8l-.9.7q-.8.7-1.3 1.7-.7 1.5-.7 3.6 0 2 .7 3.5.5 1 1.3 1.6.4.5 1 .8Zm37 0q1.4.8 3.3.8 2 0 3.3-.8.6-.3 1-.8.7-.6 1.2-1.6.8-1.5.8-3.5t-.8-3.6q-.5-1-1.3-1.7l-.9-.7q-1.4-.8-3.3-.8-2 0-3.3.8l-1 .7q-.7.7-1.2 1.7-.8 1.5-.8 3.6 0 2 .8 3.5.5 1 1.2 1.6l1 .8Zm13.6 0q1.4.8 3.4.8 1.6 0 2.9-.6.8-.4 1.5-1.1l.4-.6.2-.4q.5-.9.6-2h-3q-.1.8-.6 1.4l-.3.2-.4.3q-.6.3-1.3.3-.7 0-1.2-.3-.3 0-.5-.2-.7-.6-1-1.5-.4-1-.4-2.3 0-1.3.3-2.3.5-1 1.2-1.4l.4-.3 1.2-.2q.8 0 1.3.3.4.1.6.4l.3.4.1.1.4 1h3q-.2-1.2-.7-2.1l-.2-.4-.5-.6q-.6-.6-1.5-1-1.2-.6-2.8-.6-1.9 0-3.2.8h-.1l-1 .8q-.8.7-1.2 1.6-.8 1.5-.8 3.6 0 2 .8 3.5.4.9 1 1.5l1.1.8Zm10.7-12.6v18h3v-7h.2q.2.5.7 1 .4.6 1.2 1 .7.4 1.8.4t2-.4l.8-.4.2-.2q1-.8 1.7-2.1.7-1.5.7-3.7t-.7-3.7q-.7-1.4-1.8-2.1l-.1-.1-1-.5q-.8-.3-1.8-.3-1.1 0-1.9.4-.7.4-1.1.9-.5.5-.7 1h-.2v-2.2h-3Zm16.4 12.6q1.4.8 3.3.8 2 0 3.4-.8l1-.8q.7-.6 1.1-1.6.8-1.5.8-3.5t-.8-3.6q-.5-1-1.2-1.7l-1-.7q-1.3-.8-3.3-.8-1.9 0-3.3.8l-.9.7q-.8.7-1.3 1.7-.7 1.5-.7 3.6 0 2 .7 3.5.5 1 1.3 1.6.4.5 1 .8Zm40.2 0q1.4.8 3.3.8 2 0 3.4-.8l1-.8q.7-.6 1.2-1.6.7-1.5.7-3.5t-.8-3.6q-.5-1-1.2-1.7l-1-.7q-1.3-.8-3.3-.8-1.9 0-3.3.8l-.9.7q-.8.7-1.3 1.7-.7 1.5-.7 3.6 0 2 .7 3.5.5 1 1.3 1.6.4.5 1 .8Zm-21-3.6-.8.2h-1.4q-2.6 0-4.2-1.1l-.5-.5q-1-1.2-1-3.2v-4.4h3v4.4q0 .8.3 1.4l.2.3.7.4q.6.2 1.5.2l2-.2h.3v-6.5h3v13.1h-3v-4.1Zm-137.7-3.7v-5.3h-3v13.1h3v-5.3h5v5.3h3v-13h-3v5.2h-5Zm22.4 5.3v6.4h3v-3.9h8.7v3.9h3v-6.4h-2v-10.6h-9.6l-.3 4.6-.3 2q0 1-.3 1.8-.1.8-.4 1.3-.3.6-.7.9h-1Zm28.8 0v2.5h1q1 0 1.8-.3l.3-.2q.6-.4 1-1 .5-.8.8-2 .3-1.2.4-2.8l.2-4.2h3.7v10.5h3v-13h-9.5l-.3 5.8q0 1.8-.2 2.8-.3 1-.7 1.5l-.2.1q-.3.3-.9.3h-.4Zm23.2-8v-2.6h-8.7v13.1h3v-10.5h5.7Zm71.6 2.7v-5.3h-3v13.1h3v-5.3h5v5.3h3v-13h-3v5.2h-5Zm-100.3 5.2q-.6.4-1.6.4-.8 0-1.4-.4-.2 0-.3-.2-.7-.6-1-1.5-.4-1-.4-2.1 0-1.3.3-2.2.4-1 1-1.5h.1l.3-.3q.6-.3 1.4-.3 1 0 1.6.4l.2.1q.7.6 1 1.6.4 1 .4 2.1 0 1.2-.4 2.2-.3 1-1 1.5l-.2.2Zm37 0q-.7.4-1.6.4-.9 0-1.5-.4l-.2-.2h-.1q-.7-.6-1-1.5-.3-1-.3-2.1 0-1.3.3-2.2.3-1 1-1.5l.4-.3q.6-.3 1.4-.3 1 0 1.5.4l.3.1q.7.6 1 1.6.3 1 .3 2.1 0 1.2-.3 2.2-.3 1-1 1.5l-.2.2Zm40.7 0q-.6.4-1.6.4-.8 0-1.4-.4-.2 0-.3-.2-.7-.6-1-1.5-.4-1-.4-2.1 0-1.3.3-2.2.4-1 1-1.5h.1l.3-.3q.6-.3 1.4-.3 1 0 1.6.4l.2.1q.7.6 1 1.6.4 1 .4 2.1 0 1.2-.4 2.2-.3 1-1 1.5l-.2.2Zm40.2 0q-.6.4-1.6.4-.8 0-1.4-.4-.2 0-.3-.2h-.1q-.6-.6-1-1.5-.3-1-.3-2.1 0-1.3.3-2.2.4-1 1-1.5l.4-.3q.6-.3 1.4-.3 1 0 1.6.4l.2.1q.7.6 1 1.6.4 1 .4 2.1 0 1.2-.4 2.2-.3 1-1 1.5l-.2.2Zm-54 0q-.6.3-1.4.3-.8 0-1.4-.3-.2 0-.3-.2-.7-.5-1-1.5-.4-1-.4-2.2 0-1.3.4-2.2.3-1 1-1.5l.2-.1q.6-.4 1.5-.4t1.5.4l.2.1q.7.6 1 1.5.4 1 .4 2.2 0 1.2-.4 2.2-.3 1-1 1.5l-.3.2Zm-77.5.1h-5.5q.7-1 1-2.4.3-1.5.4-3.6l.2-2h3.8v8Z"/>
  </g>
  <circle cx="723.6" cy="425.4" r="13" fill="#F3F9FF"/>
  <circle cx="723.6" cy="425.4" r="4" fill="#133A66"/>
  <circle cx="1117.6" cy="601.4" r="13" fill="#F3F9FF"/>
  <circle cx="1117.6" cy="601.4" r="4" fill="#133A66"/>
  <circle cx="1059.6" cy="327.4" r="13" fill="#F3F9FF"/>
  <circle cx="1059.6" cy="327.4" r="4" fill="#133A66"/>
</svg>