<svg width="104" height="13" viewBox="0 0 104 13" fill="none" xmlns="http://www.w3.org/2000/svg">
<path d="M5.82416 1.98961H1.85463V8.9745H0V0.201172H7.6788V8.9745H5.82416V1.98961Z" fill="#FF4A37"/>
<path d="M9.48438 0.20246H11.339V1.16415C11.7186 0.792973 12.1253 0.506156 12.5591 0.30369C12.993 0.10123 13.481 0 14.0233 0C14.6307 0 15.1893 0.118104 15.699 0.354305C16.2196 0.579264 16.6643 0.899827 17.033 1.316C17.4018 1.72092 17.6892 2.20461 17.8953 2.76695C18.1014 3.31813 18.2044 3.91989 18.2044 4.57223C18.2044 5.24712 18.0905 5.86576 17.8628 6.42815C17.6458 6.97928 17.3476 7.45733 16.9679 7.86227C16.5884 8.25593 16.1329 8.56525 15.6014 8.79023C15.0808 9.01515 14.5222 9.12764 13.9257 9.12764C13.3943 9.12764 12.9171 9.0433 12.4941 8.87457C12.0711 8.70583 11.6861 8.46964 11.339 8.16598V12.3502H9.48438V0.20246ZM13.6492 7.33924C14.0179 7.33924 14.3596 7.27738 14.6741 7.15362C14.9995 7.02992 15.2814 6.84996 15.5201 6.61377C15.7587 6.3663 15.943 6.07386 16.0732 5.73639C16.2142 5.3877 16.2847 4.99404 16.2847 4.55541C16.2847 4.15048 16.225 3.7793 16.1057 3.44184C15.9864 3.09315 15.8129 2.80071 15.5851 2.56451C15.3682 2.31704 15.1079 2.12582 14.8042 1.9909C14.5005 1.85592 14.1643 1.78841 13.7956 1.78841C13.2316 1.78841 12.7327 1.92899 12.2988 2.21022C11.8759 2.49139 11.5559 2.82886 11.339 3.22252V5.88825C11.5559 6.36069 11.865 6.7206 12.2663 6.96806C12.6676 7.21553 13.1286 7.33924 13.6492 7.33924Z" fill="#FF4A37"/>
<path d="M19.1719 4.57223C19.1719 3.90862 19.2803 3.30125 19.4973 2.75012C19.7142 2.18773 20.0233 1.70405 20.4246 1.29913C20.8259 0.894203 21.3031 0.579264 21.8562 0.354305C22.4094 0.118104 23.0221 0 23.6946 0C24.3562 0 24.9635 0.118104 25.5167 0.354305C26.0807 0.579264 26.5633 0.894203 26.9646 1.29913C27.3659 1.70405 27.675 2.18773 27.8919 2.75012C28.1197 3.30125 28.2335 3.90862 28.2335 4.57223C28.2335 5.2359 28.1197 5.84888 27.8919 6.41128C27.675 6.96245 27.3659 7.44046 26.9646 7.84539C26.5633 8.25032 26.0807 8.56525 25.5167 8.79023C24.9635 9.01515 24.3562 9.12764 23.6946 9.12764C23.033 9.12764 22.4256 9.01515 21.8725 8.79023C21.3193 8.56525 20.8421 8.25032 20.4408 7.84539C20.0395 7.44046 19.725 6.96245 19.4973 6.41128C19.2803 5.84888 19.1719 5.2359 19.1719 4.57223ZM21.0916 4.57223C21.0916 4.96595 21.1513 5.33151 21.2706 5.66893C21.4007 6.00635 21.5796 6.29879 21.8074 6.54625C22.0352 6.79372 22.3063 6.99055 22.6208 7.1368C22.9462 7.27172 23.3041 7.33924 23.6946 7.33924C24.085 7.33924 24.4375 7.27738 24.752 7.15362C25.0774 7.01865 25.354 6.83309 25.5818 6.59689C25.8095 6.34942 25.9885 6.05698 26.1186 5.71956C26.2488 5.3821 26.3138 4.99965 26.3138 4.57223C26.3138 4.14482 26.2434 3.76242 26.1024 3.42496C25.9722 3.07627 25.7878 2.78383 25.5492 2.54763C25.3106 2.30017 25.034 2.1146 24.7195 1.9909C24.405 1.85592 24.0633 1.78841 23.6946 1.78841C23.3258 1.78841 22.9788 1.85592 22.6534 1.9909C22.3389 2.1146 22.0623 2.30017 21.8237 2.54763C21.5959 2.78383 21.417 3.07627 21.2868 3.42496C21.1567 3.76242 21.0916 4.14482 21.0916 4.57223Z" fill="#FF4A37"/>
<path d="M28.7266 7.18609H29.706C30.0868 6.67994 30.3426 6.10067 30.4732 5.44832C30.6038 4.79592 30.6691 4.05919 30.6691 3.23811V0.201172H37.4923V7.18609H38.6839V10.9823H36.9536V8.9745H30.4568V10.9823H28.7266V7.18609ZM35.6314 7.18609V1.98961H32.432V4.23353C32.432 4.77344 32.3613 5.31334 32.2198 5.8532C32.0783 6.38189 31.8825 6.82619 31.6322 7.18609H35.6314Z" fill="#3981F1"/>
<path d="M39.0625 4.57223C39.0625 3.90862 39.1713 3.30125 39.389 2.75012C39.6066 2.18773 39.9167 1.70405 40.3194 1.29913C40.722 0.894203 41.2009 0.579264 41.7558 0.354305C42.3109 0.118104 42.9257 0 43.6004 0C44.2642 0 44.8736 0.118104 45.4286 0.354305C45.9945 0.579264 46.4788 0.894203 46.8814 1.29913C47.284 1.70405 47.5942 2.18773 47.8118 2.75012C48.0404 3.30125 48.1546 3.90862 48.1546 4.57223C48.1546 5.2359 48.0404 5.84888 47.8118 6.41128C47.5942 6.96245 47.284 7.44046 46.8814 7.84539C46.4788 8.25032 45.9945 8.56525 45.4286 8.79023C44.8736 9.01515 44.2642 9.12764 43.6004 9.12764C42.9366 9.12764 42.3271 9.01515 41.7722 8.79023C41.2172 8.56525 40.7384 8.25032 40.3357 7.84539C39.933 7.44046 39.6175 6.96245 39.389 6.41128C39.1713 5.84888 39.0625 5.2359 39.0625 4.57223ZM40.9886 4.57223C40.9886 4.96595 41.0485 5.33151 41.1682 5.66893C41.2988 6.00635 41.4783 6.29879 41.7069 6.54625C41.9354 6.79372 42.2074 6.99055 42.5231 7.1368C42.8495 7.27172 43.2086 7.33924 43.6004 7.33924C43.9922 7.33924 44.3458 7.27738 44.6614 7.15362C44.9879 7.01865 45.2654 6.83309 45.4939 6.59689C45.7224 6.34942 45.902 6.05698 46.0326 5.71956C46.1631 5.3821 46.2285 4.99965 46.2285 4.57223C46.2285 4.14482 46.1578 3.76242 46.0163 3.42496C45.8857 3.07627 45.7007 2.78383 45.4612 2.54763C45.2218 2.30017 44.9444 2.1146 44.6288 1.9909C44.3132 1.85592 43.9704 1.78841 43.6004 1.78841C43.2304 1.78841 42.8822 1.85592 42.5557 1.9909C42.2401 2.1146 41.9626 2.30017 41.7232 2.54763C41.4947 2.78383 41.3151 3.07627 41.1845 3.42496C41.0539 3.76242 40.9886 4.14482 40.9886 4.57223Z" fill="#3981F1"/>
<path d="M49.2969 0.201172H51.1577V3.76114L54.8304 0.201172H57.2626L53.1327 4.16607L57.4097 8.9745H55.0265L51.7782 5.36393L51.1577 5.98818V8.9745H49.2969V0.201172Z" fill="#3981F1"/>
<path d="M58 0.201172H65.9987V1.98961H62.9296V8.9745H61.069V1.98961H58V0.201172Z" fill="#3981F1"/>
<path d="M66.4062 4.57223C66.4062 3.90862 66.5152 3.30125 66.7331 2.75012C66.9505 2.18773 67.2605 1.70405 67.6632 1.29913C68.0658 0.894203 68.5447 0.579264 69.0999 0.354305C69.6546 0.118104 70.2696 0 70.9442 0C71.6083 0 72.2174 0.118104 72.7726 0.354305C73.3387 0.579264 73.8225 0.894203 74.2252 1.29913C74.6278 1.70405 74.9383 2.18773 75.1557 2.75012C75.3845 3.30125 75.4984 3.90862 75.4984 4.57223C75.4984 5.2359 75.3845 5.84888 75.1557 6.41128C74.9383 6.96245 74.6278 7.44046 74.2252 7.84539C73.8225 8.25032 73.3387 8.56525 72.7726 8.79023C72.2174 9.01515 71.6083 9.12764 70.9442 9.12764C70.2805 9.12764 69.6709 9.01515 69.1162 8.79023C68.5611 8.56525 68.0822 8.25032 67.6795 7.84539C67.2769 7.44046 66.9614 6.96245 66.7331 6.41128C66.5152 5.84888 66.4062 5.2359 66.4062 4.57223ZM68.3327 4.57223C68.3327 4.96595 68.3927 5.33151 68.512 5.66893C68.6428 6.00635 68.8221 6.29879 69.0509 6.54625C69.2792 6.79372 69.5515 6.99055 69.867 7.1368C70.1934 7.27172 70.5524 7.33924 70.9442 7.33924C71.3359 7.33924 71.69 7.27738 72.0055 7.15362C72.3318 7.01865 72.6092 6.83309 72.838 6.59689C73.0663 6.34942 73.2461 6.05698 73.3763 5.71956C73.5071 5.3821 73.5724 4.99965 73.5724 4.57223C73.5724 4.14482 73.5016 3.76242 73.36 3.42496C73.2297 3.07627 73.0445 2.78383 72.8053 2.54763C72.5656 2.30017 72.2883 2.1146 71.9728 1.9909C71.6573 1.85592 71.3141 1.78841 70.9442 1.78841C70.5742 1.78841 70.2261 1.85592 69.8997 1.9909C69.5842 2.1146 69.3064 2.30017 69.0672 2.54763C68.8384 2.78383 68.6591 3.07627 68.5284 3.42496C68.3981 3.76242 68.3327 4.14482 68.3327 4.57223Z" fill="#3981F1"/>
<path d="M76.6406 0.20246H78.5013V1.16415C78.8821 0.792973 79.2902 0.506156 79.7255 0.30369C80.1608 0.10123 80.6506 0 81.1949 0C81.804 0 82.3646 0.118104 82.8762 0.354305C83.3982 0.579264 83.8444 0.899827 84.2144 1.316C84.5843 1.72092 84.8731 2.20461 85.0796 2.76695C85.2866 3.31813 85.3896 3.91989 85.3896 4.57223C85.3896 5.24712 85.2757 5.86576 85.0469 6.42815C84.8295 6.97928 84.5304 7.45733 84.149 7.86227C83.7682 8.25593 83.3111 8.56525 82.7782 8.79023C82.2557 9.01515 81.6951 9.12764 81.0968 9.12764C80.5634 9.12764 80.0845 9.0433 79.6601 8.87457C79.2357 8.70583 78.8494 8.46964 78.5013 8.16598V12.3502H76.6406V0.20246ZM80.8195 7.33924C81.1894 7.33924 81.5321 7.27738 81.8476 7.15362C82.174 7.02992 82.4573 6.84996 82.6965 6.61377C82.9357 6.3663 83.1209 6.07386 83.2516 5.73639C83.3928 5.3877 83.4636 4.99404 83.4636 4.55541C83.4636 4.15048 83.4037 3.7793 83.2843 3.44184C83.1645 3.09315 82.9901 2.80071 82.7618 2.56451C82.5439 2.31704 82.2829 2.12582 81.9784 1.9909C81.6733 1.85592 81.336 1.78841 80.9661 1.78841C80.4005 1.78841 79.8998 1.92899 79.4645 2.21022C79.0401 2.49139 78.7192 2.82886 78.5013 3.22252V5.88825C78.7192 6.36069 79.0292 6.7206 79.4318 6.96806C79.8344 7.21553 80.297 7.33924 80.8195 7.33924Z" fill="#3981F1"/>
<path d="M86.3125 4.57223C86.3125 3.90862 86.4215 3.30125 86.6389 2.75012C86.8568 2.18773 87.1668 1.70405 87.5694 1.29913C87.9721 0.894203 88.451 0.579264 89.0056 0.354305C89.5608 0.118104 90.1759 0 90.8504 0C91.514 0 92.1237 0.118104 92.6789 0.354305C93.2444 0.579264 93.7288 0.894203 94.1314 1.29913C94.534 1.70405 94.8441 2.18773 95.062 2.75012C95.2903 3.30125 95.4047 3.90862 95.4047 4.57223C95.4047 5.2359 95.2903 5.84888 95.062 6.41128C94.8441 6.96245 94.534 7.44046 94.1314 7.84539C93.7288 8.25032 93.2444 8.56525 92.6789 8.79023C92.1237 9.01515 91.514 9.12764 90.8504 9.12764C90.1868 9.12764 89.5771 9.01515 89.022 8.79023C88.4673 8.56525 87.9884 8.25032 87.5858 7.84539C87.1831 7.44046 86.8677 6.96245 86.6389 6.41128C86.4215 5.84888 86.3125 5.2359 86.3125 4.57223ZM88.2385 4.57223C88.2385 4.96595 88.2984 5.33151 88.4183 5.66893C88.549 6.00635 88.7283 6.29879 88.9571 6.54625C89.1854 6.79372 89.4573 6.99055 89.7733 7.1368C90.0996 7.27172 90.4587 7.33924 90.8504 7.33924C91.2422 7.33924 91.5958 7.27738 91.9112 7.15362C92.2381 7.01865 92.5154 6.83309 92.7437 6.59689C92.9725 6.34942 93.1518 6.05698 93.2826 5.71956C93.4133 5.3821 93.4787 4.99965 93.4787 4.57223C93.4787 4.14482 93.4078 3.76242 93.2662 3.42496C93.1355 3.07627 92.9507 2.78383 92.711 2.54763C92.4718 2.30017 92.1945 2.1146 91.8785 1.9909C91.5631 1.85592 91.2204 1.78841 90.8504 1.78841C90.4805 1.78841 90.1323 1.85592 89.8059 1.9909C89.49 2.1146 89.2126 2.30017 88.9734 2.54763C88.7446 2.78383 88.5654 3.07627 88.4346 3.42496C88.3039 3.76242 88.2385 4.14482 88.2385 4.57223Z" fill="#3981F1"/>
<path d="M96.5547 0.201172H100.178C101.364 0.201172 102.257 0.375515 102.856 0.724201C103.454 1.07288 103.754 1.67464 103.754 2.52946C103.754 2.9344 103.666 3.27747 103.492 3.55864C103.318 3.83987 103.089 4.09294 102.807 4.31787C103.209 4.47539 103.508 4.73968 103.705 5.11085C103.9 5.47081 103.998 5.88696 103.998 6.3594C103.998 7.23673 103.699 7.89473 103.1 8.33337C102.502 8.76079 101.659 8.9745 100.57 8.9745H96.5547V0.201172ZM98.4158 5.34705V7.23673H100.391C100.946 7.23673 101.364 7.1636 101.648 7.01736C101.931 6.87116 102.072 6.63497 102.072 6.30877C102.072 5.96008 101.936 5.71262 101.664 5.56642C101.403 5.42017 100.995 5.34705 100.44 5.34705H98.4158ZM98.4158 1.93897V3.67674H100.603C100.984 3.67674 101.283 3.60367 101.501 3.45742C101.719 3.31123 101.827 3.08625 101.827 2.78254C101.827 2.42264 101.68 2.19205 101.386 2.09083C101.103 1.98961 100.685 1.93897 100.129 1.93897H98.4158Z" fill="#3981F1"/>
</svg>
